<svg width="29" height="28" viewBox="0 0 29 28" fill="none" xmlns="http://www.w3.org/2000/svg">
<path d="M25.9672 10.6694V12.9608L22.7954 13.3054V22.5093C22.7954 22.9249 22.6477 23.346 22.3907 23.7288C22.0024 24.303 21.3516 24.8062 20.5368 25.0851C18.9344 25.6429 17.3047 25.1397 16.8946 23.9694C16.4844 22.7937 17.4579 21.3937 19.0602 20.8358C19.5579 20.6608 20.0555 20.5897 20.5204 20.6116V11.2601L22.7954 11.014L25.9672 10.6694Z" fill="#FE5900"/>
<path d="M18.3227 2.68506V14.3937C18.3227 14.8093 18.1751 15.2304 17.918 15.6132C17.5297 16.1929 16.879 16.6905 16.0641 16.9694C14.4618 17.5272 12.8321 17.0241 12.4219 15.8538C12.0118 14.678 12.9852 13.278 14.5876 12.7202C15.0852 12.5452 15.5829 12.4741 16.0477 12.496V5.22256L9.02584 5.98272V15.1866C9.02584 15.6022 8.87819 16.0233 8.62115 16.4062C8.23287 16.9804 7.58209 17.4835 6.76725 17.7624C5.1649 18.3202 3.53522 17.8171 3.12506 16.6468C2.7149 15.471 3.68834 14.071 5.29069 13.5132C5.78834 13.3382 6.286 13.2671 6.75084 13.289V3.9374L9.02584 3.69131L16.0477 2.93115L18.3227 2.68506Z" fill="#FFA500"/>
<path d="M10.2504 20.3436C10.8212 20.3436 11.284 19.8808 11.284 19.31C11.284 18.7391 10.8212 18.2764 10.2504 18.2764C9.67955 18.2764 9.2168 18.7391 9.2168 19.31C9.2168 19.8808 9.67955 20.3436 10.2504 20.3436Z" fill="#FFA500"/>
<path d="M15.2594 20.4804C15.6248 20.4804 15.9211 20.1842 15.9211 19.8187C15.9211 19.4532 15.6248 19.157 15.2594 19.157C14.8939 19.157 14.5977 19.4532 14.5977 19.8187C14.5977 20.1842 14.8939 20.4804 15.2594 20.4804Z" fill="#FFA500"/>
<path d="M24.7105 4.27656C25.076 4.27656 25.3723 3.9803 25.3723 3.61484C25.3723 3.24939 25.076 2.95312 24.7105 2.95312C24.3451 2.95312 24.0488 3.24939 24.0488 3.61484C24.0488 3.9803 24.3451 4.27656 24.7105 4.27656Z" fill="#FE5900"/>
<path d="M12.6141 24.8062C13.4688 24.8062 14.1617 24.1133 14.1617 23.2586C14.1617 22.4038 13.4688 21.7109 12.6141 21.7109C11.7593 21.7109 11.0664 22.4038 11.0664 23.2586C11.0664 24.1133 11.7593 24.8062 12.6141 24.8062Z" fill="#FE5900"/>
<path d="M21.8055 8.48203C22.6602 8.48203 23.3531 7.78912 23.3531 6.93438C23.3531 6.07963 22.6602 5.38672 21.8055 5.38672C20.9507 5.38672 20.2578 6.07963 20.2578 6.93438C20.2578 7.78912 20.9507 8.48203 21.8055 8.48203Z" fill="#FE5900"/>
</svg>
