<svg width="80" height="80" viewBox="0 0 80 80" fill="none" xmlns="http://www.w3.org/2000/svg">
<g clip-path="url(#clip0_11775_10823)">
<path fill-rule="evenodd" clip-rule="evenodd" d="M31.863 12.3243C35.851 6.74085 44.1493 6.74085 48.1377 12.3243L48.7727 13.2132C49.4743 14.1959 50.653 14.7221 51.853 14.5887L54.683 14.2743C61.0523 13.5666 66.434 18.9483 65.7263 25.3174L65.412 28.1475C65.2787 29.3477 65.8047 30.5261 66.7873 31.228L67.6763 31.863C73.2597 35.851 73.2597 44.1493 67.6763 48.1377L66.7873 48.7727C65.8047 49.4743 65.2787 50.653 65.412 51.853L65.7263 54.683C66.434 61.0523 61.0523 66.434 54.683 65.7263L51.853 65.412C50.653 65.2787 49.4743 65.8047 48.7727 66.7873L48.1377 67.6763C44.1493 73.2597 35.8513 73.2597 31.863 67.6763L31.228 66.7873C30.5261 65.8047 29.3477 65.2787 28.1475 65.412L25.3174 65.7263C18.9483 66.434 13.5666 61.0523 14.2743 54.683L14.5887 51.853C14.7221 50.653 14.1959 49.4743 13.2132 48.7727L12.3243 48.1377C6.74085 44.1493 6.74085 35.8513 12.3243 31.863L13.2132 31.228C14.1959 30.5261 14.7221 29.3477 14.5887 28.1475L14.2743 25.3174C13.5666 18.9483 18.9483 13.5666 25.3174 14.2743L28.1475 14.5887C29.3477 14.7221 30.5261 14.1959 31.228 13.2132L31.863 12.3243ZM52.3573 30.9766C53.659 32.2784 53.659 34.389 52.3573 35.6907L39.6277 48.4203C37.9927 50.0557 35.3413 50.0557 33.7063 48.4203L27.6433 42.3573C26.3416 41.0557 26.3416 38.945 27.6433 37.6433C28.9451 36.3417 31.0556 36.3417 32.3574 37.6433L36.667 41.953L47.6433 30.9766C48.945 29.6749 51.0557 29.6749 52.3573 30.9766Z" fill="#00C300"/>
</g>
<defs>
<clipPath id="clip0_11775_10823">
<rect width="80" height="80" fill="white"/>
</clipPath>
</defs>
</svg>
