<svg width="36" height="36" viewBox="0 0 36 36" fill="none" xmlns="http://www.w3.org/2000/svg">
<g clip-path="url(#clip0_11547_2008)">
<path d="M18 36C27.9411 36 36 27.9411 36 18C36 8.05887 27.9411 0 18 0C8.05887 0 0 8.05887 0 18C0 27.9411 8.05887 36 18 36Z" fill="#F0F0F0"/>
<path d="M36.0009 17.9996C36.0009 10.2602 31.1161 3.66241 24.2617 1.11914V34.88C31.1161 32.3367 36.0009 25.7389 36.0009 17.9996Z" fill="#D80027"/>
<path d="M0 17.9996C0 25.7389 4.88482 32.3367 11.7392 34.88V1.11914C4.88482 3.66241 0 10.2602 0 17.9996Z" fill="#0052B4"/>
</g>
<defs>
<clipPath id="clip0_11547_2008">
<rect width="36" height="36" fill="white"/>
</clipPath>
</defs>
</svg>
