<svg width="21" height="20" viewBox="0 0 21 20" fill="none" xmlns="http://www.w3.org/2000/svg">
<path d="M15.5 6.6665C16.8807 6.6665 18 5.54722 18 4.1665C18 2.78579 16.8807 1.6665 15.5 1.6665C14.1193 1.6665 13 2.78579 13 4.1665C13 5.54722 14.1193 6.6665 15.5 6.6665Z" stroke="#768EA9" stroke-width="1.4" stroke-linecap="round" stroke-linejoin="round"/>
<path d="M5.5 12.5C6.88071 12.5 8 11.3807 8 10C8 8.61929 6.88071 7.5 5.5 7.5C4.11929 7.5 3 8.61929 3 10C3 11.3807 4.11929 12.5 5.5 12.5Z" stroke="#1B1B1B" stroke-width="1.4" stroke-linecap="round" stroke-linejoin="round"/>
<path d="M15.5 18.3335C16.8807 18.3335 18 17.2142 18 15.8335C18 14.4528 16.8807 13.3335 15.5 13.3335C14.1193 13.3335 13 14.4528 13 15.8335C13 17.2142 14.1193 18.3335 15.5 18.3335Z" stroke="#1B1B1B" stroke-width="1.4" stroke-linecap="round" stroke-linejoin="round"/>
<path d="M7.6582 11.2583L13.3499 14.575" stroke="#1B1B1B" stroke-width="1.4" stroke-linecap="round" stroke-linejoin="round"/>
<path d="M13.3415 5.4248L7.6582 8.74147" stroke="#1B1B1B" stroke-width="1.4" stroke-linecap="round" stroke-linejoin="round"/>
</svg>
