<svg width="23" height="22" viewBox="0 0 23 22" fill="none" xmlns="http://www.w3.org/2000/svg">
<g opacity="0.4">
<path d="M11.2247 4.37771C11.8615 2.7544 12.1799 1.94274 12.8459 1.84269C13.5117 1.74263 14.0841 2.42043 15.2289 3.77604L15.5251 4.12675C15.8504 4.51197 16.0131 4.70458 16.2342 4.81457C16.4554 4.92455 16.71 4.93944 17.2193 4.96924L17.6829 4.99638C19.4749 5.10126 20.371 5.15371 20.6819 5.73955C20.9928 6.3254 20.5128 7.05666 19.5527 8.5192L19.3043 8.89757C19.0315 9.31319 18.8951 9.521 18.8582 9.75823C18.8214 9.99547 18.8882 10.2354 19.022 10.715L19.1437 11.1518C19.6145 12.84 19.8499 13.684 19.3761 14.1461C18.9024 14.6083 18.0333 14.3824 16.2951 13.9307L15.8454 13.8138C15.3515 13.6855 15.1045 13.6213 14.8605 13.6579C14.6166 13.6946 14.4033 13.828 13.9768 14.0946L13.5884 14.3374C12.0872 15.2758 11.3367 15.7451 10.733 15.4449C10.1292 15.1446 10.0721 14.2737 9.95801 12.5321L9.9285 12.0814C9.89605 11.5865 9.87982 11.339 9.76592 11.1244C9.65202 10.9098 9.45332 10.7524 9.05592 10.4375L8.69412 10.1507C7.29565 9.04264 6.59641 8.48857 6.69702 7.84089C6.79763 7.1932 7.63145 6.88083 9.2991 6.25611L9.73054 6.09448C10.2044 5.91696 10.4414 5.8282 10.6149 5.65891C10.7884 5.48962 10.879 5.25897 11.0599 4.79768L11.2247 4.37771Z" fill="#FE5900"/>
<path d="M5.47755 8.79297C3.24353 10.9275 1.77878 14.4882 2.747 20.1664C3.61122 17.7798 5.97918 15.8036 8.77953 14.623C8.68182 14.0797 8.63847 13.4163 8.59276 12.7168L8.55702 12.1713C8.54871 12.0443 8.54236 11.9481 8.53559 11.8652C8.53277 11.8308 8.53013 11.802 8.52767 11.7778C8.50638 11.7595 8.48044 11.7378 8.4486 11.7118C8.3822 11.6575 8.30431 11.5957 8.20257 11.515L7.76698 11.1699C7.13163 10.6667 6.53979 10.1979 6.13288 9.76558C5.90086 9.51918 5.64139 9.19413 5.47755 8.79297Z" fill="#FE5900"/>
<path d="M10.0938 14.1382C10.0892 14.1039 10.0846 14.0689 10.0801 14.0332L10.1315 14.1262C10.1189 14.1302 10.1064 14.1341 10.0938 14.1382Z" fill="#FE5900"/>
</g>
</svg>
