<svg width="23" height="22" viewBox="0 0 23 22" fill="none" xmlns="http://www.w3.org/2000/svg">
<g opacity="0.4">
<path d="M19.906 20.1677V1.10059H3.30078V20.1677L11.6037 15.9231L19.9067 20.1677H19.906Z" fill="#FE5900"/>
<path d="M2.17198 22V21.6562C2.17198 15.1392 2.17703 8.624 2.18711 2.11063C2.18711 1.33856 1.97398 0.710875 1.4068 0.198688C1.34905 0.145063 1.30023 0.0825 1.22461 0H21.9947C21.8922 0.10725 21.8118 0.197312 21.7252 0.279125C21.2398 0.743875 21.0274 1.30212 21.028 1.98275C21.0404 8.54792 21.0436 15.1112 21.0377 21.6728V21.9993L11.6059 17.2844L2.17198 22ZM3.30017 1.10069V20.1678L11.6031 15.9232L19.906 20.1678V1.10069H3.30017Z" fill="white"/>
<path d="M15.8693 10.6758H7.3402C7.24739 10.3506 7.15183 10.0226 7.06108 9.69333C6.87339 9.02027 6.6857 8.35064 6.51452 7.67139C6.49664 7.59714 6.48633 7.5112 6.48633 7.4232C6.48633 7.42183 6.48633 7.42114 6.48633 7.41977C6.48633 7.41839 6.48633 7.41702 6.48633 7.41633C6.48633 7.33108 6.49595 7.24789 6.51383 7.16814L6.51245 7.1757L6.51108 7.18327C6.5812 6.83814 6.68295 6.4992 6.7902 6.08739L7.55814 7.3517C7.49558 7.45414 7.43508 7.54833 7.37939 7.64527C7.19927 7.95877 7.31064 8.30045 7.64889 8.43383C8.21333 8.65658 8.80045 8.62014 9.38689 8.55552C9.63645 8.52527 9.86058 8.47577 10.0765 8.40839L10.0496 8.41595L10.0228 8.42283C10.6388 8.24339 10.9262 7.72777 10.7316 7.11245C10.6436 6.83333 10.4903 6.57552 10.3515 6.27302L11.6068 4.00977L12.8416 6.24002C12.6938 6.6312 12.5171 6.9557 12.4545 7.3022C12.3514 7.86114 12.6264 8.25989 13.1702 8.41733C13.5525 8.53489 13.9925 8.60227 14.4483 8.60227C14.4531 8.60227 14.4586 8.60227 14.4634 8.60227C14.7583 8.60227 15.0471 8.57477 15.3269 8.52183L15.298 8.52664L15.2698 8.53077C15.8501 8.4297 16.1347 7.97733 15.7291 7.47614C15.7064 7.44314 15.683 7.40533 15.6624 7.36545L15.6596 7.35927L15.6569 7.35308C15.8982 6.95433 16.1395 6.55077 16.3808 6.14652H16.4434C16.508 6.72127 16.8779 7.23002 16.6627 7.87352C16.3801 8.72464 16.1739 9.60189 15.9346 10.4681C15.9147 10.5376 15.892 10.605 15.8693 10.6758Z" fill="white"/>
<path d="M15.8705 11.1133V11.7307H7.34961V11.1133H15.8705Z" fill="white"/>
<path d="M4.67773 11.7311V11.1123H6.06167V11.7311H4.67773Z" fill="white"/>
<path d="M18.5255 11.7381H17.1484V11.1152H18.5255V11.7381Z" fill="white"/>
</g>
</svg>
