<svg width="29" height="28" viewBox="0 0 29 28" fill="none" xmlns="http://www.w3.org/2000/svg">
<g clip-path="url(#clip0_11560_15952)">
<path d="M14.5002 28C20.8991 28 26.0864 22.8127 26.0864 16.4138C26.0864 10.0149 20.8991 4.82764 14.5002 4.82764C8.10136 4.82764 2.91406 10.0149 2.91406 16.4138C2.91406 22.8127 8.10136 28 14.5002 28Z" fill="#FFA500"/>
<path d="M20.2923 24.6208C21.3588 24.6208 22.2233 23.7563 22.2233 22.6898C22.2233 21.6233 21.3588 20.7588 20.2923 20.7588C19.2259 20.7588 18.3613 21.6233 18.3613 22.6898C18.3613 23.7563 19.2259 24.6208 20.2923 24.6208Z" fill="#E68C00"/>
<path d="M19.8105 24.6207C13.5732 24.6207 8.48932 19.6914 8.23656 13.516C9.03062 13.5093 9.67265 12.8647 9.67265 12.069C9.67265 11.3565 9.15716 10.7674 8.47948 10.6464C8.90374 8.62669 9.84672 6.79795 11.1729 5.31494C6.39628 6.74501 2.91406 11.1717 2.91406 16.4138C2.91401 22.8127 8.10132 28 14.5002 28C17.9332 28 21.0162 26.5056 23.1378 24.1333C22.0836 24.4489 20.9673 24.6207 19.8105 24.6207Z" fill="#E68C00"/>
<path d="M26.0741 16.8966C26.0807 16.7363 26.0864 16.5758 26.0864 16.4138C26.0864 16.2519 26.0807 16.0914 26.0741 15.9311H21.7345C21.6926 14.0214 21.4036 12.2208 20.9212 10.6208H24.5326C24.3401 10.2881 24.1317 9.96589 23.9082 9.65527H20.5975C19.9262 7.84216 18.9923 6.35062 17.8914 5.33317C16.9663 5.05038 15.9904 4.88752 14.9831 4.84574V4.83989C14.8228 4.83332 14.6622 4.82764 14.5003 4.82764C14.3383 4.82764 14.1778 4.83332 14.0175 4.83989V4.84579C13.0102 4.88746 12.0342 5.05043 11.1092 5.33322C10.0083 6.35062 9.07431 7.84222 8.40308 9.65532H5.09231C4.8687 9.966 4.66039 10.2882 4.46789 10.6208H8.07933C7.59688 12.2209 7.3078 14.0216 7.26597 15.9311H2.92631C2.91975 16.0914 2.91406 16.252 2.91406 16.4139C2.91406 16.5758 2.91975 16.7364 2.92631 16.8967H7.26597C7.30791 18.8063 7.59694 20.607 8.07933 22.207H4.46795C4.66045 22.5396 4.86881 22.8619 5.09237 23.1725H8.40297C9.07426 24.9856 10.0082 26.4771 11.1091 27.4946C12.0342 27.7774 13.01 27.9402 14.0174 27.982V27.9879C14.1777 27.9944 14.3382 28.0001 14.5002 28.0001C14.6621 28.0001 14.8227 27.9944 14.9829 27.9879V27.9819C15.9903 27.9402 16.9662 27.7773 17.8913 27.4945C18.9922 26.4771 19.9261 24.9855 20.5974 23.1724H23.908C24.1316 22.8617 24.3399 22.5395 24.5324 22.2069H20.921C21.4035 20.6068 21.6924 18.8061 21.7344 16.8966H26.0741V16.8966ZM19.5928 9.65527H14.9829V4.86564C16.8785 5.13378 18.5408 6.96115 19.5928 9.65527ZM14.0175 4.86564V9.65527H9.40763C10.4597 6.96115 12.1219 5.13378 14.0175 4.86564ZM9.06873 10.6208H14.0175V15.9311H8.23103C8.27407 14.0026 8.57403 12.1954 9.06873 10.6208ZM8.23103 16.8966H14.0175V22.2069H9.06873C8.57403 20.6322 8.27407 18.8251 8.23103 16.8966ZM9.40763 23.1724H14.0175V27.9621C12.1219 27.6939 10.4597 25.8665 9.40763 23.1724ZM14.983 27.9621V23.1724H19.5929C18.5408 25.8665 16.8785 27.6939 14.983 27.9621ZM19.9317 22.2069H14.9829V16.8966H20.7695C20.7264 18.8251 20.4264 20.6322 19.9317 22.2069ZM14.983 15.9311V10.6208H19.9318C20.4265 12.1954 20.7264 14.0026 20.7695 15.9311H14.983Z" fill="#FFE4B3"/>
<path d="M21.2337 21.0133C20.9584 20.8584 20.6458 20.763 20.3081 20.7603C20.1982 21.2589 20.0757 21.7454 19.9307 22.207H18.4296C18.3894 22.3621 18.3613 22.522 18.3613 22.6897C18.3613 22.8574 18.3894 23.0174 18.4296 23.1725H19.5919C19.4488 23.539 19.2943 23.8895 19.1295 24.2223C19.3756 24.4094 19.6649 24.5381 19.9831 24.5896C20.2055 24.1428 20.4118 23.6712 20.5964 23.1725H22.1551C22.1953 23.0174 22.2233 22.8575 22.2233 22.6897C22.2233 22.522 22.1953 22.3621 22.1551 22.207H20.9201C21.0365 21.8207 21.1404 21.4216 21.2337 21.0133Z" fill="#D5DCED"/>
<path d="M20.2936 23.6551C20.8269 23.6551 21.2591 23.2229 21.2591 22.6896C21.2591 22.1564 20.8269 21.7241 20.2936 21.7241C19.7604 21.7241 19.3281 22.1564 19.3281 22.6896C19.3281 23.2229 19.7604 23.6551 20.2936 23.6551Z" fill="#FE5900"/>
<path d="M19.9711 24.6146C19.9173 24.6153 19.8646 24.6205 19.8106 24.6205C19.5176 24.6205 19.2281 24.606 18.9406 24.5846C17.9105 26.4934 16.5243 27.7436 14.9831 27.962V23.5677C14.6794 23.4282 14.3849 23.2728 14.096 23.1085C13.6213 22.8385 13.1658 22.5389 12.7358 22.2068H9.06879C8.57409 20.6321 8.27413 18.8249 8.23109 16.8965H8.8863C8.77452 16.5804 8.67384 16.259 8.58945 15.9309H8.23109C8.24219 15.434 8.27167 14.9461 8.3158 14.4671C8.27714 14.1538 8.25455 13.8358 8.24039 13.5156C8.30727 13.5142 8.37213 13.5054 8.43671 13.4958C8.56862 12.564 8.75937 11.678 9.00557 10.8525C8.8484 10.7513 8.67017 10.681 8.47959 10.6462C8.90385 8.62658 9.84682 6.79784 11.173 5.31494C11.1493 5.322 11.1269 5.33173 11.1033 5.33889C10.005 6.35619 9.07311 7.84532 8.40308 9.65509H5.09887C4.87509 9.9656 4.66788 10.2881 4.47528 10.6206H8.07944C7.59699 12.2206 7.30791 14.0213 7.26608 15.9309H2.93402C2.92741 16.0918 2.91406 16.2511 2.91406 16.4137C2.91406 16.5756 2.91975 16.7362 2.92631 16.8965H7.26597C7.30791 18.8061 7.59693 20.6067 8.07933 22.2068H4.46795C4.66045 22.5394 4.8688 22.8616 5.09237 23.1723H8.40297C9.07426 24.9854 10.0082 26.4769 11.1091 27.4944C12.0342 27.7771 13.01 27.94 14.0174 27.9818V27.9876C14.1777 27.9942 14.3382 27.9999 14.5002 27.9999C14.6622 27.9999 14.8226 27.9934 14.9829 27.9868V27.9816C15.9923 27.9392 16.9694 27.7737 17.8962 27.4896C18.6865 26.7577 19.3887 25.7787 19.9711 24.6146ZM9.40763 23.1723H14.0175V27.9619C12.1219 27.6937 10.4597 25.8664 9.40763 23.1723Z" fill="#D5DCED"/>
<path d="M8.2237 0C10.6233 0 12.5685 1.94523 12.5685 4.3448C12.5685 7.24136 9.18921 9.17237 8.2237 12.0689C7.2582 9.17231 3.87891 7.24131 3.87891 4.3448C3.87891 1.94523 5.82413 0 8.2237 0Z" fill="#FE6A19"/>
<path d="M8.2237 0C5.82413 0 3.87891 1.94523 3.87891 4.3448C3.87891 7.24136 7.2582 9.17237 8.2237 12.0689C7.79457 9.17231 6.29269 7.24131 6.29269 4.3448C6.29269 1.94523 7.15724 0 8.2237 0Z" fill="#E43F00"/>
</g>
<defs>
<clipPath id="clip0_11560_15952">
<rect width="28" height="28" fill="white" transform="translate(0.5)"/>
</clipPath>
</defs>
</svg>
