<svg width="29" height="28" viewBox="0 0 29 28" fill="none" xmlns="http://www.w3.org/2000/svg">
<g clip-path="url(#clip0_11560_15965)">
<path d="M22.5422 4.43764C22.2328 4.43764 21.9188 4.37273 21.6198 4.23535C21.0814 3.988 20.6714 3.54585 20.4655 2.99028C20.2597 2.43471 20.2825 1.83216 20.5298 1.2937C20.777 0.755304 21.2192 0.345311 21.7748 0.139413C22.3304 -0.0664863 22.9329 -0.0436816 23.4714 0.203616C24.5829 0.71407 25.072 2.03368 24.5615 3.14526C24.1883 3.95776 23.3827 4.43764 22.5422 4.43764ZM22.5462 0.990188C22.4021 0.990188 22.2577 1.01584 22.1186 1.06735C21.8108 1.18143 21.5659 1.40844 21.429 1.70665C21.2921 2.00492 21.2794 2.33867 21.3935 2.6464C21.5075 2.95413 21.7345 3.19897 22.0328 3.33596C22.6483 3.61875 23.3794 3.34783 23.6621 2.73215C23.9448 2.11642 23.674 1.38552 23.0583 1.10284C22.8949 1.02792 22.7208 0.990188 22.5462 0.990188Z" fill="#E68C00"/>
<path d="M16.0381 24.9545C15.8457 25.3733 15.5819 25.7376 15.2681 26.0383C14.2449 27.0177 12.6885 27.3291 11.3228 26.7019C9.95704 26.0747 9.17889 24.6913 9.25513 23.2769C9.27875 22.8429 9.38304 22.4054 9.57538 21.9866L16.0381 24.9545Z" fill="#FFA500"/>
<path d="M16.0388 24.9543C15.8465 25.3731 15.5826 25.7374 15.2688 26.0381L9.25586 23.2767C9.27948 22.8427 9.38377 22.4052 9.57611 21.9863L16.0388 24.9543Z" fill="#E68C00"/>
<path d="M11.3558 22.804L9.57529 21.9863C8.75575 23.7708 9.53816 25.8821 11.3227 26.7017C11.6315 26.8435 11.9504 26.9363 12.2705 26.9853C11.0966 25.9779 10.6782 24.2796 11.3558 22.804Z" fill="#E68C00"/>
<path d="M21.8262 3.78574C17.5527 1.82311 12.5662 3.54637 9.87517 9.40603L8.75653 11.8419C7.92725 13.6478 5.59083 15.0652 3.47273 16.0282C2.06501 16.6682 2.05599 18.6626 3.46124 19.3079L12.7407 23.5695L22.0202 27.8309C23.4255 28.4763 24.9324 27.1697 24.5005 25.6849C23.8506 23.4508 23.4032 20.755 24.2326 18.9491L25.3512 16.5132C28.0422 10.6536 26.0998 5.74831 21.8262 3.78574Z" fill="#FFA500"/>
<path d="M6.44024 17.391C8.55835 16.4281 10.8948 15.0106 11.724 13.2048L12.8427 10.7689C15.214 5.60512 19.368 3.6543 23.2459 4.60668C22.8079 4.29393 22.3337 4.01885 21.8262 3.78577C17.5526 1.82308 12.5661 3.54635 9.87517 9.40601L8.75654 11.8419C7.92725 13.6477 5.59083 15.0651 3.47273 16.0281C2.06501 16.6681 2.05599 18.6625 3.46124 19.3079C3.46124 19.3079 4.7831 19.9149 6.42881 20.6707C5.0235 20.0254 5.03258 18.031 6.44024 17.391Z" fill="#E68C00"/>
</g>
<defs>
<clipPath id="clip0_11560_15965">
<rect width="28" height="28" fill="white" transform="translate(0.5)"/>
</clipPath>
</defs>
</svg>
