<svg width="29" height="28" viewBox="0 0 29 28" fill="none" xmlns="http://www.w3.org/2000/svg">
<path d="M14.582 14.833L20.8564 23.0053H22.6727C22.6727 18.5193 19.0584 14.8772 14.582 14.833Z" fill="#CC7200"/>
<path d="M14.5 3.63257V13.0163C17.0911 13.0163 19.1919 10.9156 19.1919 8.32443C19.1919 5.73328 17.0911 3.63257 14.5 3.63257Z" fill="#FEAC80"/>
<path d="M14.5815 14.8331C18.0541 14.8901 20.8559 18.5267 20.8559 23.0055H6.32617C6.32617 18.4916 9.98526 14.8325 14.4992 14.8325C14.5264 14.8325 14.5542 14.8325 14.5815 14.8331Z" fill="#FFA500"/>
<path d="M14.5005 3.63257C16.0885 3.63257 17.3762 5.73333 17.3762 8.32448C17.3762 10.9156 16.0885 13.0163 14.5005 13.0163C11.9094 13.0163 9.80859 10.9156 9.80859 8.32443C9.80859 5.73328 11.9094 3.63257 14.5005 3.63257Z" fill="#FFCDB2"/>
<path d="M14.501 10.1319C13.9061 10.1319 13.3704 9.7704 13.1679 9.23244C13.0796 8.99772 13.1982 8.73588 13.433 8.64756C13.6677 8.5594 13.9295 8.67791 14.0178 8.91263C14.0879 9.09878 14.282 9.22391 14.5009 9.22391C14.7198 9.22391 14.914 9.09884 14.9841 8.91257C15.0724 8.67785 15.3346 8.5594 15.569 8.64761C15.8037 8.73599 15.9223 8.99783 15.834 9.23255C15.6316 9.77051 15.0958 10.1319 14.501 10.1319Z" fill="#FEAC80"/>
<path d="M24.5201 25.7299H21.3115C21.0607 25.7299 20.8574 25.5267 20.8574 25.2758C20.8574 25.025 21.0606 24.8218 21.3115 24.8218H24.5201C24.7709 24.8218 24.9742 25.025 24.9742 25.2758C24.9742 25.5266 24.7709 25.7299 24.5201 25.7299Z" fill="#FEAC80"/>
<path d="M19.4955 25.7299H4.48141C4.23062 25.7299 4.02734 25.5267 4.02734 25.2758C4.02734 25.025 4.23056 24.8218 4.48141 24.8218H19.4955C19.7463 24.8218 19.9496 25.025 19.9496 25.2758C19.9495 25.5266 19.7463 25.7299 19.4955 25.7299Z" fill="#FEAC80"/>
</svg>
