<svg width="29" height="28" viewBox="0 0 29 28" fill="none" xmlns="http://www.w3.org/2000/svg">
<g clip-path="url(#clip0_11560_15975)">
<path d="M28.5009 22.1538V28H26.6547L24.8086 25.0769L26.6547 22.1538H28.5009Z" fill="#FFBD99"/>
<path d="M26.6539 22.1538H0.5V28H26.6539V22.1538Z" fill="#FFCDB2"/>
<path d="M4.55198 25.9999C5.06177 25.9999 5.47505 25.5867 5.47505 25.0769C5.47505 24.5671 5.06177 24.1538 4.55198 24.1538C4.04218 24.1538 3.62891 24.5671 3.62891 25.0769C3.62891 25.5867 4.04218 25.9999 4.55198 25.9999Z" fill="#FE5900"/>
<path d="M9.52659 25.9999C10.0364 25.9999 10.4497 25.5867 10.4497 25.0769C10.4497 24.5671 10.0364 24.1538 9.52659 24.1538C9.01679 24.1538 8.60352 24.5671 8.60352 25.0769C8.60352 25.5867 9.01679 25.9999 9.52659 25.9999Z" fill="#FE5900"/>
<path d="M14.5012 25.9999C15.011 25.9999 15.4243 25.5867 15.4243 25.0769C15.4243 24.5671 15.011 24.1538 14.5012 24.1538C13.9914 24.1538 13.5781 24.5671 13.5781 25.0769C13.5781 25.5867 13.9914 25.9999 14.5012 25.9999Z" fill="#FE5900"/>
<path d="M19.4758 25.9999C19.9856 25.9999 20.3989 25.5867 20.3989 25.0769C20.3989 24.5671 19.9856 24.1538 19.4758 24.1538C18.966 24.1538 18.5527 24.5671 18.5527 25.0769C18.5527 25.5867 18.966 25.9999 19.4758 25.9999Z" fill="#FE5900"/>
<path d="M24.4504 25.9999C24.9602 25.9999 25.3735 25.5867 25.3735 25.0769C25.3735 24.5671 24.9602 24.1538 24.4504 24.1538C23.9406 24.1538 23.5273 24.5671 23.5273 25.0769C23.5273 25.5867 23.9406 25.9999 24.4504 25.9999Z" fill="#FE5900"/>
<path d="M14.584 11.3853L20.9618 19.6923H22.8079C22.808 15.1323 19.1341 11.4302 14.584 11.3853Z" fill="#CC7200"/>
<path d="M14.5 0V9.53848C17.1339 9.53848 19.2692 7.4031 19.2692 4.76924C19.2692 2.13538 17.1339 0 14.5 0Z" fill="#FFCDB2"/>
<path d="M14.5828 11.3851C18.1126 11.443 20.9606 15.1396 20.9606 19.6922H6.19141C6.19141 15.1039 9.91081 11.3845 14.4991 11.3845C14.5268 11.3845 14.5551 11.3845 14.5828 11.3851Z" fill="#FFA500"/>
<path d="M14.4997 0C16.1139 0 17.4228 2.13538 17.4228 4.76924C17.4228 7.4031 16.1139 9.53848 14.4997 9.53848C11.8659 9.53848 9.73047 7.4031 9.73047 4.76924C9.73047 2.13538 11.8659 0 14.4997 0Z" fill="#FFCDB2"/>
<path d="M14.4999 6.60663C13.8953 6.60663 13.3508 6.23919 13.1449 5.69231C13.0552 5.45377 13.1757 5.18755 13.4143 5.09781C13.6529 5.00806 13.919 5.1287 14.0088 5.3672C14.08 5.55642 14.2774 5.68362 14.4999 5.68362C14.7225 5.68362 14.9198 5.55647 14.9911 5.3672C15.0809 5.1286 15.347 5.00806 15.5856 5.09781C15.8241 5.1876 15.9447 5.45382 15.8549 5.69231C15.6491 6.23924 15.1046 6.60663 14.4999 6.60663Z" fill="#FEAC80"/>
</g>
<defs>
<clipPath id="clip0_11560_15975">
<rect width="28" height="28" fill="white" transform="translate(0.5)"/>
</clipPath>
</defs>
</svg>
