<svg width="24" height="24" viewBox="0 0 24 24" fill="none" xmlns="http://www.w3.org/2000/svg">
<path fill-rule="evenodd" clip-rule="evenodd" d="M18.9706 15.2542C18.8148 18.9761 15.7493 21.946 11.9891 21.946C8.12909 21.946 5 18.7117 5 14.957C5 14.4551 4.99101 13.4521 5.74352 11.7599C6.19387 10.7471 6.47633 10.1109 6.63574 9.5293C6.72333 9.20967 6.89367 8.70184 7.37926 9.5293C7.66559 10.0172 7.67666 10.7189 7.67666 10.7189C7.67666 10.7189 8.74197 9.90143 9.4611 8.33968C10.5153 6.05017 9.67419 4.68158 9.38675 3.72988C9.28727 3.40065 9.22481 2.80896 9.90721 3.06071C10.6025 3.3173 12.4408 4.6041 13.4017 5.96043C14.7732 7.89617 15.2605 9.75236 15.2605 9.75236C15.2605 9.75236 15.6997 9.20736 15.8553 8.63708C16.0312 7.99312 16.0338 7.35534 16.5988 8.04235C17.1361 8.69567 17.9341 9.92344 18.3833 11.0907C19.1989 13.2104 18.9706 15.2542 18.9706 15.2542Z" fill="url(#paint0_linear_11461_2651)"/>
<path fill-rule="evenodd" clip-rule="evenodd" d="M11.9891 21.9457C9.31996 21.9457 7.15625 19.782 7.15625 17.1129C7.15625 15.5024 7.80527 14.5246 9.15601 13.1986C10.0209 12.3495 10.8303 11.3068 11.1744 10.5967C11.2421 10.4569 11.3962 9.72851 11.9905 10.5814C12.3023 11.0287 12.791 11.8242 13.1044 12.5031C13.6446 13.6736 13.7735 14.808 13.7735 14.808C13.7735 14.808 14.303 14.496 14.6658 13.6927C14.7827 13.4338 15.0192 12.4537 15.6801 13.4337C16.1651 14.1528 16.8314 15.4458 16.822 17.1129C16.822 19.782 14.6582 21.9457 11.9891 21.9457Z" fill="#FC9502"/>
<path fill-rule="evenodd" clip-rule="evenodd" d="M12.064 16.668C12.7518 16.668 12.7518 17.9415 13.6254 19.642C14.2071 20.7743 13.337 21.9469 12.064 21.9469C10.791 21.9469 10.1309 20.915 10.1309 19.642C10.1309 18.3691 11.3762 16.668 12.064 16.668Z" fill="#FCE202"/>
<defs>
<linearGradient id="paint0_linear_11461_2651" x1="11.9995" y1="21.96" x2="11.9995" y2="3.01432" gradientUnits="userSpaceOnUse">
<stop stop-color="#FF4C0D"/>
<stop offset="1" stop-color="#FC9502"/>
</linearGradient>
</defs>
</svg>
