<svg width="580" height="507" viewBox="0 0 580 507" fill="none" xmlns="http://www.w3.org/2000/svg">
<g clip-path="url(#clip0_10002_74033)">
<rect width="580" height="507" fill="#ECECEC"/>
<path d="M244.94 226.189C244.94 229.691 241.69 232.532 237.684 232.532C237.151 232.532 236.625 232.474 236.119 232.379C233.981 231.967 232.207 230.734 231.229 229.072C230.724 228.205 230.434 227.227 230.434 226.189C230.434 222.687 233.684 219.852 237.684 219.852C241.683 219.852 244.94 222.687 244.94 226.189Z" fill="#FFAC00"/>
<path d="M340.729 354.164L339.879 362.418L337.391 360.484C338.753 358.391 339.846 356.257 340.729 354.164Z" fill="#DD920B"/>
<path d="M400.779 127.158C400.779 123.132 398.318 120.108 396.321 118.309C394.952 117.083 393.799 116.429 393.799 116.429C393.799 116.429 395.114 110.97 395.114 103.17C395.114 92.1164 392.471 76.3699 379.67 64.8327C379.043 64.2668 378.389 63.7126 377.707 63.1643C362.236 50.7369 345.12 45.6375 331.928 51.8099H331.921C326.506 54.3449 321.751 58.7782 318.042 65.3869H318.035C317.967 65.2984 317.178 64.3552 315.83 63.129C315.769 63.0759 315.701 63.0169 315.634 62.958C315.567 62.8931 315.499 62.8342 315.432 62.7752C310.407 58.3773 298.902 51.3088 287.828 65.829H287.821C287.821 65.829 287.807 65.8113 287.801 65.7995C287.787 65.7937 287.781 65.7819 287.76 65.7642C287.747 65.7524 287.733 65.7347 287.713 65.717C287.693 65.6993 287.673 65.6816 287.646 65.6581C287.625 65.6345 287.598 65.6109 287.571 65.5873C285.906 64.0781 276.12 56.0192 257.108 55.6183C230.961 55.0641 219.496 67.0906 219.496 80.0132C219.496 87.3117 223.151 94.8931 229.875 100.659C230.097 100.847 230.327 101.042 230.556 101.225C230.779 101.413 231.008 101.596 231.244 101.779C230.549 101.643 208.233 97.2159 198.204 106.648C195.169 109.502 191.824 115.881 191.824 122.33C191.824 126.41 193.16 130.519 196.761 133.779C198.926 135.736 201.9 137.387 205.886 138.548C201.704 139.774 198.514 142.25 198.514 146.943C198.514 147.603 198.575 148.305 198.71 149.054C199.142 151.512 200.201 153.316 201.671 154.607C209.427 161.416 228.668 154.047 228.668 154.047C229.578 166.227 230.597 180.594 230.691 182.003C232.357 181.684 234.083 181.513 235.844 181.513C241.522 181.513 246.769 183.877 251.004 186.925C253.419 187.438 255.793 188.093 258.14 188.989C259.212 189.396 260.298 189.855 261.101 190.604C261.465 190.94 262.186 191.447 262.186 190.728V190.645L261.417 178.43C261.391 178.006 261.377 177.581 261.377 177.157C261.377 172.765 262.807 168.443 265.504 164.718L267.858 161.475C268.89 160.054 269.409 158.433 269.409 156.812C269.409 155.326 268.971 153.835 268.094 152.497L265.086 147.886C264.183 146.507 263.764 145.021 263.764 143.571C263.764 139.827 266.543 136.273 271.048 135.17C296.986 128.839 357.522 117.183 384.263 138.401L393.968 161.233L393.988 161.275C393.988 161.275 397.178 153.623 397.178 145.239C397.178 142.557 396.848 139.792 395.984 137.18C399.532 133.39 400.779 130.023 400.779 127.158ZM400.779 127.158C400.779 123.132 398.318 120.108 396.321 118.309C394.952 117.083 393.799 116.429 393.799 116.429C393.799 116.429 395.114 110.97 395.114 103.17C395.114 92.1164 392.471 76.3699 379.67 64.8327C379.043 64.2668 378.389 63.7126 377.707 63.1643C362.236 50.7369 345.12 45.6375 331.928 51.8099H331.921C326.506 54.3449 321.751 58.7782 318.042 65.3869H318.035C317.967 65.2984 317.178 64.3552 315.83 63.129C315.769 63.0759 315.701 63.0169 315.634 62.958C315.567 62.8931 315.499 62.8342 315.432 62.7752C310.407 58.3773 298.902 51.3088 287.828 65.829H287.821C287.821 65.829 287.807 65.8113 287.801 65.7995C287.787 65.7937 287.781 65.7819 287.76 65.7642C287.747 65.7524 287.733 65.7347 287.713 65.717C287.693 65.6993 287.673 65.6816 287.646 65.6581C287.625 65.6345 287.598 65.6109 287.571 65.5873C285.906 64.0781 276.12 56.0192 257.108 55.6183C230.961 55.0641 219.496 67.0906 219.496 80.0132C219.496 87.3117 223.151 94.8931 229.875 100.659C230.097 100.847 230.327 101.042 230.556 101.225C230.779 101.413 231.008 101.596 231.244 101.779C230.549 101.643 208.233 97.2159 198.204 106.648C195.169 109.502 191.824 115.881 191.824 122.33C191.824 126.41 193.16 130.519 196.761 133.779C198.926 135.736 201.9 137.387 205.886 138.548C201.704 139.774 198.514 142.25 198.514 146.943C198.514 147.603 198.575 148.305 198.71 149.054C199.142 151.512 200.201 153.316 201.671 154.607C209.427 161.416 228.668 154.047 228.668 154.047C229.578 166.227 230.597 180.594 230.691 182.003C232.357 181.684 234.083 181.513 235.844 181.513C241.522 181.513 246.769 183.877 251.004 186.925C253.419 187.438 255.793 188.093 258.14 188.989C259.212 189.396 260.298 189.855 261.101 190.604C261.465 190.94 262.186 191.447 262.186 190.728V190.645L261.417 178.43C261.391 178.006 261.377 177.581 261.377 177.157C261.377 172.765 262.807 168.443 265.504 164.718L267.858 161.475C268.89 160.054 269.409 158.433 269.409 156.812C269.409 155.326 268.971 153.835 268.094 152.497L265.086 147.886C264.183 146.507 263.764 145.021 263.764 143.571C263.764 139.827 266.543 136.273 271.048 135.17C296.986 128.839 357.522 117.183 384.263 138.401L393.968 161.233L393.988 161.275C393.988 161.275 397.178 153.623 397.178 145.239C397.178 142.557 396.848 139.792 395.984 137.18C399.532 133.39 400.779 130.023 400.779 127.158Z" fill="#541B0A"/>
<path d="M274.315 449.197C272.616 453.937 270.828 458.824 267.106 462.579C266.006 463.694 264.759 464.661 263.43 465.551L263.093 445.159L262.816 428.109C263.194 428.168 263.572 428.221 263.949 428.28C264.995 428.457 266.054 428.64 267.092 428.882C269.129 429.353 271.085 430.031 272.67 431.222C278.207 435.39 276.5 443.101 274.315 449.197Z" fill="#009F62"/>
<path d="M313.129 461.789L312.3 512.318C309.912 509.819 307.687 507.172 304.935 504.99C300.288 501.306 294.232 499.001 290.28 494.744C283.3 487.245 285.377 475.23 293.234 468.427C299.729 462.809 306.183 461.801 313.129 461.789Z" fill="#009F62"/>
<path d="M113.408 582.429H-23.3164L-23.2557 482.762L47.3829 392.127L63.5892 371.328L69.578 379.363L93.1759 411.039C102.274 422.824 107.399 436.601 107.986 450.809L113.408 582.429Z" fill="#FF6060"/>
<path d="M263.408 465.518L262.794 428.077L262.565 414.075C262.437 411.806 260.515 409.925 257.952 409.56L255.376 409.188L240.653 407.084L232.048 405.851C229.235 405.451 226.511 404.784 223.928 403.871C212.132 399.75 203.216 390.712 200.505 379.535L197.511 360.534L194.058 338.656L98.4587 350.482C85.2334 352.316 73.4648 358.836 65.9248 368.51L63.625 371.464L69.6138 379.499L93.2118 411.175C102.31 422.96 107.435 436.737 108.022 450.945L113.444 582.565H265.323L263.408 465.518ZM198.118 428.036C196.937 443.028 182.073 454.341 164.929 453.309C147.779 452.277 134.837 439.29 136.017 424.298C137.197 409.306 152.055 397.993 169.205 399.025C186.356 400.056 199.298 413.05 198.118 428.036Z" fill="#735FFF"/>
<path d="M366.232 331.034L360.655 385.23C360.061 390.996 357.876 396.549 354.302 401.419L352.521 403.836C349.932 404.749 347.214 405.416 344.401 405.816L335.789 407.049L342.864 397.439C346.445 392.576 348.63 387.022 349.223 381.262L354.929 325.781L366.232 331.034Z" fill="white"/>
<path d="M339.882 362.395L339.41 366.94L335.121 363.597C335.951 362.566 336.713 361.516 337.394 360.461L339.882 362.395Z" fill="#FFAC00"/>
<path d="M339.328 366.936L337.912 380.708C337.48 384.911 335.889 388.967 333.272 392.51L332.881 393.035C328.659 394.992 323.924 396.673 318.596 397.981L311.906 377.973C322.953 374.913 330.244 369.548 335.039 363.594L339.328 366.936Z" fill="#DD920B"/>
<path d="M332.988 393.057L321.152 409.134L318.576 409.505C316.013 409.871 314.091 411.751 313.963 414.021L313.18 461.88C306.234 461.891 299.78 462.9 293.285 468.518C285.428 475.321 283.351 487.336 290.331 494.835C294.283 499.091 300.339 501.396 304.986 505.081C307.738 507.262 309.963 509.909 312.351 512.409L311.204 582.51H265.357L263.442 465.464C264.771 464.574 266.018 463.607 267.117 462.493C270.84 458.737 272.627 453.85 274.327 449.11C276.512 443.015 278.218 435.303 272.681 431.135C271.097 429.945 269.141 429.267 267.104 428.795C266.065 428.553 265.007 428.37 263.961 428.194C263.584 428.135 263.206 428.082 262.828 428.023L262.599 414.021C262.471 411.751 260.549 409.871 257.986 409.505L255.41 409.134L243.182 392.533C243.047 392.356 242.933 392.167 242.805 391.984C247.438 394.242 252.719 396.176 258.748 397.679C261.918 398.475 265.297 399.147 268.898 399.684C270.254 399.89 271.65 400.073 273.073 400.232C278.272 400.827 283.904 401.146 289.994 401.146C299.28 401.146 307.448 400.344 314.637 398.906C316.033 398.628 317.382 398.328 318.704 398.004C324.032 396.695 328.766 395.015 332.988 393.057Z" fill="#FFAC00"/>
<path d="M245.655 365.95L237.656 372.306L235.438 350.711C237.461 355.698 240.644 361.11 245.655 365.95Z" fill="#DD920B"/>
<path d="M248.559 368.684L238.085 377.008L237.613 372.433L245.612 366.078C246.529 366.968 247.507 367.841 248.559 368.684Z" fill="#FFAC00"/>
<path d="M275.296 379.565L268.836 399.639C258.402 398.089 249.817 395.383 242.742 391.94C240.355 388.526 238.885 384.677 238.48 380.686L238.082 376.848L248.556 368.523C254.821 373.57 263.44 377.697 275.296 379.565Z" fill="#DD920B"/>
<g style="mix-blend-mode:multiply" opacity="0.6">
<path d="M267.394 427.252L267.023 428.767L263.024 445.044L262.747 427.994L262.518 413.993C262.39 411.723 260.468 409.843 257.905 409.477L255.329 409.106L240.606 407.001L232.001 405.769C229.188 405.368 226.464 404.702 223.881 403.788C220.691 402.674 217.71 401.2 215.005 399.42L202.117 368.935L213.636 364.69L225.047 360.487L235.966 356.46L243.473 353.695C243.473 353.695 247.627 378.249 258.667 397.651C259.982 399.962 261.399 402.196 262.916 404.313C267.799 411.134 269.33 419.387 267.394 427.252Z" fill="#AF750E"/>
</g>
<path d="M279.487 380.158L273.026 400.231C271.603 400.072 270.207 399.889 268.852 399.683L275.312 379.609C276.661 379.822 278.051 380.004 279.487 380.158Z" fill="#FFAC00"/>
<path d="M314.572 398.854C307.383 400.293 299.216 401.094 289.929 401.094C283.839 401.094 278.208 400.776 273.008 400.181L279.469 380.107C282.726 380.455 286.206 380.637 289.929 380.637C296.741 380.637 302.702 380.018 307.916 378.922L314.572 398.854Z" fill="#DD920B"/>
<path d="M223.876 403.872C220.686 402.758 217.705 401.284 215 399.504C207.71 394.705 202.429 387.689 200.453 379.536L194.006 338.658L193.992 338.575L210.165 331.07L213.631 364.774L215.742 385.266C216.336 391.032 218.521 396.585 222.095 401.455L223.876 403.872Z" fill="#735FFF"/>
<path d="M240.577 407.049L231.972 405.816C229.159 405.416 226.435 404.749 223.852 403.836L222.071 401.419C218.497 396.549 216.312 390.996 215.718 385.23L213.607 364.738L210.141 331.034L221.444 325.781L225.018 360.534L227.149 381.262C227.743 387.022 229.921 392.576 233.509 397.439L240.577 407.049Z" fill="white"/>
<path d="M255.321 409.241L240.598 407.136L233.53 397.526C229.942 392.663 227.764 387.109 227.17 381.35L225.039 360.622L221.465 325.869L232.276 320.852L232.35 321.583L235.365 350.829L235.958 356.595L237.583 372.424L238.056 376.999L238.453 380.837C238.858 384.828 240.328 388.678 242.716 392.091C242.844 392.274 242.959 392.462 243.093 392.639L255.321 409.241Z" fill="#735FFF"/>
<path d="M513.69 371.517L509.023 377.778L484.137 411.181C475.039 422.966 469.913 436.743 469.327 450.951L463.904 582.57H311.148L312.295 512.469L313.124 461.94L313.907 414.081C314.035 411.812 315.957 409.931 318.52 409.566L321.096 409.194L335.812 407.089L344.424 405.857C347.237 405.456 349.954 404.79 352.544 403.877C364.34 399.756 373.256 390.718 375.967 379.541L380.539 350.5L382.407 338.656L478.687 350.653C491.218 352.387 502.474 358.341 510.048 367.237L513.69 371.517Z" fill="#735FFF"/>
<path d="M635.604 514.567V582.382H463.891L469.313 450.762C469.9 436.554 475.025 422.777 484.123 410.992L509.009 377.589L513.676 371.328L531.805 392.622L635.604 514.567Z" fill="#FF6060"/>
<path d="M354.918 325.869L349.213 381.35C348.619 387.109 346.434 392.663 342.853 397.526L335.778 407.136L321.062 409.241L332.899 393.164L333.29 392.639C335.906 389.096 337.498 385.04 337.93 380.837L339.346 367.065L339.818 362.52L340.668 354.266L344.047 321.4L344.107 320.852L354.918 325.869Z" fill="#735FFF"/>
<path d="M318.661 397.962C317.339 398.286 315.99 398.587 314.594 398.864L307.938 378.932C309.334 378.643 310.682 378.313 311.971 377.953L318.661 397.962Z" fill="#FFAC00"/>
<path d="M382.369 338.575L382.355 338.652L375.915 379.536C373.204 390.714 364.288 399.751 352.492 403.872L354.273 401.455C357.847 396.585 360.032 391.032 360.626 385.266L366.203 331.07L382.369 338.575Z" fill="#735FFF"/>
<path d="M169.2 398.956C152.05 397.924 137.192 409.237 136.012 424.229C134.832 439.221 147.774 452.209 164.925 453.24C182.068 454.272 196.932 442.959 198.113 427.967C199.293 412.981 186.351 399.988 169.2 398.956ZM145.211 425.915C144.503 425.868 143.964 425.332 144.018 424.713C144.065 424.088 144.678 423.622 145.393 423.663C146.102 423.705 146.641 424.241 146.587 424.866C146.54 425.485 145.926 425.957 145.211 425.915ZM169.504 443.554C169.355 445.388 167.541 446.773 165.444 446.649C163.346 446.52 161.762 444.934 161.91 443.1C162.052 441.267 163.872 439.881 165.963 440.011C168.061 440.135 169.645 441.727 169.504 443.554ZM188.732 428.533C188.023 428.492 187.484 427.955 187.538 427.33C187.585 426.711 188.199 426.24 188.914 426.281C189.622 426.328 190.161 426.865 190.107 427.489C190.06 428.108 189.446 428.58 188.732 428.533Z" fill="#DAD7FF"/>
<path d="M146.534 424.854C146.487 425.473 145.873 425.944 145.158 425.903C144.45 425.856 143.911 425.319 143.965 424.7C144.012 424.075 144.626 423.61 145.34 423.651C146.049 423.692 146.588 424.229 146.534 424.854Z" fill="white"/>
<path d="M171.336 427.461C171.376 427.543 171.417 427.62 171.457 427.703H171.451C171.41 427.626 171.37 427.543 171.336 427.461Z" fill="#FFAC00"/>
<path d="M184.92 417.518L174.5 425.453C173.731 423.148 172.369 421.149 170.211 419.54L179.72 412.3C180.745 411.522 182.297 411.617 183.193 412.513L185.156 414.482C186.053 415.378 185.945 416.74 184.92 417.518Z" fill="#FFAC00"/>
<path d="M166.786 430.1C165.356 430.519 164.028 431.167 162.888 432.034L152.704 439.792C151.861 440.435 150.58 440.358 149.838 439.615C149.103 438.878 149.191 437.758 150.04 437.116L160.271 429.322C161.101 428.691 161.816 427.954 162.402 427.141L162.76 427.5C163.765 428.514 164.999 429.334 166.381 429.917L166.611 430.018C166.671 430.041 166.725 430.077 166.786 430.1Z" fill="#FFAC00"/>
<path d="M182.027 441.744C181.178 442.387 179.896 442.31 179.161 441.573L170.245 432.624C169.281 431.657 168.107 430.867 166.799 430.289C166.738 430.266 166.684 430.23 166.624 430.207L166.394 430.107C165.012 429.523 163.778 428.704 162.773 427.69L162.415 427.33L150.701 415.58C149.81 414.684 149.918 413.323 150.943 412.544L153.196 410.829C154.221 410.045 155.779 410.139 156.669 411.035L167.433 421.835L168.788 423.191C169.82 424.229 170.603 425.449 171.068 426.764C171.203 427.141 171.371 427.513 171.554 427.872C172.012 428.762 172.612 429.6 173.354 430.337L182.223 439.244C182.958 439.981 182.87 441.101 182.027 441.744Z" fill="#FFAC00"/>
<path d="M169.412 443.536C169.264 445.369 167.45 446.755 165.352 446.631C163.255 446.501 161.67 444.915 161.818 443.082C161.96 441.248 163.781 439.863 165.871 439.993C167.969 440.117 169.554 441.708 169.412 443.536Z" fill="#A39CFF"/>
<path d="M190.054 427.524C190.007 428.143 189.393 428.614 188.678 428.567C187.97 428.526 187.43 427.989 187.484 427.364C187.531 426.745 188.145 426.274 188.86 426.315C189.568 426.362 190.108 426.899 190.054 427.524Z" fill="white"/>
<path d="M372.519 273.197C369.039 275.06 365.168 276.528 360.852 277.519C358.41 278.085 355.834 278.497 353.109 278.751C350.014 279.034 346.999 279.211 344.079 279.281V321.321L340.7 354.188C339.817 356.281 338.724 358.415 337.362 360.508C336.68 361.563 335.918 362.612 335.089 363.644C330.294 369.598 323.003 374.963 311.956 378.023C310.668 378.382 309.319 378.712 307.923 379.001C302.71 380.098 296.748 380.717 289.937 380.717C286.214 380.717 282.734 380.534 279.476 380.186C278.04 380.033 276.65 379.85 275.302 379.638C263.445 377.769 254.826 373.642 248.561 368.596C247.509 367.753 246.531 366.88 245.614 365.99C240.603 361.15 237.42 355.738 235.396 350.751L232.382 321.504L236.118 232.396C236.624 232.49 237.15 232.549 237.683 232.549C241.689 232.549 244.939 229.707 244.939 226.206C244.939 222.704 241.689 219.868 237.683 219.868C233.676 219.868 230.433 222.704 230.433 226.206C230.433 227.243 230.723 228.222 231.228 229.088C219.338 227.043 210.328 217.268 210.328 205.513C210.328 204.64 210.375 203.78 210.476 202.937C210.74 200.655 211.34 198.468 212.23 196.428C213.855 192.702 216.452 189.454 219.716 186.949C222.528 184.791 225.833 183.187 229.455 182.309C229.583 182.279 229.704 182.25 229.832 182.22C230.122 182.15 230.412 182.091 230.709 182.032C232.375 181.713 234.101 181.542 235.862 181.542C236.003 181.542 236.185 181.542 236.374 181.554C237.696 181.59 238.991 181.743 240.252 182.008C242.37 182.45 244.4 183.187 246.302 184.119C247.981 184.932 249.566 185.899 251.023 186.954C253.437 187.467 255.811 188.122 258.158 189.018C259.23 189.425 260.316 189.884 261.119 190.633C261.496 190.981 262.258 191.512 262.204 190.674C262.204 190.668 261.436 178.459 261.436 178.459C261.132 173.631 262.562 168.832 265.523 164.747L267.876 161.504C267.991 161.351 268.092 161.192 268.193 161.033C269.859 158.391 269.846 155.167 268.112 152.526L265.104 147.915C261.881 142.987 264.814 136.726 271.066 135.199C282.511 132.405 300.673 128.579 319.705 126.993H319.719C339.095 125.378 359.361 126.085 374.333 132.576H374.34C375.223 132.965 376.08 133.366 376.923 133.79C379.587 135.123 382.055 136.661 384.281 138.43L393.986 161.262C394.269 162.294 394.539 163.332 394.782 164.369C401.742 193.669 407.967 254.197 372.519 273.197Z" fill="#C16D53"/>
<path d="M317.158 184.6C319.004 184.482 320.285 181.806 320.019 178.624C319.753 175.442 318.041 172.958 316.195 173.075C314.348 173.193 313.067 175.869 313.333 179.051C313.599 182.233 315.312 184.718 317.158 184.6Z" fill="#231F20"/>
<path d="M376.056 182.295C377.903 182.177 379.184 179.502 378.918 176.319C378.652 173.137 376.939 170.653 375.093 170.771C373.247 170.889 371.966 173.564 372.232 176.746C372.498 179.929 374.21 182.413 376.056 182.295Z" fill="#231F20"/>
<g style="mix-blend-mode:screen">
<path d="M372.472 273.145C368.992 275.008 365.121 276.476 360.805 277.466C381.806 270.557 390.284 239.241 390.216 209.859C390.149 179.356 379.79 146.649 374.286 132.523C376.95 133.856 382.008 136.609 384.234 138.378L393.939 161.21C394.222 162.242 394.492 163.279 394.735 164.317C401.695 193.617 407.92 254.144 372.472 273.145Z" fill="#E5765C"/>
</g>
<path d="M344.08 279.17C344.08 279.17 295.111 283.71 263.852 243.922C263.852 243.922 273.9 307.509 344.08 315.998V279.17Z" fill="#843928"/>
<path d="M395.103 103.168C395.103 110.968 393.788 116.427 393.788 116.427C391.886 64.3354 331.91 51.8137 331.91 51.8137H331.917C345.109 45.6353 362.225 50.7348 377.696 63.1622C378.378 63.7105 379.032 64.2646 379.659 64.8306C392.459 76.3678 395.103 92.1143 395.103 103.168Z" fill="#872F1B"/>
<path d="M312.473 99.6179C312.473 99.6179 342.248 117.451 362.326 93.7344C362.326 93.7344 360.188 108.815 348.48 114.545C339.375 119.008 321.739 117.782 312.473 99.6179Z" fill="#872F1B"/>
<path d="M355.426 104.633C355.426 104.633 363.202 112.969 377.709 107.427C377.709 107.427 358.555 120.928 355.426 104.633Z" fill="#872F1B"/>
<path d="M405.125 497.068V490.365H409.543L401.126 472.083H391.644V490.365H396.776V497.068H378.742V490.365H383.976V447.187H378.742V440.484H416.402L420.752 444.364V468.287L416.408 472.083H408.585L417.002 490.365H423.159V497.068H405.125ZM391.644 465.38H413.192V447.187H391.644V465.38Z" fill="#DAD7FF"/>
<g style="mix-blend-mode:soft-light">
<path d="M531.83 393.118L509.015 377.778L499.155 371.146C492.357 366.577 484.331 363.617 475.847 362.544L380.531 350.5L382.399 338.656L478.679 350.653C491.21 352.387 502.466 358.341 510.04 367.237L513.682 371.517L531.81 392.811L531.83 393.118Z" fill="white"/>
</g>
<g style="mix-blend-mode:soft-light">
<path d="M196.413 353.772L109.352 361.56C93.2674 362.998 78.093 368.77 65.9265 378.078L47.3867 392.263L63.593 371.464L65.8928 368.51C73.4328 358.836 85.2014 352.316 98.4267 350.482L194.026 338.656L196.413 353.778V353.772Z" fill="white"/>
</g>
<g style="mix-blend-mode:screen">
<path d="M246.988 186.88C245.079 188.596 238.308 189.032 236.703 188.843C233.075 188.407 229.332 187.558 225.818 188.472C222.27 189.392 219.64 191.938 216.639 193.837C216.322 194.037 215.992 194.232 215.607 194.285C213.226 194.621 214.697 192.068 215.209 191.396C216.457 189.757 217.988 188.266 219.681 186.969C220.483 186.603 221.279 186.214 222.048 185.748C224.503 184.268 226.607 183.06 229.419 182.329C229.547 182.299 229.669 182.27 229.797 182.24C230.087 182.17 230.377 182.111 230.674 182.052C232.339 181.733 234.066 181.562 235.826 181.562C236.662 181.562 238.369 181.698 240.217 182.028C242.476 182.423 244.938 183.095 246.266 184.139C247.73 185.288 247.757 186.19 246.988 186.88Z" fill="#E5765C"/>
</g>
<path d="M394.402 449.586V462.951H410.42V449.586H394.402ZM408.848 461.577H395.974V450.96H408.848V461.577Z" fill="white"/>
<path d="M420.039 486.495L415.007 475.878H418.258L425.164 469.835V442.746L418.258 436.703H374.488V450.982H379.621V486.495H374.488V500.774H427.572V486.495H420.039ZM426.007 499.4H402.443V487.869H405.586L399.307 474.504H394.384V487.869H399.617V499.4H376.06V487.869H381.192V449.608H376.06V438.077H417.631L423.593 443.294V469.287L417.631 474.504H412.708L418.885 487.869H426.007V499.4ZM395.955 486.495V475.878H398.255L403.178 486.495H395.955Z" fill="white"/>
<path d="M394.402 449.586V462.951H410.42V449.586H394.402ZM408.848 461.577H395.974V450.96H408.848V461.577Z" fill="white"/>
<path d="M394.402 449.586V462.951H410.42V449.586H394.402ZM408.848 461.577H395.974V450.96H408.848V461.577Z" fill="white"/>
<g style="mix-blend-mode:soft-light">
<path d="M232.441 321.492L235.011 345.351L196.38 354.076L194.094 338.618L232.441 321.492Z" fill="white"/>
</g>
<g style="mix-blend-mode:soft-light">
<path d="M344.073 321.172L341.922 343.792L380.532 350.318L382.4 338.475L344.073 321.172Z" fill="white"/>
</g>
<path d="M231.197 230.026C231.13 230.026 231.069 230.026 231.001 230.008C218.417 227.845 209.285 217.563 209.285 205.566C209.285 193.569 218.194 183.583 230.462 181.224C231.008 181.118 231.548 181.419 231.669 181.897C231.791 182.374 231.447 182.846 230.9 182.952C219.55 185.133 211.315 194.648 211.315 205.572C211.315 216.496 219.759 226.277 231.399 228.281C231.946 228.375 232.303 228.841 232.195 229.319C232.101 229.743 231.676 230.032 231.204 230.032L231.197 230.026Z" fill="#231F20"/>
<path d="M252.108 188.811C251.865 188.811 251.629 188.734 251.433 188.587C247.893 185.81 242.302 182.503 235.746 182.503C234.087 182.503 232.428 182.662 230.81 182.969C230.263 183.075 229.724 182.774 229.602 182.297C229.481 181.819 229.825 181.347 230.371 181.241C232.125 180.905 233.932 180.734 235.74 180.734C242.929 180.734 248.972 184.289 252.776 187.272C253.194 187.597 253.227 188.157 252.85 188.522C252.647 188.717 252.371 188.817 252.094 188.817L252.108 188.811Z" fill="#231F20"/>
<path d="M231.239 217.877C230.922 217.877 230.611 217.748 230.409 217.506C230.085 217.105 230.193 216.557 230.652 216.274C230.713 216.238 236.607 212.536 237.153 208.893C237.308 207.843 236.991 206.924 236.189 206.081C234.395 204.2 231.886 205.255 228.676 207.431C228.514 207.543 228.305 207.69 228.055 207.867C225.607 209.624 223.071 211.28 221.311 210.49C220.374 210.072 219.956 209.111 220.063 207.631C220.286 204.589 221.372 201.606 223.193 199.012C224.737 196.819 226.592 195.227 228.71 194.29C233.167 192.315 238.57 193.176 243.27 194.284C243.81 194.414 244.127 194.897 243.985 195.369C243.843 195.84 243.29 196.118 242.744 195.994C238.414 194.974 233.464 194.166 229.62 195.87C227.84 196.66 226.255 198.028 224.913 199.944C223.26 202.296 222.276 204.996 222.08 207.749C222.013 208.71 222.235 208.922 222.242 208.922C222.518 209.028 223.496 208.857 226.774 206.505C227.037 206.316 227.266 206.151 227.442 206.034C229.505 204.642 234.334 201.376 237.747 204.955C238.92 206.181 239.392 207.59 239.163 209.134C238.502 213.55 232.095 217.559 231.825 217.73C231.65 217.842 231.441 217.895 231.239 217.895V217.877Z" fill="#231F20"/>
<path d="M357.778 209.536C357.481 209.536 357.164 209.507 356.834 209.448C353.738 208.882 351.007 207.514 348.518 206.123C348.046 205.857 347.911 205.315 348.208 204.902C348.505 204.49 349.139 204.372 349.604 204.631C351.931 205.934 354.466 207.207 357.238 207.714C358.641 207.968 359.747 207.178 360.934 205.067C364.084 199.455 361.332 191.986 358.23 185.424C356.206 181.144 353.812 177.07 351.121 173.309C350.825 172.896 350.966 172.348 351.438 172.089C351.91 171.829 352.538 171.953 352.834 172.366C355.586 176.21 358.034 180.372 360.098 184.746C363.376 191.679 366.249 199.602 362.748 205.845C362.155 206.901 360.678 209.536 357.771 209.536H357.778Z" fill="#231F20"/>
<path d="M335.137 235.369C324.023 235.369 315.067 228.047 311.789 224.97C311.411 224.61 311.432 224.05 311.843 223.72C312.254 223.39 312.895 223.408 313.273 223.767C330.599 240.086 345.153 232.121 350.609 227.941C351.027 227.617 351.667 227.658 352.038 228.024C352.409 228.389 352.362 228.949 351.944 229.273C346.11 233.748 340.384 235.375 335.137 235.375V235.369Z" fill="#231F20"/>
<path d="M312.532 225.141C312.148 225.141 311.777 224.947 311.608 224.617C311.379 224.168 311.608 223.65 312.121 223.449C313.625 222.866 314.9 221.987 315.911 220.838C316.248 220.449 316.889 220.378 317.328 220.678C317.773 220.979 317.854 221.533 317.51 221.916C316.289 223.302 314.758 224.357 312.944 225.065C312.809 225.118 312.667 225.141 312.532 225.141Z" fill="#231F20"/>
<path d="M307.505 225.982C306.763 225.982 306.297 225.929 306.25 225.923C305.697 225.853 305.313 225.405 305.394 224.921C305.475 224.438 305.987 224.102 306.54 224.172C306.567 224.172 309.292 224.485 312.124 223.382C312.637 223.182 313.23 223.382 313.46 223.83C313.689 224.279 313.46 224.797 312.947 224.998C310.816 225.829 308.766 225.988 307.511 225.988L307.505 225.982Z" fill="#231F20"/>
<path d="M230.67 183.034C230.137 183.034 229.692 182.674 229.658 182.203L229.645 181.99C229.314 177.357 228.492 165.761 227.73 155.479C223.609 156.882 210.99 160.632 203.37 156.971C200.227 155.461 198.318 152.891 197.691 149.336C196.679 143.623 199.397 139.656 205.541 137.858C206.067 137.705 206.647 137.952 206.823 138.418C206.998 138.884 206.715 139.385 206.182 139.538C200.948 141.071 198.824 144.189 199.687 149.071C200.22 152.095 201.744 154.176 204.341 155.42C212.481 159.329 228.087 153.445 228.242 153.386C228.546 153.268 228.89 153.292 229.173 153.439C229.456 153.587 229.631 153.852 229.658 154.135C230.441 164.711 231.324 177.056 231.668 181.878L231.682 182.097C231.715 182.586 231.29 183.004 230.737 183.034C230.717 183.034 230.697 183.034 230.677 183.034H230.67Z" fill="#231F20"/>
<path d="M205.853 139.505C205.428 139.505 205.037 139.27 204.896 138.904C204.72 138.438 205.003 137.937 205.536 137.784C213.656 135.402 225.074 137.519 225.56 137.613C226.106 137.719 226.45 138.185 226.335 138.662C226.221 139.14 225.681 139.446 225.135 139.34C225.02 139.317 213.771 137.236 206.184 139.464C206.076 139.494 205.968 139.511 205.86 139.511L205.853 139.505Z" fill="#231F20"/>
<path d="M261.924 192.018C261.513 192.018 260.973 191.841 260.339 191.246C259.651 190.603 258.666 190.197 257.716 189.837C255.571 189.023 253.291 188.363 250.749 187.827C250.203 187.715 249.872 187.231 250 186.76C250.128 186.288 250.675 185.993 251.221 186.105C253.885 186.665 256.272 187.361 258.525 188.216C259.354 188.528 260.272 188.905 261.081 189.454C260.879 186.282 260.393 178.524 260.393 178.524C260.076 173.477 261.539 168.555 264.635 164.292L266.989 161.044C268.769 158.592 268.85 155.502 267.198 152.979L264.183 148.369C262.49 145.781 262.261 142.715 263.556 139.956C264.851 137.203 267.474 135.163 270.752 134.362C296.009 128.195 357.691 116.186 384.918 137.793C385.039 137.887 385.127 138.005 385.187 138.141L394.892 160.967C395.088 161.427 394.818 161.934 394.299 162.105C393.773 162.276 393.193 162.04 392.997 161.586L383.373 138.96C356.801 118.144 296.171 129.993 271.292 136.065C268.614 136.72 266.476 138.382 265.424 140.628C264.365 142.88 264.554 145.38 265.937 147.491L268.951 152.101C270.975 155.196 270.873 158.981 268.688 161.993L266.335 165.242C263.468 169.197 262.106 173.754 262.403 178.429C262.92 186.585 263.178 190.672 263.178 190.692C263.232 191.535 262.659 191.847 262.41 191.936C262.275 191.983 262.113 192.024 261.931 192.024L261.924 192.018Z" fill="#231F20"/>
<path d="M393.958 162.219C393.54 162.219 393.162 161.995 393.014 161.648C392.906 161.406 392.933 161.141 393.054 160.922C393.56 159.643 398.254 147.334 394.983 137.488C394.889 137.211 394.963 136.905 395.172 136.681C398.733 132.872 400.223 129.158 399.596 125.639C398.665 120.386 393.27 117.261 393.216 117.232C392.865 117.032 392.69 116.666 392.778 116.306C392.859 115.976 400.52 82.7619 376.996 63.8732C363.967 53.4089 350.586 48.6632 339.31 50.5143C330.697 51.9292 323.832 57.0817 318.922 65.8304C318.767 66.1075 318.45 66.2962 318.099 66.3198C317.735 66.3492 317.398 66.2077 317.196 65.9542C317.128 65.8717 310.478 57.9366 302.183 58.0722C297.341 58.1488 292.788 60.9432 288.641 66.3728C288.465 66.6027 288.182 66.7442 287.865 66.7678C287.555 66.7855 287.245 66.6735 287.036 66.4671C287.015 66.4436 284.601 64.0677 279.718 61.6742C275.22 59.4635 267.633 56.787 257.051 56.563C239.455 56.1856 226.756 61.7803 222.211 71.8909C217.861 81.5651 221.759 93.3381 231.902 101.179C232.246 101.45 232.34 101.886 232.131 102.246C231.915 102.606 231.45 102.794 230.998 102.7C230.776 102.653 208.574 98.2195 198.916 107.31C195.234 110.777 191.268 119.49 193.42 126.836C194.957 132.076 199.247 135.755 206.173 137.771C206.706 137.925 206.989 138.426 206.814 138.891C206.638 139.351 206.065 139.605 205.532 139.452C198.019 137.27 193.15 133.061 191.457 127.278C189.022 118.959 193.581 109.727 197.432 106.107C205.62 98.4081 221.233 99.4988 228.105 100.43C219.182 92.1768 216.04 80.781 220.329 71.2483C225.205 60.4008 238.626 54.4053 257.105 54.7943C274.964 55.1716 284.776 62.0928 287.663 64.504C292.02 59.1451 296.896 56.3861 302.156 56.3095C302.237 56.3095 302.311 56.3095 302.392 56.3095C309.716 56.3095 315.564 61.4856 317.83 63.8201C322.942 55.4016 330.212 50.2137 338.939 48.7811C350.849 46.8238 364.85 51.7229 378.365 62.5762C401.006 80.7516 395.806 111.519 394.882 116.1C396.44 117.126 400.695 120.333 401.592 125.356C402.294 129.282 400.776 133.35 397.067 137.447C400.399 148.259 395.138 161.093 394.909 161.642C394.767 161.989 394.39 162.219 393.965 162.225L393.958 162.219Z" fill="#231F20"/>
<path d="M242.715 392.833C242.377 392.833 242.04 392.685 241.851 392.408C239.383 388.883 237.859 384.862 237.441 380.771L237.043 376.933C236.996 376.444 237.4 376.019 237.96 375.972C238.52 375.931 239.005 376.284 239.059 376.774L239.457 380.612C239.848 384.432 241.271 388.187 243.578 391.483C243.868 391.901 243.72 392.444 243.241 392.697C243.079 392.786 242.897 392.827 242.715 392.827V392.833Z" fill="#231F20"/>
<path d="M255.309 410.209C255.255 410.209 255.201 410.209 255.147 410.197L240.431 408.092C239.878 408.016 239.507 407.556 239.595 407.078C239.683 406.595 240.209 406.271 240.755 406.347L255.471 408.452C256.024 408.528 256.395 408.988 256.307 409.466C256.226 409.902 255.794 410.209 255.309 410.209Z" fill="#231F20"/>
<path d="M193.969 339.445C193.47 339.445 193.039 339.121 192.971 338.678L192.958 338.596C192.904 338.23 193.113 337.871 193.484 337.7L209.656 330.195C210.149 329.971 210.762 330.13 211.025 330.56C211.288 330.991 211.099 331.527 210.607 331.757L194.772 339.103C194.617 339.28 194.381 339.403 194.111 339.439C194.064 339.439 194.023 339.445 193.976 339.445H193.969Z" fill="#231F20"/>
<path d="M221.438 326.623C221.073 326.623 220.723 326.452 220.541 326.151C220.278 325.721 220.466 325.184 220.959 324.955L231.77 319.938C232.066 319.802 232.431 319.802 232.727 319.938C233.024 320.079 233.22 320.339 233.253 320.633L233.328 321.364C233.375 321.854 232.97 322.278 232.41 322.325C232.073 322.349 231.77 322.231 231.561 322.03L221.903 326.511C221.755 326.582 221.593 326.611 221.431 326.611L221.438 326.623Z" fill="#231F20"/>
<path d="M255.276 410.074C254.946 410.074 254.615 409.933 254.427 409.667L242.199 393.066C242.112 392.942 242.024 392.818 241.936 392.695L241.808 392.5C241.518 392.082 241.667 391.539 242.145 391.286C242.624 391.032 243.245 391.162 243.535 391.58L243.683 391.799C243.751 391.905 243.825 392.011 243.899 392.111L256.126 408.718C256.43 409.131 256.295 409.673 255.823 409.939C255.654 410.033 255.465 410.08 255.276 410.08V410.074Z" fill="#231F20"/>
<path d="M237.535 373.249C237.016 373.249 236.577 372.902 236.53 372.442L234.305 350.847C234.257 350.358 234.662 349.933 235.222 349.886C235.775 349.845 236.267 350.199 236.321 350.688L238.547 372.282C238.594 372.772 238.189 373.196 237.629 373.243C237.596 373.243 237.569 373.243 237.535 373.243V373.249Z" fill="#231F20"/>
<path d="M235.305 351.689C234.785 351.689 234.347 351.341 234.3 350.881L231.285 321.628C231.238 321.139 231.642 320.714 232.202 320.667C232.755 320.626 233.248 320.98 233.302 321.469L236.316 350.722C236.363 351.211 235.959 351.636 235.399 351.683C235.365 351.683 235.338 351.683 235.305 351.683V351.689Z" fill="#231F20"/>
<path d="M223.833 404.677C223.705 404.677 223.584 404.66 223.456 404.612C211.154 400.315 202.171 390.976 199.419 379.64C199.419 379.616 199.413 379.598 199.406 379.575L192.958 338.691C192.884 338.207 193.269 337.759 193.822 337.694C194.368 337.635 194.887 337.966 194.961 338.449L201.402 379.298C204.019 390.039 212.543 398.888 224.204 402.962C224.723 403.145 224.973 403.657 224.771 404.111C224.616 404.459 224.231 404.666 223.833 404.666V404.677Z" fill="#231F20"/>
<path d="M238.051 377.855C237.532 377.855 237.093 377.508 237.046 377.048L236.574 372.473C236.527 371.984 236.932 371.559 237.491 371.512C238.051 371.465 238.537 371.824 238.591 372.314L239.063 376.889C239.11 377.378 238.705 377.802 238.145 377.849C238.112 377.849 238.085 377.849 238.051 377.849V377.855Z" fill="#231F20"/>
<path d="M240.564 407.985C240.233 407.985 239.903 407.844 239.714 407.579L232.646 397.969C228.984 393.005 226.731 387.275 226.131 381.392L220.426 325.91C220.378 325.421 220.79 324.997 221.343 324.949C221.889 324.902 222.388 325.262 222.442 325.751L228.148 381.232C228.721 386.827 230.866 392.286 234.352 397.008L241.427 406.618C241.73 407.03 241.596 407.573 241.123 407.838C240.955 407.932 240.766 407.98 240.577 407.98L240.564 407.985Z" fill="#231F20"/>
<path d="M223.907 404.661C223.577 404.661 223.246 404.52 223.057 404.255L221.277 401.838C217.621 396.862 215.369 391.126 214.769 385.254L209.191 331.058C209.144 330.569 209.549 330.144 210.108 330.097C210.668 330.056 211.154 330.409 211.208 330.899L216.785 385.101C217.358 390.689 219.503 396.149 222.983 400.888L224.764 403.305C225.067 403.718 224.932 404.26 224.46 404.526C224.291 404.62 224.103 404.667 223.914 404.667L223.907 404.661Z" fill="#231F20"/>
<path d="M240.616 408.013C240.562 408.013 240.508 408.013 240.454 408.001L231.848 406.769C228.969 406.356 226.163 405.666 223.513 404.735C222.993 404.552 222.744 404.039 222.953 403.585C223.162 403.131 223.749 402.913 224.268 403.096C226.784 403.98 229.441 404.635 232.172 405.024L240.778 406.256C241.331 406.332 241.702 406.792 241.614 407.27C241.533 407.706 241.101 408.013 240.616 408.013Z" fill="#231F20"/>
<path d="M210.203 331.97C209.839 331.97 209.488 331.799 209.306 331.499C209.043 331.068 209.232 330.532 209.724 330.302L221.028 325.049C221.52 324.819 222.134 324.984 222.397 325.415C222.66 325.845 222.471 326.382 221.979 326.611L210.675 331.864C210.527 331.935 210.358 331.97 210.203 331.97Z" fill="#231F20"/>
<path d="M321.031 409.97C320.843 409.97 320.654 409.923 320.485 409.829C320.013 409.564 319.878 409.015 320.182 408.609L332.018 392.532C332.321 392.119 332.948 392.001 333.414 392.267C333.886 392.532 334.021 393.08 333.717 393.487L321.881 409.564C321.686 409.829 321.362 409.97 321.031 409.97Z" fill="#231F20"/>
<path d="M321.031 410.209C320.545 410.209 320.113 409.902 320.032 409.466C319.945 408.982 320.316 408.528 320.869 408.452L335.591 406.347C336.144 406.271 336.664 406.595 336.751 407.078C336.839 407.562 336.468 408.016 335.915 408.092L321.192 410.197C321.138 410.203 321.084 410.209 321.031 410.209Z" fill="#231F20"/>
<path d="M339.816 363.361C339.816 363.361 339.755 363.361 339.722 363.361C339.162 363.32 338.757 362.89 338.805 362.4L339.654 354.141C339.702 353.652 340.187 353.298 340.754 353.339C341.313 353.38 341.718 353.811 341.671 354.3L340.821 362.56C340.774 363.019 340.335 363.367 339.816 363.367V363.361Z" fill="#231F20"/>
<path d="M339.34 367.929C339.34 367.929 339.279 367.929 339.245 367.929C338.685 367.888 338.281 367.458 338.328 366.968L338.793 362.423C338.841 361.934 339.326 361.574 339.893 361.621C340.452 361.663 340.857 362.093 340.81 362.582L340.344 367.128C340.297 367.587 339.859 367.935 339.34 367.935V367.929Z" fill="#231F20"/>
<path d="M382.309 339.441C382.261 339.441 382.221 339.441 382.174 339.436C381.904 339.406 381.668 339.282 381.513 339.105L365.678 331.76C365.185 331.53 364.996 330.993 365.259 330.563C365.522 330.133 366.136 329.968 366.628 330.198L382.801 337.702C383.179 337.873 383.388 338.233 383.327 338.604L383.314 338.687C383.246 339.129 382.808 339.453 382.315 339.453L382.309 339.441Z" fill="#231F20"/>
<path d="M340.664 355.157C340.664 355.157 340.603 355.157 340.569 355.157C340.01 355.116 339.605 354.685 339.652 354.196L343.038 321.329C343.085 320.84 343.577 320.48 344.137 320.528C344.697 320.569 345.101 320.999 345.054 321.489L341.669 354.355C341.621 354.815 341.183 355.163 340.664 355.163V355.157Z" fill="#231F20"/>
<path d="M352.557 404.667C352.159 404.667 351.775 404.454 351.62 404.113C351.411 403.659 351.667 403.146 352.186 402.963C363.847 398.883 372.372 390.04 374.988 379.299L381.429 338.45C381.503 337.967 382.023 337.631 382.569 337.696C383.122 337.76 383.506 338.208 383.432 338.692L376.985 379.576C376.985 379.576 376.978 379.617 376.971 379.641C374.22 390.978 365.236 400.31 352.935 404.614C352.814 404.655 352.685 404.678 352.557 404.678V404.667Z" fill="#231F20"/>
<path d="M354.92 326.616C354.759 326.616 354.597 326.58 354.448 326.515L344.662 321.97C344.467 322.094 344.217 322.159 343.968 322.141C343.408 322.1 343.003 321.669 343.051 321.18L343.105 320.638C343.132 320.343 343.334 320.078 343.631 319.942C343.927 319.801 344.292 319.801 344.588 319.942L355.399 324.959C355.892 325.189 356.08 325.725 355.817 326.156C355.635 326.456 355.285 326.627 354.92 326.627V326.616Z" fill="#231F20"/>
<path d="M332.922 393.943C332.733 393.943 332.544 393.896 332.376 393.801C331.904 393.536 331.769 392.988 332.072 392.581L332.463 392.056C334.986 388.649 336.53 384.705 336.948 380.655L338.365 366.883C338.412 366.394 338.904 366.04 339.464 366.081C340.024 366.123 340.428 366.553 340.381 367.042L338.965 380.814C338.52 385.147 336.861 389.368 334.163 393.017L333.779 393.542C333.583 393.807 333.259 393.949 332.929 393.949L332.922 393.943Z" fill="#231F20"/>
<path d="M352.559 404.667C352.37 404.667 352.181 404.62 352.012 404.526C351.54 404.26 351.405 403.712 351.709 403.305L353.489 400.888C356.969 396.154 359.114 390.695 359.687 385.101L365.265 330.899C365.312 330.409 365.804 330.056 366.364 330.097C366.924 330.138 367.328 330.569 367.281 331.058L361.704 385.26C361.104 391.132 358.851 396.868 355.196 401.843L353.415 404.26C353.22 404.526 352.896 404.667 352.565 404.667H352.559Z" fill="#231F20"/>
<path d="M335.758 407.98C335.569 407.98 335.38 407.932 335.212 407.838C334.74 407.573 334.605 407.025 334.908 406.618L341.976 397.008C345.456 392.286 347.601 386.827 348.181 381.232L353.886 325.751C353.933 325.262 354.439 324.902 354.986 324.949C355.545 324.991 355.95 325.421 355.903 325.91L350.197 381.392C349.59 387.275 347.338 393.005 343.682 397.969L336.614 407.579C336.419 407.844 336.095 407.985 335.765 407.985L335.758 407.98Z" fill="#231F20"/>
<path d="M366.219 331.97C366.057 331.97 365.895 331.935 365.746 331.864L354.443 326.611C353.951 326.382 353.762 325.845 354.025 325.415C354.288 324.984 354.902 324.819 355.394 325.049L366.697 330.302C367.19 330.532 367.379 331.068 367.115 331.499C366.933 331.799 366.583 331.97 366.219 331.97Z" fill="#231F20"/>
<path d="M335.757 408.013C335.272 408.013 334.84 407.706 334.759 407.27C334.671 406.786 335.042 406.332 335.595 406.256L344.201 405.024C346.932 404.629 349.589 403.98 352.105 403.096C352.624 402.913 353.211 403.131 353.42 403.585C353.629 404.039 353.38 404.552 352.86 404.735C350.21 405.672 347.404 406.356 344.525 406.769L335.919 408.001C335.865 408.007 335.811 408.013 335.757 408.013Z" fill="#231F20"/>
<path d="M341.046 280.247C314.642 280.247 295.84 271.899 284.226 264.33C269.78 254.921 263.211 244.934 262.942 244.509C262.665 244.085 262.834 243.549 263.319 243.307C263.805 243.065 264.419 243.213 264.695 243.637C264.762 243.737 271.372 253.771 285.508 262.956C298.531 271.422 320.8 280.884 352.97 277.913C366.188 276.686 376.743 271.451 384.337 262.349C393.495 251.378 398.446 234.983 399.053 213.612C399.666 192.07 395.552 172.15 393.759 164.58C393.536 163.649 393.28 162.641 392.969 161.497C392.841 161.02 393.179 160.548 393.718 160.43C394.271 160.318 394.804 160.613 394.939 161.084C395.256 162.246 395.519 163.266 395.741 164.215C397.549 171.843 401.696 191.929 401.076 213.647C400.462 235.378 395.377 252.114 385.969 263.38C378.018 272.907 366.984 278.384 353.179 279.658C348.97 280.047 344.924 280.229 341.046 280.229V280.247Z" fill="#231F20"/>
<path d="M232.294 322.41C232.294 322.41 232.267 322.41 232.253 322.41C231.693 322.393 231.262 321.98 231.282 321.496L235.018 232.388C235.038 231.899 235.511 231.528 236.064 231.539C236.623 231.557 237.055 231.97 237.035 232.453L233.298 321.561C233.278 322.039 232.826 322.416 232.287 322.416L232.294 322.41Z" fill="#231F20"/>
<path d="M262.745 428.978C262.192 428.978 261.74 428.589 261.733 428.106L261.504 414.104C261.403 412.294 259.818 410.744 257.734 410.443L255.158 410.078C254.605 410.001 254.234 409.541 254.321 409.064C254.409 408.586 254.935 408.25 255.481 408.333L258.058 408.698C261.072 409.129 263.372 411.381 263.52 414.045L263.75 428.076C263.757 428.566 263.311 428.966 262.752 428.972H262.738L262.745 428.978Z" fill="#231F20"/>
<path d="M63.4987 372.254C63.3031 372.254 63.1076 372.207 62.9322 372.101C62.4736 371.824 62.3522 371.275 62.6692 370.875L64.969 367.927C72.6304 358.093 84.7362 351.385 98.1841 349.527L193.803 337.696C194.349 337.631 194.869 337.967 194.95 338.45C195.031 338.934 194.639 339.382 194.086 339.452L98.4876 351.284C85.6062 353.065 73.9994 359.502 66.6483 368.935L64.3485 371.883C64.1529 372.136 63.8359 372.272 63.5122 372.272L63.4987 372.254Z" fill="#231F20"/>
<path d="M263.301 466.343C262.748 466.343 262.296 465.954 262.29 465.47L261.676 428.029C261.669 427.54 262.114 427.139 262.674 427.133H262.687C263.241 427.133 263.692 427.522 263.699 428.005L264.313 465.447C264.32 465.936 263.874 466.337 263.315 466.343H263.301Z" fill="#231F20"/>
<path d="M265.227 583.549H113.348C112.788 583.549 112.336 583.154 112.336 582.665C112.336 582.176 112.788 581.781 113.348 581.781H264.195L262.293 465.631C262.286 465.141 262.731 464.741 263.291 464.735C263.837 464.723 264.309 465.118 264.316 465.607L266.232 582.653C266.232 582.889 266.13 583.119 265.942 583.284C265.753 583.449 265.49 583.549 265.22 583.549H265.227Z" fill="#231F20"/>
<path d="M113.377 583.55H-23.3477C-23.6175 583.55 -23.8738 583.456 -24.0626 583.291C-24.2515 583.126 -24.3594 582.902 -24.3594 582.666L-24.2987 482.999C-24.2987 482.822 -24.238 482.651 -24.1233 482.504L62.7216 371.064C63.0385 370.663 63.6657 370.557 64.1243 370.834C64.5829 371.112 64.7043 371.66 64.3874 372.061L-22.2754 483.27L-22.3361 581.776H113.377C113.937 581.776 114.389 582.171 114.389 582.66C114.389 583.15 113.937 583.545 113.377 583.545V583.55Z" fill="#231F20"/>
<path d="M344.059 322.297C343.991 322.297 343.924 322.291 343.856 322.279C343.795 322.267 343.728 322.25 343.667 322.226C343.607 322.203 343.546 322.179 343.492 322.144C343.438 322.114 343.384 322.079 343.337 322.038C343.148 321.873 343.047 321.643 343.047 321.407C343.047 321.354 343.047 321.295 343.06 321.236C343.074 321.183 343.094 321.124 343.121 321.071C343.148 321.018 343.175 320.965 343.215 320.917C343.249 320.87 343.29 320.823 343.337 320.788C343.384 320.746 343.438 320.705 343.492 320.676C343.546 320.64 343.607 320.617 343.667 320.593C343.728 320.57 343.795 320.552 343.856 320.54C344.187 320.481 344.537 320.581 344.773 320.788C344.955 320.947 345.07 321.177 345.07 321.407C345.07 321.637 344.955 321.873 344.773 322.038C344.726 322.079 344.672 322.114 344.618 322.144C344.564 322.179 344.504 322.203 344.443 322.226C344.382 322.25 344.315 322.267 344.254 322.279C344.187 322.291 344.119 322.297 344.059 322.297Z" fill="#231F20"/>
<path d="M344.059 322.268C343.499 322.268 343.047 321.873 343.047 321.384V279.486C343.047 278.997 343.499 278.602 344.059 278.602C344.618 278.602 345.07 278.997 345.07 279.486V321.384C345.07 321.873 344.618 322.268 344.059 322.268Z" fill="#231F20"/>
<path d="M313.098 462.83H313.084C312.524 462.824 312.079 462.423 312.086 461.933L312.868 414.075C313.017 411.375 315.316 409.129 318.331 408.699L320.907 408.333C321.454 408.25 321.98 408.581 322.067 409.064C322.155 409.547 321.784 410.001 321.231 410.078L318.655 410.444C316.578 410.738 314.986 412.295 314.885 414.134L314.103 461.963C314.096 462.446 313.644 462.835 313.091 462.835L313.098 462.83Z" fill="#231F20"/>
<path d="M312.25 513.438H312.236C311.677 513.432 311.232 513.031 311.238 512.542L312.068 462.013C312.075 461.53 312.526 461.141 313.08 461.141H313.093C313.653 461.147 314.098 461.547 314.091 462.037L313.262 512.566C313.255 513.049 312.803 513.438 312.25 513.438Z" fill="#231F20"/>
<path d="M635.58 583.505H463.859C463.3 583.505 462.848 583.11 462.848 582.621C462.848 582.131 463.3 581.736 463.859 581.736H634.568V515.101L512.836 372.092C512.498 371.697 512.593 371.149 513.045 370.854C513.49 370.565 514.124 370.642 514.461 371.037L636.389 514.282C636.517 514.435 636.591 514.618 636.591 514.812V582.627C636.591 583.116 636.14 583.511 635.58 583.511V583.505Z" fill="#231F20"/>
<path d="M513.663 372.309C513.353 372.309 513.05 372.185 512.854 371.955L509.212 367.681C501.753 358.914 490.848 353.149 478.506 351.439L382.246 339.448C381.693 339.377 381.309 338.929 381.39 338.446C381.471 337.962 381.976 337.626 382.536 337.697L478.816 349.694C491.698 351.48 503.068 357.488 510.844 366.625L514.486 370.9C514.823 371.295 514.729 371.843 514.277 372.138C514.095 372.255 513.886 372.314 513.677 372.314L513.663 372.309Z" fill="#231F20"/>
<path d="M113.325 583.551C112.786 583.551 112.334 583.174 112.314 582.696L106.891 451.076C106.311 437.022 101.253 423.427 92.2565 411.772L62.6563 372.049C62.3528 371.643 62.4809 371.094 62.953 370.823C63.4184 370.558 64.0456 370.67 64.3558 371.083L93.9425 410.794C103.142 422.714 108.321 436.627 108.915 451.012L114.337 582.631C114.357 583.12 113.919 583.527 113.359 583.545C113.346 583.545 113.332 583.545 113.325 583.545V583.551Z" fill="#231F20"/>
<path d="M463.86 583.496C463.86 583.496 463.833 583.496 463.826 583.496C463.266 583.479 462.828 583.066 462.848 582.583L468.271 450.963C468.864 436.578 474.044 422.665 483.249 410.733L512.796 371.081C513.099 370.674 513.726 370.556 514.199 370.822C514.664 371.087 514.799 371.635 514.495 372.048L484.942 411.712C475.939 423.385 470.874 436.973 470.301 451.028L464.878 582.647C464.858 583.125 464.413 583.502 463.867 583.502L463.86 583.496Z" fill="#231F20"/>
<path d="M289.953 381.758C286.271 381.758 282.71 381.575 279.371 381.222C278.818 381.163 278.42 380.721 278.488 380.237C278.555 379.754 279.068 379.412 279.614 379.465C282.872 379.813 286.352 379.989 289.953 379.989C296.394 379.989 302.369 379.424 307.704 378.298C308.243 378.186 308.796 378.474 308.924 378.952C309.053 379.424 308.722 379.907 308.176 380.019C302.686 381.174 296.556 381.758 289.953 381.758Z" fill="#231F20"/>
<path d="M275.271 380.503C275.211 380.503 275.15 380.503 275.089 380.491C264.143 378.764 254.978 374.979 247.843 369.231C247.431 368.901 247.404 368.341 247.782 367.981C248.16 367.622 248.8 367.598 249.212 367.928C256.057 373.446 264.885 377.084 275.447 378.752C275.993 378.841 276.364 379.3 276.263 379.778C276.175 380.202 275.75 380.503 275.271 380.503Z" fill="#231F20"/>
<path d="M245.529 366.89C245.252 366.89 244.976 366.79 244.78 366.601C240.295 362.268 236.788 357.039 234.36 351.067C234.171 350.607 234.448 350.1 234.974 349.935C235.5 349.77 236.08 350.011 236.269 350.471C238.609 356.225 241.974 361.254 246.284 365.41C246.662 365.77 246.628 366.33 246.21 366.66C246.014 366.813 245.771 366.89 245.529 366.89Z" fill="#231F20"/>
<path d="M337.268 361.427C337.099 361.427 336.924 361.392 336.768 361.309C336.283 361.067 336.114 360.525 336.391 360.106C337.638 358.19 338.738 356.109 339.655 353.916C339.851 353.457 340.431 353.221 340.95 353.392C341.476 353.563 341.746 354.07 341.55 354.524C340.592 356.805 339.446 358.975 338.144 360.979C337.955 361.268 337.618 361.427 337.268 361.427Z" fill="#231F20"/>
<path d="M311.965 378.911C311.533 378.911 311.135 378.669 311 378.292C310.832 377.826 311.129 377.331 311.661 377.184C321.312 374.513 328.92 369.785 334.275 363.141C334.598 362.74 335.226 362.646 335.684 362.929C336.143 363.212 336.251 363.76 335.927 364.161C330.316 371.129 322.358 376.081 312.275 378.876C312.174 378.905 312.073 378.917 311.972 378.917L311.965 378.911Z" fill="#231F20"/>
<path d="M318.571 398.838C318.126 398.838 317.721 398.584 317.6 398.195C317.451 397.723 317.761 397.234 318.301 397.104C323.352 395.866 328.087 394.221 332.39 392.229C332.882 391.999 333.496 392.164 333.759 392.594C334.022 393.025 333.833 393.561 333.34 393.791C328.916 395.843 324.04 397.529 318.854 398.808C318.76 398.832 318.672 398.843 318.577 398.843L318.571 398.838Z" fill="#231F20"/>
<path d="M268.764 400.626C268.71 400.626 268.649 400.626 268.595 400.614C258.661 399.14 249.772 396.516 242.178 392.814C241.692 392.578 241.517 392.036 241.787 391.612C242.057 391.187 242.67 391.028 243.163 391.27C250.554 394.872 259.227 397.43 268.932 398.869C269.485 398.951 269.856 399.405 269.762 399.889C269.681 400.319 269.249 400.626 268.764 400.626Z" fill="#231F20"/>
<path d="M289.9 402.065C283.925 402.065 278.185 401.753 272.844 401.146C272.291 401.081 271.9 400.639 271.974 400.155C272.048 399.672 272.561 399.33 273.107 399.395C278.354 399.996 284.006 400.303 289.893 400.303C298.742 400.303 306.956 399.554 314.314 398.086C314.867 397.974 315.4 398.275 315.528 398.752C315.656 399.23 315.312 399.701 314.766 399.813C307.259 401.317 298.897 402.077 289.893 402.077L289.9 402.065Z" fill="#231F20"/>
<path d="M248.45 369.442C248.207 369.442 247.957 369.365 247.768 369.212C246.743 368.393 245.732 367.497 244.754 366.547C244.383 366.182 244.417 365.628 244.828 365.298C245.246 364.973 245.88 364.997 246.258 365.362C247.195 366.27 248.16 367.125 249.137 367.909C249.549 368.239 249.576 368.799 249.198 369.159C248.996 369.348 248.726 369.448 248.45 369.448V369.442Z" fill="#231F20"/>
<path d="M279.417 381.094C279.377 381.094 279.336 381.094 279.296 381.088C277.853 380.934 276.43 380.746 275.067 380.534C274.514 380.445 274.15 379.985 274.251 379.508C274.352 379.024 274.878 378.712 275.425 378.794C276.753 379.001 278.136 379.184 279.545 379.337C280.098 379.396 280.496 379.838 280.429 380.321C280.368 380.769 279.93 381.099 279.424 381.099L279.417 381.094Z" fill="#231F20"/>
<path d="M272.906 401.204C272.866 401.204 272.819 401.204 272.778 401.198C271.342 401.039 269.919 400.851 268.556 400.644C268.003 400.562 267.639 400.102 267.734 399.624C267.828 399.141 268.354 398.817 268.9 398.905C270.236 399.106 271.625 399.288 273.028 399.448C273.581 399.512 273.972 399.955 273.905 400.438C273.837 400.886 273.406 401.21 272.9 401.21L272.906 401.204Z" fill="#231F20"/>
<path d="M307.809 380.013C307.35 380.013 306.939 379.742 306.824 379.336C306.696 378.858 307.033 378.386 307.573 378.268C308.901 377.991 310.237 377.667 311.531 377.308C312.071 377.16 312.631 377.414 312.806 377.879C312.975 378.345 312.685 378.84 312.152 378.994C310.81 379.371 309.427 379.707 308.045 379.99C307.964 380.008 307.89 380.013 307.809 380.013Z" fill="#231F20"/>
<path d="M314.607 399.761C314.142 399.761 313.73 399.484 313.622 399.072C313.501 398.594 313.838 398.122 314.384 398.016C315.74 397.745 317.055 397.456 318.404 397.126C318.944 396.996 319.503 397.268 319.652 397.739C319.8 398.211 319.49 398.7 318.95 398.83C317.568 399.166 316.226 399.467 314.836 399.744C314.762 399.761 314.688 399.767 314.614 399.767L314.607 399.761Z" fill="#231F20"/>
<path d="M334.999 364.538C334.797 364.538 334.595 364.485 334.419 364.379C333.961 364.096 333.853 363.547 334.17 363.147C334.986 362.127 335.734 361.095 336.389 360.081C336.665 359.657 337.279 359.509 337.764 359.745C338.25 359.987 338.425 360.523 338.149 360.948C337.461 362.009 336.679 363.094 335.822 364.161C335.626 364.408 335.309 364.538 334.992 364.538H334.999Z" fill="#231F20"/>
<path d="M312.321 513.438C312.031 513.438 311.741 513.332 311.546 513.12C310.979 512.53 310.426 511.929 309.873 511.328C308.133 509.447 306.332 507.502 304.282 505.875C302.428 504.407 300.29 503.127 298.212 501.889C295.13 500.05 291.947 498.152 289.519 495.54C282.573 488.071 283.955 475.472 292.554 468.032C299.534 461.99 306.582 461.147 313.158 461.141C313.717 461.141 314.169 461.536 314.169 462.025C314.169 462.514 313.717 462.909 313.158 462.909C306.063 462.915 300.081 464.006 293.977 469.288C286.093 476.115 284.771 487.623 291.091 494.42C293.336 496.831 296.257 498.576 299.352 500.427C301.483 501.701 303.682 503.015 305.638 504.566C307.803 506.281 309.651 508.28 311.445 510.214C311.991 510.809 312.544 511.399 313.104 511.982C313.461 512.359 313.4 512.914 312.975 513.226C312.787 513.362 312.557 513.432 312.328 513.432L312.321 513.438Z" fill="#231F20"/>
<path d="M263.296 466.35C262.993 466.35 262.689 466.232 262.493 466.002C262.156 465.613 262.237 465.059 262.682 464.764C264.092 463.821 265.245 462.895 266.209 461.917C269.851 458.238 271.639 453.251 273.217 448.847C275.159 443.423 277.135 435.759 271.881 431.809C269.71 430.176 266.742 429.581 263.633 429.068C263.431 429.033 263.229 429.003 263.033 428.974L262.507 428.891C261.954 428.803 261.596 428.343 261.691 427.859C261.792 427.376 262.325 427.063 262.871 427.146L263.37 427.223C263.579 427.252 263.795 427.287 264.004 427.323C267.262 427.859 270.654 428.543 273.196 430.465C279.354 435.099 277.256 443.476 275.146 449.371C273.507 453.94 271.652 459.111 267.74 463.066C266.682 464.133 265.434 465.147 263.91 466.161C263.728 466.285 263.512 466.344 263.296 466.344V466.35Z" fill="#231F20"/>
<path d="M237.652 233.453C237.066 233.453 236.465 233.394 235.865 233.282C235.319 233.176 234.975 232.705 235.096 232.227C235.218 231.75 235.75 231.449 236.303 231.555C236.755 231.643 237.207 231.685 237.652 231.685C241.092 231.685 243.891 229.238 243.891 226.232C243.891 223.225 241.092 220.778 237.652 220.778C234.213 220.778 231.414 223.225 231.414 226.232C231.414 227.098 231.643 227.929 232.102 228.713C232.358 229.15 232.162 229.68 231.663 229.904C231.164 230.128 230.557 229.957 230.301 229.521C229.694 228.489 229.391 227.387 229.391 226.237C229.391 222.252 233.1 219.016 237.652 219.016C242.205 219.016 245.914 222.258 245.914 226.237C245.914 230.217 242.205 233.459 237.652 233.459V233.453Z" fill="#231F20"/>
<path d="M236.048 233.346C235.973 233.346 235.906 233.34 235.832 233.322C233.417 232.856 231.387 231.483 230.261 229.555C230.005 229.119 230.2 228.588 230.699 228.364C231.199 228.14 231.806 228.311 232.062 228.747C232.918 230.203 234.449 231.241 236.27 231.595C236.816 231.701 237.16 232.172 237.039 232.65C236.938 233.063 236.52 233.346 236.054 233.346H236.048Z" fill="#231F20"/>
<path d="M166.964 454.242C166.222 454.242 165.48 454.218 164.732 454.177C156.166 453.664 148.35 450.262 142.712 444.603C137.074 438.943 134.295 431.704 134.882 424.223C135.468 416.736 139.36 409.903 145.834 404.974C152.309 400.046 160.584 397.617 169.149 398.13C186.825 399.197 200.219 412.632 198.999 428.084C197.832 442.881 183.683 454.248 166.964 454.248V454.242ZM164.873 452.408C181.423 453.405 195.842 442.439 196.982 427.954C198.122 413.475 185.578 400.883 169.007 399.887C160.982 399.403 153.226 401.679 147.156 406.301C141.093 410.917 137.445 417.325 136.892 424.341C136.339 431.356 138.942 438.136 144.229 443.441C149.51 448.741 156.841 451.931 164.866 452.414L164.873 452.408Z" fill="#231F20"/>
</g>
<rect x="2.30282" y="2.30282" width="575.394" height="502.394" stroke="white" stroke-width="4.60563"/>
<defs>
<clipPath id="clip0_10002_74033">
<rect width="580" height="507" fill="white"/>
</clipPath>
</defs>
</svg>
