<svg width="80" height="80" viewBox="0 0 80 80" fill="none" xmlns="http://www.w3.org/2000/svg">
<g clip-path="url(#clip0_12224_14452)">
<path fill-rule="evenodd" clip-rule="evenodd" d="M31.863 12.3241C35.851 6.74061 44.1493 6.74061 48.1377 12.3241L48.7727 13.213C49.4743 14.1956 50.653 14.7218 51.853 14.5885L54.683 14.274C61.0523 13.5663 66.434 18.948 65.7263 25.3172L65.412 28.1472C65.2787 29.3474 65.8047 30.5259 66.7873 31.2278L67.6763 31.8627C73.2597 35.8507 73.2597 44.1491 67.6763 48.1374L66.7873 48.7724C65.8047 49.4741 65.2787 50.6527 65.412 51.8527L65.7263 54.6827C66.434 61.0521 61.0523 66.4337 54.683 65.7261L51.853 65.4117C50.653 65.2784 49.4743 65.8044 48.7727 66.7871L48.1377 67.6761C44.1493 73.2594 35.8513 73.2594 31.863 67.6761L31.228 66.7871C30.5261 65.8044 29.3477 65.2784 28.1475 65.4117L25.3174 65.7261C18.9483 66.4337 13.5666 61.0521 14.2743 54.6827L14.5887 51.8527C14.7221 50.6527 14.1959 49.4741 13.2132 48.7724L12.3243 48.1374C6.74085 44.1491 6.74085 35.8511 12.3243 31.8627L13.2132 31.2278C14.1959 30.5259 14.7221 29.3474 14.5887 28.1472L14.2743 25.3172C13.5666 18.948 18.9483 13.5663 25.3174 14.274L28.1475 14.5885C29.3477 14.7218 30.5261 14.1956 31.228 13.213L31.863 12.3241ZM52.3573 30.9764C53.659 32.2781 53.659 34.3887 52.3573 35.6904L39.6277 48.4201C37.9927 50.0554 35.3413 50.0554 33.7063 48.4201L27.6433 42.3571C26.3416 41.0554 26.3416 38.9447 27.6433 37.6431C28.9451 36.3414 31.0556 36.3414 32.3574 37.6431L36.667 41.9527L47.6433 30.9764C48.945 29.6746 51.0557 29.6746 52.3573 30.9764Z" fill="#00C300"/>
</g>
<defs>
<clipPath id="clip0_12224_14452">
<rect width="80" height="80" fill="white"/>
</clipPath>
</defs>
</svg>
