<svg width="24" height="24" viewBox="0 0 24 24" fill="none" xmlns="http://www.w3.org/2000/svg">
<g clip-path="url(#clip0_11152_58899)">
<rect width="24" height="24" rx="12" fill="#FEDEE2"/>
<path d="M14.342 10.7566C14.4291 10.7566 14.508 10.7912 14.5661 10.847C15.1198 10.8113 15.5582 10.3179 15.5582 9.71451C15.5582 9.63358 15.5504 9.55489 15.5353 9.4787C15.4343 8.96521 15.0098 8.57982 14.5016 8.57982C14.3604 8.57982 14.2256 8.60968 14.1026 8.66382C14.0356 8.69312 13.9725 8.72967 13.9133 8.77209C14.1419 10.2046 12.9056 10.8805 12.9056 10.8805C12.9746 10.7884 13.0212 10.6477 13.0524 10.4895C13.1476 10.005 13.0256 9.50828 12.7466 9.10084C12.391 8.58205 12.5166 7.82856 12.5166 7.82856C10.437 7.46939 10.1004 5.5 10.1004 5.5C10.1004 5.5 9.64135 6.724 8.61353 7.21712C8.43242 7.30419 8.23344 7.36865 8.01605 7.39935C7.98144 7.52102 7.9513 7.64353 7.92562 7.76688C7.62841 9.19935 7.3633 12.2086 8.99697 13.0006C9.18786 13.0935 9.40469 13.1557 9.65027 13.1817C9.77837 13.1951 9.90284 13.2032 10.0237 13.2068V15.2164L12.3341 18.244L14.6442 15.2164L14.6465 15.2203L14.6085 14.1916L14.6046 14.0859L14.5853 13.5579C14.4511 13.4694 14.337 13.3583 14.2616 13.2149C14.167 13.0352 14.148 12.8275 14.1815 12.6258C14.2008 12.5088 14.2376 12.3936 14.2876 12.287C14.3515 12.1508 14.4327 12.0235 14.5248 11.9033L14.5047 11.361C14.457 11.3889 14.4014 11.4051 14.342 11.4051C14.1628 11.4051 14.0177 11.26 14.0177 11.0808C14.0177 10.9017 14.1628 10.7566 14.342 10.7566ZM14.3484 10.2696C14.4416 10.2696 14.5173 10.3452 14.5173 10.4387C14.5173 10.5322 14.4416 10.6075 14.3484 10.6075C14.2552 10.6075 14.1796 10.5319 14.1796 10.4387C14.1796 10.3455 14.2552 10.2696 14.3484 10.2696Z" fill="#DB9476"/>
<path d="M11.1638 8.30996C11.1748 8.15932 11.1218 8.03267 11.0454 8.02709C10.969 8.0215 10.8981 8.1391 10.8871 8.28974C10.8761 8.44038 10.9291 8.56703 11.0055 8.57261C11.0819 8.57819 11.1528 8.4606 11.1638 8.30996Z" fill="#231F20"/>
<path d="M8.87081 8.38808C8.88182 8.23744 8.82881 8.11079 8.75242 8.10521C8.67602 8.09963 8.60516 8.21722 8.59415 8.36786C8.58314 8.5185 8.63615 8.64515 8.71255 8.65073C8.78894 8.65632 8.8598 8.53872 8.87081 8.38808Z" fill="#231F20"/>
<path d="M14.3485 10.6033C14.4418 10.6033 14.5174 10.5277 14.5174 10.4345C14.5174 10.3412 14.4418 10.2656 14.3485 10.2656C14.2553 10.2656 14.1797 10.3412 14.1797 10.4345C14.1797 10.5277 14.2553 10.6033 14.3485 10.6033Z" fill="#231F20"/>
<path d="M14.3438 11.4064C14.5229 11.4064 14.6681 11.2612 14.6681 11.0821C14.6681 10.903 14.5229 10.7578 14.3438 10.7578C14.1647 10.7578 14.0195 10.903 14.0195 11.0821C14.0195 11.2612 14.1647 11.4064 14.3438 11.4064Z" fill="#231F20"/>
<path d="M14.6091 14.1963C14.9697 14.0383 15.2074 13.8215 15.2074 13.8215C14.9923 13.7645 14.7704 13.6839 14.5859 13.5625L14.6091 14.1963Z" fill="#601D0E"/>
<path d="M14.6681 11.0821C14.6681 11.1817 14.6232 11.2705 14.5523 11.3299C14.538 11.3419 14.5227 11.3528 14.5065 11.3623C14.4588 11.3902 14.4033 11.4064 14.3438 11.4064C14.1647 11.4064 14.0195 11.2613 14.0195 11.0821C14.0195 11.0472 14.0251 11.0137 14.0352 10.9822C14.0773 10.8519 14.1995 10.7578 14.3438 10.7578C14.4309 10.7578 14.5099 10.7924 14.5679 10.8482C14.6296 10.9074 14.6681 10.99 14.6681 11.0821Z" fill="#FFCE8D"/>
<path d="M14.5679 11.2305C14.5679 11.2651 14.5623 11.2986 14.5523 11.3299C14.538 11.3419 14.5227 11.3528 14.5065 11.3622C14.4588 11.3902 14.4033 11.4063 14.3438 11.4063C14.1647 11.4063 14.0195 11.2612 14.0195 11.0821C14.0195 11.0472 14.0251 11.0137 14.0352 10.9822C14.0915 10.9347 14.1644 10.9062 14.2436 10.9062C14.331 10.9062 14.4097 10.9406 14.468 10.9967C14.5297 11.0556 14.5679 11.1384 14.5679 11.2305Z" fill="#FFBE58"/>
<path d="M17.7472 12.6784C17.7472 12.6784 17.7449 12.6912 17.7391 12.7141C17.6788 12.9533 17.2451 14.297 15.2065 13.8176C14.9914 13.7606 14.7695 13.68 14.585 13.5586C14.4508 13.4701 14.3367 13.359 14.2613 13.2156C14.112 12.9318 14.1511 12.5782 14.2873 12.2877C14.3512 12.1515 14.4324 12.0243 14.5245 11.904L14.508 11.4575L14.5044 11.3617C14.6009 11.3054 14.666 11.2013 14.666 11.0816C14.666 10.9895 14.6275 10.9069 14.5658 10.8477C15.1195 10.812 15.5579 10.3186 15.5579 9.71524C15.5579 9.11189 15.0849 8.58054 14.5013 8.58054C14.2836 8.58054 14.0813 8.6517 13.913 8.77282C14.0704 9.75989 13.5324 10.3878 13.1827 10.6828C13.0298 10.8117 12.9129 10.877 12.9056 10.8809C12.9742 10.7888 13.0209 10.6482 13.0521 10.4902C13.1473 10.0057 13.0253 9.509 12.7462 9.10156C12.4582 8.68128 12.4859 8.10696 12.5068 7.90408V7.90268C12.5118 7.8558 12.5163 7.82928 12.5163 7.82928C10.4367 7.47012 10.1001 5.50072 10.1001 5.50072C10.1001 5.50072 9.73955 6.46212 8.94197 7.02417C8.94197 7.02417 8.94178 7.02417 8.94141 7.02417C8.68048 7.20808 8.37295 7.34928 8.01574 7.3998C7.98113 7.52147 7.95099 7.64398 7.92531 7.76733C7.61806 9.24947 7.34457 12.4189 9.17304 13.0752C9.31843 13.1274 9.47694 13.1637 9.64996 13.1821C9.73089 13.1905 9.81015 13.1969 9.88801 13.2011C9.93378 13.2039 9.97871 13.2058 10.0234 13.2072V14.2688C9.70522 14.2362 8.73015 14.0869 8.43852 13.4668C8.43852 13.4668 8.43517 13.4684 8.42903 13.4712C8.28364 13.5402 6.51545 14.3319 6.24057 12.3156C6.23945 12.3081 6.23108 12.2989 6.21657 12.2883C6.1002 12.2054 5.6015 12.048 5.52922 12.0005C5.25294 11.8183 5.04364 11.5306 4.96913 11.2069C4.8388 10.642 5.13295 10.2346 5.45471 9.81459C5.79183 9.37449 6.06671 8.94975 6.09629 8.37877C6.1175 7.97273 6.09796 7.55775 6.21685 7.169C6.40578 6.55142 7.06997 5.93273 7.72578 5.84064C7.72578 5.84064 7.17322 4.20724 9.35666 4.01803C9.40131 4.01412 9.44708 4.01077 9.49397 4.00826C9.49397 4.00826 9.52439 3.97533 9.58327 3.92147C9.59164 3.91366 9.60057 3.90556 9.61006 3.89691L9.61174 3.89524C9.68708 3.82714 9.7976 3.73449 9.9388 3.63347C10.0942 3.52212 10.2871 3.40101 10.512 3.29217C10.5226 3.28715 10.5329 3.28212 10.5435 3.2771C10.5999 3.25059 10.656 3.22575 10.7121 3.20287C10.7263 3.19701 10.7403 3.19142 10.7542 3.18584C11.7491 2.7904 13.236 2.72064 14.8566 4.44473C14.9132 4.50473 14.9699 4.56724 15.0265 4.6317H15.0268C15.0318 4.63756 15.0368 4.64314 15.0419 4.649C15.0458 4.65319 15.0494 4.65765 15.0533 4.66184C15.0533 4.66184 15.0793 4.66073 15.1259 4.66157C15.5422 4.66826 17.6048 4.82566 17.5063 7.26808C17.5063 7.26808 18.9957 8.10054 18.492 9.74314C18.492 9.74314 18.5185 9.76603 18.5615 9.80845C18.9042 10.1447 20.2962 11.7053 17.7472 12.6781V12.6784Z" fill="#601D0E"/>
<path d="M18.5835 17.1557C18.5826 17.1604 18.5815 17.1654 18.5807 17.1702C18.5796 17.1746 18.5785 17.1802 18.5771 17.1866C18.5765 17.1903 18.5757 17.1939 18.5748 17.1975C18.5734 17.2037 18.572 17.2106 18.5704 17.2179C18.524 17.4297 18.3485 18.1634 17.9486 19.1401C17.9416 19.1571 17.9346 19.1742 17.9277 19.1912C17.914 19.2238 17.9003 19.2565 17.8866 19.2892C17.8783 19.3092 17.8696 19.3291 17.861 19.3491C17.8478 19.3801 17.8345 19.4114 17.8208 19.4429C17.7535 19.597 17.6838 19.7499 17.6112 19.9017C17.5922 19.941 17.5732 19.9804 17.554 20.0195C17.5398 20.0488 17.5252 20.0781 17.5107 20.1071C17.5015 20.1258 17.492 20.1448 17.4825 20.1635C17.4689 20.1911 17.4546 20.2185 17.4407 20.2461C17.3762 20.3728 17.3095 20.4986 17.2409 20.6231C17.2227 20.6563 17.2043 20.6895 17.1856 20.7227C17.1825 20.7283 17.1792 20.7342 17.1759 20.74C17.158 20.7721 17.1396 20.8045 17.1212 20.8366C17.0609 20.9418 16.9992 21.0464 16.9361 21.15C16.9238 21.1706 16.9113 21.1913 16.8985 21.2117C16.8859 21.2323 16.8731 21.253 16.8602 21.2736C16.7589 21.4366 16.6518 21.601 16.539 21.7659C16.5373 21.7684 16.5357 21.7709 16.534 21.7734C16.3199 22.0852 16.0858 22.3983 15.8291 22.708C15.682 22.8855 15.5279 23.0616 15.3655 23.2358C15.3242 23.2801 15.2826 23.3242 15.2402 23.3683C15.128 23.4858 15.0119 23.6022 14.8922 23.7171C14.8252 23.7813 14.7571 23.8452 14.6879 23.9086C14.0104 24.529 13.2214 25.1033 12.3047 25.5836V25.5822C12.3047 25.5822 12.3047 25.5822 12.305 25.5816C12.3602 25.504 13.9939 23.1746 14.6988 19.5741C14.9199 18.4452 15.0493 17.1919 15.0105 15.8438L17.1334 16.146L17.5931 16.2121L17.6268 16.2169L17.8942 16.2554L17.9545 16.264L18.0351 16.2757L18.0167 16.3037L17.1482 17.6041L18.5838 17.1557H18.5835Z" fill="#BA5952"/>
<path d="M14.3882 19.357L12.3323 18.2747L12.322 18.2803C11.835 20.2232 12.3426 22.9673 12.3027 25.5797C12.3669 25.4892 15.1718 21.4994 15.0086 15.8412L14.9709 15.8359L14.9726 15.8393L14.3885 19.3572L14.3882 19.357Z" fill="#FCD2E6"/>
<path d="M12.3036 25.5816C12.2581 25.5579 12.2132 25.5339 12.1683 25.5093C12.1406 25.4945 12.1133 25.4798 12.0859 25.4644C12.0374 25.4376 11.9891 25.4105 11.9414 25.3832C11.904 25.362 11.8669 25.3405 11.83 25.3187C11.7974 25.2995 11.7647 25.2802 11.7324 25.2607C11.7151 25.2504 11.6977 25.2398 11.6807 25.2291C11.6548 25.2138 11.6291 25.1979 11.6034 25.182C11.5794 25.1672 11.5554 25.1521 11.532 25.1373C11.5113 25.1242 11.4904 25.1111 11.47 25.098C11.3414 25.0159 11.2158 24.9317 11.0933 24.8457C11.0712 24.8306 11.0495 24.8153 11.028 24.7999C10.968 24.7575 10.9088 24.7145 10.8505 24.6713C10.817 24.6464 10.7835 24.6216 10.7503 24.5962C10.7486 24.5951 10.747 24.594 10.7453 24.5926C10.7174 24.5714 10.6897 24.5502 10.6621 24.529C10.6197 24.4963 10.5778 24.4634 10.5365 24.4304C10.5081 24.4078 10.4799 24.3852 10.452 24.3624C10.3839 24.3074 10.3172 24.2518 10.2513 24.1957C10.2251 24.1731 10.1989 24.1508 10.1729 24.1282C10.14 24.0997 10.1076 24.0713 10.0752 24.0425C10.0448 24.0155 10.0144 23.9884 9.98454 23.9611C9.95747 23.9368 9.93096 23.9125 9.90445 23.8879C9.87152 23.8575 9.83887 23.8271 9.80677 23.7967C9.74845 23.7414 9.69096 23.6859 9.63431 23.6301C9.60612 23.6022 9.57794 23.5743 9.55003 23.5461C9.52212 23.5182 9.4945 23.49 9.46715 23.4618C9.41664 23.4102 9.36696 23.3585 9.3184 23.3064C9.26035 23.2447 9.20342 23.1827 9.14761 23.1205C9.12305 23.0934 9.09905 23.0664 9.07505 23.0393C9.04798 23.0089 9.02147 22.9784 8.99524 22.948C8.9704 22.9193 8.94556 22.8903 8.92101 22.8612C8.89645 22.8325 8.87189 22.8035 8.84789 22.7745C8.82165 22.7432 8.79571 22.7119 8.77003 22.6804C8.74826 22.6536 8.72677 22.6268 8.70528 22.6C8.68184 22.571 8.65868 22.542 8.63552 22.5127C8.61263 22.4837 8.58975 22.4544 8.56715 22.4251C8.54454 22.396 8.52221 22.3667 8.49989 22.3374C8.49765 22.3344 8.49514 22.3313 8.49263 22.3279C8.45691 22.2808 8.42175 22.2336 8.38686 22.1864C8.35923 22.149 8.33217 22.1117 8.30538 22.0743C8.28417 22.045 8.26324 22.0157 8.24258 21.9864C8.22193 21.957 8.20128 21.928 8.18119 21.8987C8.16082 21.8694 8.14073 21.8401 8.12064 21.8108C8.10082 21.7818 8.081 21.7525 8.06119 21.7232C8.04165 21.6942 8.0224 21.6649 8.00314 21.6358C7.99979 21.6308 7.99673 21.6258 7.99338 21.6211C7.97747 21.5968 7.96156 21.5725 7.94594 21.5482C7.92696 21.5192 7.90826 21.4902 7.88984 21.4609C7.87143 21.4318 7.85301 21.4028 7.83487 21.3738C7.81198 21.3378 7.78965 21.3015 7.76761 21.2652C7.73635 21.2147 7.70593 21.1642 7.67607 21.1137C7.65905 21.085 7.64203 21.0562 7.62529 21.0277C7.60854 20.999 7.5918 20.9703 7.57533 20.9418C7.5717 20.9354 7.56807 20.929 7.56416 20.9225C7.53514 20.8718 7.50668 20.8212 7.47877 20.771C7.46287 20.7425 7.44751 20.7144 7.43189 20.6862C7.41654 20.658 7.40119 20.6298 7.38612 20.6016C7.35598 20.5455 7.3264 20.4897 7.29738 20.4342C7.28287 20.4065 7.26835 20.3786 7.2544 20.351C7.24017 20.3234 7.22622 20.2957 7.21226 20.2684C7.19719 20.2385 7.1824 20.209 7.16761 20.1791C7.14193 20.1269 7.11654 20.0753 7.09198 20.0239C7.07914 19.9971 7.06631 19.9704 7.05375 19.9436C7.04119 19.9168 7.02863 19.8903 7.01635 19.8637C6.97924 19.7845 6.94379 19.7061 6.90947 19.6285C6.89803 19.6028 6.88686 19.5771 6.8757 19.5515C6.86203 19.5205 6.84863 19.4898 6.8358 19.4591C6.82715 19.4393 6.81877 19.4195 6.8104 19.3997C6.75765 19.2746 6.70826 19.153 6.66222 19.0349C6.65301 19.0112 6.6438 18.9877 6.63487 18.9643C6.59691 18.8658 6.56147 18.7701 6.52826 18.6774C6.51542 18.6423 6.50314 18.6074 6.49114 18.573C6.45961 18.4826 6.43003 18.3953 6.40268 18.3118C6.39682 18.294 6.39096 18.2761 6.38537 18.2585C6.37142 18.2153 6.35803 18.1732 6.34519 18.1318C6.33682 18.1048 6.32845 18.0783 6.32063 18.0523C6.27738 17.9103 6.24137 17.7822 6.21124 17.6703C6.20649 17.6521 6.20175 17.6345 6.19728 17.6172C6.18277 17.562 6.16994 17.5109 6.15877 17.4649C6.15459 17.4481 6.15068 17.4317 6.14678 17.416C6.14036 17.3887 6.13421 17.3633 6.12891 17.3398C6.1264 17.329 6.12417 17.3186 6.12193 17.3086C6.09961 17.209 6.08984 17.1551 6.08984 17.1551L7.52538 17.6038L7.0864 16.9466L6.63821 16.2755L6.94491 16.2311L8.93914 15.947L9.66277 15.8438C9.4264 20.8062 12.2087 25.4256 12.3011 25.5777C12.3022 25.5791 12.3028 25.5802 12.3031 25.5808C12.3031 25.5813 12.3036 25.5816 12.3036 25.5816Z" fill="#BA5952"/>
<path d="M12.3051 25.5843C12.2948 26.2597 12.2476 26.9261 12.1374 27.5677H-2.03906V24.3575L3.15722 17.3744C3.46782 16.9569 3.92829 16.6764 4.44122 16.5916C4.44568 16.5907 4.45042 16.5902 4.45489 16.5894L6.94503 16.2344L6.63833 16.2787L7.08652 16.9499L7.5255 17.6071L6.08996 17.1584C6.08996 17.1584 6.09973 17.2122 6.12205 17.3119C6.12428 17.3219 6.12652 17.3322 6.12903 17.3431C6.13433 17.3666 6.14047 17.392 6.14689 17.4193C6.15052 17.4349 6.15443 17.4511 6.15889 17.4681C6.17005 17.5142 6.18289 17.5653 6.1974 17.6205C6.20186 17.6378 6.20661 17.6554 6.21135 17.6735C6.24149 17.7854 6.2775 17.9135 6.32075 18.0556C6.32857 18.0815 6.33694 18.1081 6.34531 18.1351C6.35814 18.1764 6.37154 18.2186 6.38549 18.2618C6.39107 18.2794 6.39694 18.2973 6.4028 18.3151C6.43015 18.3986 6.45973 18.4859 6.49126 18.5763C6.50326 18.6107 6.51554 18.6455 6.52838 18.6807C6.56159 18.7734 6.59703 18.8691 6.63499 18.9676C6.64392 18.991 6.65312 19.0145 6.66233 19.0382C6.70838 19.1562 6.75777 19.2779 6.81052 19.4029C6.81889 19.4227 6.82726 19.4426 6.83591 19.4624C6.84875 19.4931 6.86215 19.5238 6.87582 19.5547C6.88698 19.5804 6.89814 19.6061 6.90959 19.6318C6.94391 19.7094 6.97936 19.7878 7.01647 19.867C7.02875 19.8935 7.04131 19.9201 7.05387 19.9468C7.06643 19.9736 7.07926 20.0004 7.0921 20.0272C7.11666 20.0786 7.14205 20.1302 7.16773 20.1824C7.18252 20.2122 7.19731 20.2418 7.21238 20.2717C7.22633 20.299 7.24029 20.3267 7.25452 20.3543C7.26847 20.3819 7.28299 20.4098 7.2975 20.4375C7.32652 20.493 7.3561 20.5488 7.38624 20.6049C7.40131 20.6331 7.41666 20.6613 7.432 20.6894C7.44763 20.7176 7.46299 20.7458 7.47889 20.7743C7.5068 20.8245 7.53526 20.875 7.56428 20.9258C7.56819 20.9322 7.57182 20.9387 7.57545 20.9451C7.59192 20.9735 7.60866 21.0023 7.6254 21.031C7.64215 21.0595 7.65917 21.0882 7.67619 21.117C7.70605 21.1675 7.73647 21.218 7.76773 21.2685C7.78977 21.3048 7.8121 21.3411 7.83499 21.3771C7.85313 21.4061 7.87154 21.4351 7.88996 21.4641C7.90838 21.4934 7.92708 21.5225 7.94606 21.5515C7.96168 21.5758 7.97759 21.6001 7.9935 21.6243C7.99684 21.6291 7.99991 21.6341 8.00326 21.6391C8.02251 21.6681 8.04177 21.6975 8.06131 21.7265C8.08112 21.7558 8.10094 21.7851 8.12075 21.8141C8.14085 21.8434 8.16094 21.8727 8.18131 21.902C8.2014 21.9313 8.22205 21.9603 8.2427 21.9896C8.26335 22.0189 8.28428 22.0482 8.30549 22.0775C8.33228 22.1149 8.35935 22.1523 8.38698 22.1897C8.42186 22.2369 8.45703 22.2841 8.49275 22.3312C8.49526 22.3346 8.49777 22.3376 8.5 22.3407C8.52233 22.37 8.54466 22.3993 8.56726 22.4283C8.58987 22.4576 8.61275 22.4869 8.63564 22.516C8.6588 22.5453 8.68196 22.5743 8.7054 22.6033C8.72689 22.6301 8.74838 22.6569 8.77015 22.6837C8.79582 22.7152 8.82177 22.7465 8.848 22.7777C8.872 22.8068 8.89657 22.8358 8.92112 22.8645C8.94568 22.8935 8.97052 22.9226 8.99535 22.9513C9.02159 22.9817 9.0481 23.0121 9.07517 23.0426C9.09917 23.0696 9.12317 23.0967 9.14772 23.1238C9.20354 23.186 9.26047 23.248 9.31852 23.3096C9.36736 23.3618 9.41675 23.4134 9.46727 23.4651C9.49461 23.4933 9.52224 23.5214 9.55015 23.5494C9.57805 23.5775 9.60624 23.6054 9.63443 23.6333C9.69108 23.6892 9.74856 23.7447 9.80689 23.8C9.83898 23.8304 9.87163 23.8608 9.90456 23.8912C9.93108 23.9158 9.95758 23.9401 9.98465 23.9643C10.0145 23.9917 10.0449 24.0188 10.0754 24.0458C10.1077 24.0746 10.1401 24.103 10.173 24.1315C10.199 24.1541 10.2252 24.1764 10.2514 24.199C10.3173 24.2551 10.384 24.3107 10.4521 24.3656C10.48 24.3885 10.5082 24.4111 10.5367 24.4337C10.578 24.4667 10.6198 24.4996 10.6622 24.5322C10.6899 24.5535 10.7175 24.5747 10.7454 24.5959C10.7471 24.5973 10.7488 24.5984 10.7504 24.5995C10.7836 24.6249 10.8171 24.6497 10.8506 24.6746C10.9089 24.7178 10.9681 24.7608 11.0281 24.8032C11.0496 24.8186 11.0716 24.8339 11.0934 24.849C11.2159 24.9349 11.3415 25.0192 11.4701 25.1013C11.4908 25.1144 11.5112 25.1275 11.5321 25.1406C11.5555 25.1554 11.5795 25.1705 11.6035 25.1853C11.6292 25.2012 11.6549 25.2171 11.6808 25.2324C11.6979 25.243 11.7152 25.2536 11.7325 25.264C11.7648 25.2835 11.7975 25.3028 11.8301 25.322C11.867 25.3438 11.9041 25.3653 11.9415 25.3865C11.9892 25.4138 12.0375 25.4409 12.0861 25.4677C12.1134 25.483 12.1407 25.4978 12.1684 25.5126C12.2133 25.5372 12.2582 25.5612 12.3037 25.5849C12.3037 25.5849 12.3046 25.5849 12.3051 25.5843Z" fill="#CA6754"/>
<path d="M21.535 17.4291C21.223 16.9711 20.736 16.6625 20.1887 16.5757L17.1332 16.1406L18.0349 16.2704L17.1477 17.5988L18.5832 17.15C18.5832 17.15 17.4826 22.8651 12.3044 25.5779C12.2941 26.2533 12.247 26.9197 12.1367 27.5616H25.2262L25.2237 22.8436L21.535 17.4288V17.4291Z" fill="#CA6754"/>
<g style="mix-blend-mode:multiply">
<path d="M12.411 18.3818L14.0257 19.6734C14.0921 19.7267 14.1907 19.7077 14.2328 19.6337L14.3059 19.5054L14.3785 19.3784C14.3866 19.3642 14.3921 19.3485 14.3949 19.3323L14.9098 16.2322C14.9313 16.1024 14.7773 16.0184 14.6799 16.1069L12.4049 18.1709C12.3415 18.2281 12.3449 18.3285 12.4113 18.3818H12.411Z" fill="#D38CB4"/>
</g>
<path d="M12.3038 25.5785C12.3038 25.5785 12.3046 25.5774 12.3052 25.5763C12.3451 22.9639 11.8375 20.2201 12.3244 18.277L10.2789 19.3536L9.69476 15.8359L9.66267 15.8404C9.42239 20.8863 12.3035 25.5783 12.3035 25.5783L12.3038 25.5785Z" fill="#FCD2E6"/>
<path d="M14.3485 10.6033C14.4418 10.6033 14.5174 10.5277 14.5174 10.4345C14.5174 10.3412 14.4418 10.2656 14.3485 10.2656C14.2553 10.2656 14.1797 10.3412 14.1797 10.4345C14.1797 10.5277 14.2553 10.6033 14.3485 10.6033Z" fill="#FFBE58"/>
<path d="M10.2398 10.4568C9.58847 10.3454 9.44531 10.7369 9.44531 10.7369C9.44531 10.7369 10.1913 10.805 11.1624 10.2809C10.4592 10.0719 10.2395 10.4568 10.2395 10.4568H10.2398Z" fill="#D3201C"/>
<path d="M9.54297 10.7347C9.54297 10.7347 10.4067 11.4134 11.0452 10.3359C11.0452 10.3359 10.4006 10.7015 9.54297 10.7347Z" fill="#D3201C"/>
<g style="mix-blend-mode:screen">
<path d="M8.99697 13.0022C7.3633 12.2102 7.62841 9.20098 7.92562 7.76852C7.9513 7.64517 7.98144 7.52266 8.01605 7.40098C8.23344 7.37029 8.43242 7.30582 8.61353 7.21875L8.6512 7.24694C8.6512 7.24694 7.53074 9.94694 8.99697 13.0022Z" fill="#C4816A"/>
</g>
<g style="mix-blend-mode:multiply">
<path d="M13.0885 11.8753C13.0885 11.8753 12.4103 14.671 10.0078 15.0645L10.0223 13.2098C10.0223 13.2098 11.6292 13.478 13.0887 11.875L13.0885 11.8753Z" fill="#CC8E75"/>
</g>
<path d="M12.3359 18.2464L12.3513 18.2667L12.3359 18.2748L14.3918 19.3571L14.9759 15.8391L14.974 15.8358L14.6483 15.2229L14.6461 15.2188L12.3359 18.2464Z" fill="#FFBE58"/>
<g style="mix-blend-mode:screen">
<path d="M14.6486 15.2188L14.7449 15.4001L13.2345 18.7334L12.3516 18.2626L14.6486 15.2188Z" fill="#EAB26E"/>
</g>
<g style="mix-blend-mode:multiply">
<path d="M12.3509 18.2684L10.3798 19.8602C10.3104 19.9163 10.2065 19.8736 10.1962 19.7852L9.84375 16.7344L12.3509 18.2684Z" fill="#D38CB4"/>
</g>
<path d="M12.325 18.2804L12.3356 18.2748L12.3509 18.2667L12.3356 18.2464L10.0252 15.2188V15.219L9.69531 15.8391L9.69559 15.8394L10.2797 19.3571L12.325 18.2804Z" fill="#FFBE58"/>
<g style="mix-blend-mode:screen">
<path d="M10.0223 15.2188L12.3481 18.2665L11.4537 18.7373L9.99219 15.2751L10.0223 15.2188Z" fill="#EAB26E"/>
</g>
<g style="mix-blend-mode:multiply">
<path d="M10.0664 19.8516C11.0432 23.6977 12.2454 25.5044 12.3054 25.5786C12.2981 25.5608 12.4904 25.3702 12.4904 25.2197C12.4904 24.7071 11.9119 23.7507 11.529 23.0237C11.0217 22.0607 10.0667 19.8516 10.0667 19.8516H10.0664Z" fill="#D38CB4"/>
</g>
<g style="mix-blend-mode:screen" opacity="0.8">
<path d="M12.3061 25.5776H12.3041L12.3027 25.5771C8.12981 23.3908 6.64852 19.2567 6.23047 17.7338L6.27093 17.7188C6.27093 17.7188 8.34358 22.6167 12.3022 25.5743C12.3036 25.5754 12.3047 25.5765 12.3061 25.5776Z" fill="#CA6754"/>
</g>
<g style="mix-blend-mode:screen" opacity="0.8">
<path d="M14.8918 23.7109C14.8248 23.7751 14.7567 23.839 14.6875 23.9024C14.7056 23.872 14.7707 23.8097 14.8918 23.7109Z" fill="#CA6754"/>
</g>
<g style="mix-blend-mode:screen" opacity="0.8">
<path d="M18.5854 17.1497C18.5846 17.1545 18.5835 17.1595 18.5827 17.1642C18.5815 17.1687 18.5804 17.1743 18.579 17.1807C18.5785 17.1843 18.5776 17.188 18.5768 17.1916C18.5754 17.1977 18.574 17.2047 18.5723 17.212C18.526 17.4238 18.3505 18.1574 17.9506 19.1342C17.9436 19.1512 17.9366 19.1682 17.9296 19.1853C17.916 19.2179 17.9023 19.2506 17.8886 19.2832C17.8802 19.3033 17.8716 19.3231 17.8629 19.3432C17.8498 19.3742 17.8364 19.4054 17.8227 19.437C17.7555 19.591 17.6857 19.744 17.6132 19.8958C17.5942 19.9351 17.5752 19.9745 17.556 20.0135C17.5417 20.0428 17.5272 20.0722 17.5127 20.1012C17.5035 20.1199 17.494 20.1388 17.4845 20.1575C17.4708 20.1852 17.4566 20.2125 17.4427 20.2402C17.3782 20.3668 17.3115 20.4927 17.2428 20.6172C17.2247 20.6504 17.2063 20.6836 17.1876 20.7168C17.1845 20.7224 17.1812 20.7282 17.1778 20.7341C17.16 20.7662 17.1415 20.7986 17.1231 20.8307C17.0628 20.9359 17.0012 21.0405 16.9381 21.144C16.9258 21.1647 16.9133 21.1853 16.9004 21.2057C16.8879 21.2264 16.875 21.247 16.8622 21.2677C16.7609 21.4307 16.6537 21.595 16.541 21.76C16.5393 21.7625 16.5376 21.765 16.536 21.7675C16.3219 22.0792 16.0878 22.3923 15.831 22.7021C15.684 22.8796 15.5299 23.0557 15.3675 23.2298C15.3262 23.2742 15.2846 23.3183 15.2422 23.3624C16.5343 21.8403 17.852 17.9384 17.852 17.9384C17.852 17.9384 16.2122 18.4237 16.1545 18.2431C16.0973 18.0642 17.5758 16.2179 17.5758 16.2179L17.6288 16.2109L17.8961 16.2494L17.9564 16.2581L18.0371 16.2698L18.0187 16.2977L17.1502 17.5982L18.5857 17.1497H18.5854Z" fill="#CA6754"/>
</g>
<g style="mix-blend-mode:multiply" opacity="0.7">
<path d="M8.93921 15.9453C8.84935 16.0103 8.75056 16.067 8.67047 16.1362C8.18656 16.5534 7.71744 16.8523 7.08647 16.9449C7.04014 16.9519 6.99298 16.9578 6.94498 16.9622C6.10442 17.0418 5.26832 16.8152 4.45456 16.5905C4.45009 16.5894 4.44563 16.588 4.44116 16.5866C4.44563 16.5858 4.45037 16.5852 4.45484 16.5844L6.94498 16.2294L8.93921 15.9453Z" fill="#BA5952"/>
</g>
<g style="mix-blend-mode:screen" opacity="0.7">
<path d="M15.2086 13.8199C14.9935 13.763 14.7716 13.6823 14.5871 13.5609C14.4529 13.4725 14.3388 13.3614 14.2634 13.218C14.1141 12.9341 14.1532 12.5806 14.2894 12.29C14.3533 12.1539 14.4345 12.0266 14.5266 11.9063L14.9131 11.4844C14.9131 11.4844 14.9131 11.4847 14.9125 11.4852C14.8944 11.526 14.1928 13.1161 15.2086 13.8199Z" fill="#992F29"/>
</g>
<path d="M6.21657 12.2914C6.1002 12.2085 5.6015 12.0511 5.52922 12.0037C5.25294 11.8214 5.04364 11.5337 4.96913 11.21C4.8388 10.6451 5.13295 10.2377 5.45471 9.81771C5.79183 9.37761 6.06671 8.95287 6.09629 8.3819C6.1175 7.97585 6.09796 7.56087 6.21685 7.17212C6.40578 6.55454 7.06997 5.93584 7.72578 5.84375C7.48969 5.87696 7.15173 6.40636 7.03369 6.57687C6.73508 7.00803 6.76271 7.42496 6.75378 7.93008C6.74234 8.57975 6.52076 9.22385 6.13034 9.74348C5.89564 10.0555 5.59257 10.3429 5.51275 10.7252C5.40475 11.2424 5.7921 11.9891 6.21657 12.2914Z" fill="#992F29"/>
<g style="mix-blend-mode:multiply" opacity="0.32">
<path d="M17.7462 12.6771C17.7462 12.6771 17.744 12.69 17.7381 12.7128C17.6965 12.664 17.6641 12.6082 17.6438 12.5465C17.5891 12.3808 17.6265 12.1985 17.6865 12.0344C17.7487 11.8631 17.8355 11.7009 17.9427 11.5536C18.085 11.3585 18.265 11.1877 18.3688 10.9698C18.5507 10.5869 18.4358 10.2049 18.4207 9.80913C18.4684 9.80383 18.515 9.80327 18.5605 9.80746C18.9032 10.1437 20.2952 11.7043 17.7462 12.6771Z" fill="#601D0E"/>
</g>
<path d="M13.3069 10.5412C13.2678 10.5903 13.2273 10.6389 13.1841 10.6849C13.0261 10.8181 12.9067 10.8834 12.9067 10.8834C12.9756 10.7913 13.0222 10.6506 13.0535 10.4924C13.1486 10.0079 13.0267 9.51118 12.7476 9.10374C12.4596 8.68346 12.4872 8.10913 12.5082 7.90625C12.5313 7.91155 12.5472 7.93248 12.5601 7.95285C12.5687 7.96709 12.5768 7.9816 12.5844 7.99639C12.6483 8.12058 12.6731 8.26262 12.7183 8.39602C12.912 8.967 13.4788 9.31471 13.5608 9.94011C13.591 10.1698 13.445 10.3679 13.3069 10.5412Z" fill="#992F29"/>
<g style="mix-blend-mode:screen" opacity="0.8">
<path d="M15.356 9.16752C15.3301 9.18287 15.2907 9.18733 15.2452 9.17785C15.1026 9.14799 15.0036 9.01822 14.8718 8.95599C14.7105 8.87952 14.5224 8.91161 14.3441 8.91719C14.2863 8.91915 14.2272 8.91775 14.1733 8.8971C14.1195 8.87645 14.0712 8.83347 14.0583 8.7771C14.014 8.5798 14.3865 8.57812 14.5015 8.57812C14.7262 8.57812 14.9463 8.6638 15.1247 8.79803C15.2156 8.8664 15.2952 8.94817 15.3624 9.04027C15.4049 9.09831 15.3951 9.14491 15.356 9.1678V9.16752Z" fill="#CC8E75"/>
</g>
<path d="M14.4754 10.4029C14.4876 10.378 14.4574 10.338 14.4077 10.3136C14.3581 10.2891 14.3079 10.2894 14.2956 10.3143C14.2834 10.3392 14.3137 10.3792 14.3633 10.4037C14.4129 10.4281 14.4631 10.4278 14.4754 10.4029Z" fill="#FFCE8D"/>
<g style="mix-blend-mode:multiply">
<path d="M12.5177 7.82884C12.5177 7.82884 12.5133 7.85535 12.5085 7.90223V7.90363L12.4999 7.95777C12.4999 7.95777 10.531 7.83805 10.0541 6.17674C10.0541 6.17674 9.80098 6.83981 8.75 7.14623C9.54758 6.58419 10.1013 5.5 10.1013 5.5C10.1013 5.5 10.4378 7.4694 12.5174 7.82856L12.5177 7.82884Z" fill="#CC8E75"/>
</g>
<g style="mix-blend-mode:multiply" opacity="0.32">
<path d="M10.0289 13.4963C10.027 13.5198 10.0253 13.5438 10.0253 13.5678V14.2149C10.0253 14.2174 10.0245 14.2635 10.0253 14.2635C9.70717 14.2308 8.7321 14.0815 8.44047 13.4614C8.44047 13.4614 8.43712 13.4631 8.43098 13.4659C8.38242 13.2932 8.47396 13.1704 8.6361 13.1162C8.7254 13.0864 8.82084 13.0749 8.91461 13.0696C9.01507 13.0638 9.13368 13.0526 9.22968 13.0813C9.41331 13.1369 9.60419 13.1877 9.79814 13.1712C9.86372 13.1656 9.93935 13.1559 9.98623 13.2019C10.0066 13.222 10.0172 13.2496 10.0247 13.277C10.0454 13.3518 10.0351 13.4229 10.0289 13.4958V13.4963Z" fill="#601D0E"/>
</g>
<path d="M14.987 4.69341C14.9912 4.70931 14.9934 4.7255 14.9928 4.74196C14.992 4.78048 14.9767 4.81759 14.9577 4.85136C14.862 5.02271 14.6638 5.13127 14.4679 5.11983C14.2151 5.10504 13.9301 4.92141 13.703 4.81787C13.4407 4.69843 13.1968 4.48466 12.9595 4.31861C12.5091 4.00354 12.035 3.68847 11.4838 3.5894C11.1266 3.52522 10.7585 3.55591 10.4019 3.62261C10.2498 3.6508 10.0768 3.6801 9.9375 3.6321C10.0929 3.52075 10.2858 3.39964 10.5107 3.2908C10.5213 3.28578 10.5316 3.28075 10.5422 3.27573C10.5986 3.24922 10.6547 3.22438 10.7108 3.2015C10.725 3.19564 10.739 3.19006 10.7529 3.18447C10.8481 3.14652 10.9449 3.11303 11.0432 3.08373C11.7581 2.86605 12.5354 2.95117 13.2194 3.23359C13.854 3.49564 14.6133 3.97452 14.9437 4.59434C14.9605 4.62587 14.9778 4.6588 14.9864 4.69313L14.987 4.69341Z" fill="#992F29"/>
<g style="mix-blend-mode:multiply">
<path d="M14.624 14.0316C14.4354 14.0146 14.2774 13.9448 14.1323 13.8212C13.75 13.4944 13.7667 12.9151 14.0698 12.5391C14.1192 12.4778 14.175 12.4217 14.2177 12.3555C14.2239 12.346 14.2319 12.3351 14.2434 12.336C14.2573 12.3371 14.2626 12.355 14.2629 12.3689C14.2654 12.4973 14.1906 12.6268 14.1714 12.7535C14.1488 12.9028 14.1968 13.0825 14.2657 13.2137C14.3411 13.3571 14.4552 13.4682 14.5894 13.5566C14.6101 13.5703 14.6079 13.7743 14.6109 13.8058C14.6179 13.8809 14.6218 13.9582 14.6266 14.0319C14.6257 14.0319 14.6249 14.0319 14.624 14.0319V14.0316Z" fill="#CC8E75"/>
</g>
<path d="M14.4237 9.98508C14.4069 9.98508 14.391 9.97475 14.3846 9.95829C14.3458 9.85727 14.3595 9.76294 14.424 9.68564C14.5652 9.51624 14.765 9.67085 14.8504 9.73671C14.8576 9.74229 14.8671 9.7501 14.878 9.75903C15.0134 9.87038 15.0538 9.87847 15.0658 9.87317C15.0658 9.87317 15.075 9.86312 15.0723 9.81792C15.0639 9.68759 15.0234 9.55978 14.9548 9.44843C14.8992 9.35801 14.8336 9.29299 14.76 9.25559C14.6009 9.17494 14.3961 9.21317 14.2169 9.26145C14.1946 9.26759 14.1717 9.25419 14.1656 9.23187C14.1594 9.20954 14.1728 9.18666 14.1951 9.18052C14.3896 9.12833 14.6135 9.08731 14.7977 9.1808C14.8853 9.22517 14.962 9.30052 15.0259 9.40433C15.1016 9.52712 15.1462 9.66834 15.1554 9.81234C15.1599 9.8821 15.1426 9.92759 15.1038 9.9474C15.0307 9.9848 14.926 9.90666 14.8247 9.82322C14.8147 9.81484 14.8057 9.80759 14.799 9.80257C14.6662 9.69987 14.5624 9.64963 14.4882 9.73866C14.443 9.7928 14.4349 9.85475 14.4628 9.92787C14.4711 9.94936 14.4603 9.97364 14.4388 9.98201C14.4337 9.98397 14.4287 9.9848 14.4237 9.9848V9.98508Z" fill="#231F20"/>
<path d="M9.5308 9.89235C9.51043 9.89235 9.49033 9.89012 9.47079 9.88538C9.40437 9.86947 9.35023 9.82621 9.31005 9.757C9.20289 9.57226 9.20958 9.29096 9.32986 8.92091C9.42782 8.61923 9.58661 8.34742 9.71358 8.14453C9.72586 8.125 9.75182 8.11914 9.77135 8.13142C9.79089 8.1437 9.79675 8.16965 9.78447 8.18919C9.65972 8.38817 9.50456 8.65412 9.4094 8.94714C9.29833 9.28872 9.28912 9.5544 9.38233 9.71542C9.41107 9.76481 9.44623 9.79384 9.49005 9.80444C9.60363 9.83151 9.76186 9.72798 9.84698 9.67244C9.86623 9.65988 9.89219 9.66519 9.90503 9.68473C9.91759 9.70398 9.91229 9.72993 9.89275 9.74277C9.77945 9.81672 9.65136 9.89291 9.5308 9.89291V9.89235Z" fill="#231F20"/>
<path d="M10.1571 13.2505C10.1136 13.2505 10.0698 13.25 10.0251 13.2486C10.002 13.248 9.98383 13.2288 9.98439 13.2056C9.98495 13.1825 10.0042 13.1638 10.0274 13.1649C11.6649 13.2109 12.6311 12.3665 13.0606 11.8586C13.0756 11.841 13.1019 11.8387 13.1195 11.8535C13.137 11.8686 13.1393 11.8948 13.1245 11.9124C12.6969 12.4181 11.7506 13.2503 10.1569 13.2503L10.1571 13.2505Z" fill="#231F20"/>
<path d="M14.5305 11.9388C14.5081 11.9388 14.4894 11.9209 14.4886 11.8983L14.4688 11.3558C14.4679 11.3326 14.4861 11.3134 14.509 11.3125C14.5316 11.3114 14.5514 11.3298 14.5522 11.3527L14.572 11.8952C14.5729 11.9184 14.5547 11.9377 14.5318 11.9385C14.5313 11.9385 14.5307 11.9385 14.5302 11.9385L14.5305 11.9388Z" fill="#231F20"/>
<path d="M14.6119 14.2332C14.5896 14.2332 14.5709 14.2153 14.5701 14.1927L14.5469 13.5589C14.5461 13.5358 14.5642 13.5165 14.5871 13.5157C14.61 13.5146 14.6295 13.533 14.6303 13.5559L14.6535 14.1896C14.6543 14.2128 14.6362 14.2321 14.6133 14.2329C14.6128 14.2329 14.6122 14.2329 14.6116 14.2329L14.6119 14.2332Z" fill="#231F20"/>
<path d="M14.6499 15.2534C14.6275 15.2534 14.6088 15.2355 14.608 15.2129L14.5703 14.184C14.5695 14.1608 14.5876 14.1416 14.6105 14.1407C14.6331 14.1391 14.6529 14.158 14.6538 14.1809L14.6915 15.2098C14.6923 15.233 14.6742 15.2523 14.6513 15.2531C14.6507 15.2531 14.6501 15.2531 14.6496 15.2531L14.6499 15.2534Z" fill="#231F20"/>
<path d="M9.66675 15.8774C9.64638 15.8774 9.62824 15.8623 9.62545 15.8414C9.6221 15.8185 9.638 15.7973 9.66088 15.7939L9.6927 15.7894C9.71558 15.7864 9.73679 15.802 9.74014 15.8249C9.74349 15.8478 9.72758 15.869 9.7047 15.8723L9.67289 15.8768C9.67093 15.8768 9.66898 15.8771 9.66703 15.8771L9.66675 15.8774Z" fill="#231F20"/>
<path d="M17.1373 16.1827C17.1353 16.1827 17.1334 16.1827 17.1314 16.1824L15.0085 15.8802C14.9857 15.8769 14.9698 15.8556 14.9731 15.8328C14.9765 15.8099 14.9974 15.794 15.0205 15.7973L17.1434 16.0996C17.1663 16.1029 17.1822 16.1241 17.1789 16.147C17.1758 16.1679 17.1579 16.183 17.1376 16.183L17.1373 16.1827Z" fill="#231F20"/>
<path d="M15.013 15.8702C15.0111 15.8702 15.0091 15.8702 15.0072 15.8699L14.9695 15.8646C14.9466 15.8612 14.9307 15.84 14.934 15.8171C14.9374 15.7943 14.9586 15.7783 14.9815 15.7817L15.0192 15.787C15.042 15.7903 15.0579 15.8116 15.0546 15.8344C15.0515 15.8554 15.0337 15.8704 15.0133 15.8704L15.013 15.8702Z" fill="#231F20"/>
<path d="M25.229 27.5982H12.1395C12.1164 27.5982 12.0977 27.5795 12.0977 27.5564C12.0977 27.5332 12.1164 27.5145 12.1395 27.5145H25.1871L25.1846 22.8515L21.5031 17.4473C21.199 17.0008 20.7184 16.6964 20.1848 16.6118L17.1298 16.177C17.107 16.1737 17.0911 16.1525 17.0944 16.1296C17.0978 16.1067 17.119 16.0911 17.1418 16.0941L20.1974 16.5292C20.7544 16.6174 21.2553 16.935 21.5724 17.4005L25.2611 22.8153C25.2658 22.8222 25.2684 22.8303 25.2684 22.8387L25.2709 27.5566C25.2709 27.5678 25.2664 27.5784 25.2586 27.5862C25.2508 27.594 25.2402 27.5985 25.229 27.5985V27.5982Z" fill="#231F20"/>
<path d="M6.948 16.2681C6.92762 16.2681 6.90949 16.253 6.9067 16.2321C6.90335 16.2092 6.91925 16.188 6.94214 16.1847L9.66 15.7973C9.68288 15.794 9.70409 15.8099 9.70744 15.8328C9.71079 15.8556 9.69488 15.8769 9.672 15.8802L6.95414 16.2676C6.95218 16.2676 6.95023 16.2678 6.94828 16.2678L6.948 16.2681Z" fill="#231F20"/>
<path d="M12.1402 27.6047H-2.03626C-2.05943 27.6047 -2.07812 27.586 -2.07812 27.5628V24.3527C-2.07812 24.3438 -2.07533 24.3348 -2.06975 24.3276L3.12625 17.3444C3.44801 16.9119 3.91853 16.6272 4.45099 16.5429L6.94169 16.1879C6.96485 16.1846 6.98578 16.2005 6.98913 16.2234C6.99248 16.2463 6.97657 16.2675 6.95369 16.2708L4.46355 16.6258C3.95341 16.7065 3.50215 16.9797 3.1935 17.3944L-1.99412 24.3664V27.5207H12.1405C12.1636 27.5207 12.1823 27.5394 12.1823 27.5626C12.1823 27.5857 12.1636 27.6044 12.1405 27.6044L12.1402 27.6047Z" fill="#231F20"/>
<path d="M10.0262 13.2403C10.0031 13.2403 9.98438 13.2216 9.98438 13.1984C9.98438 13.1752 10.0031 13.1562 10.0262 13.1562C10.0494 13.1562 10.0681 13.1747 10.0681 13.1978V13.1987C10.0681 13.2218 10.0494 13.2405 10.0262 13.2405V13.2403Z" fill="#231F20"/>
<path d="M10.0262 15.2505C10.0031 15.2505 9.98438 15.2318 9.98438 15.2086V14.2606C9.98438 14.2374 10.0031 14.2188 10.0262 14.2188C10.0494 14.2188 10.0681 14.2374 10.0681 14.2606V15.2086C10.0681 15.2318 10.0494 15.2505 10.0262 15.2505Z" fill="#231F20"/>
<path d="M10.0262 14.3015C10.0031 14.3015 9.98438 14.2828 9.98438 14.2597V13.1981C9.98438 13.1749 10.0031 13.1562 10.0262 13.1562C10.0494 13.1562 10.0681 13.1749 10.0681 13.1981V14.2597C10.0681 14.2828 10.0494 14.3015 10.0262 14.3015Z" fill="#231F20"/>
<path d="M10.0264 13.2438C10.0264 13.2438 10.0256 13.2438 10.0253 13.2438C9.90056 13.2401 9.77386 13.2318 9.64856 13.2184C9.0773 13.1578 8.62074 12.8986 8.29172 12.4479C7.90242 11.9146 7.69228 11.1223 7.66661 10.0936C7.64121 9.06525 7.81256 8.11446 7.88735 7.75362C7.91274 7.63055 7.94344 7.50581 7.97832 7.3833C7.98279 7.36739 7.99618 7.35567 8.01265 7.35315C9.42084 7.15334 10.0577 5.49706 10.0638 5.48031C10.0705 5.46273 10.0878 5.45185 10.1071 5.45324C10.1258 5.45492 10.1411 5.46915 10.1445 5.48785C10.1453 5.49259 10.2318 5.98069 10.5684 6.50478C10.8779 6.98674 11.4686 7.59957 12.5263 7.78236C12.5489 7.78627 12.5643 7.80776 12.5604 7.83037C12.5593 7.83762 12.4421 8.57381 12.7836 9.07223C13.08 9.50479 13.1911 10.0091 13.0959 10.4924C13.0764 10.5915 13.0521 10.6774 13.0233 10.7494C13.3326 10.5248 14.05 9.87371 13.8745 8.77362C13.872 8.75799 13.8784 8.74236 13.8913 8.73315C14.0727 8.60227 14.2847 8.53306 14.5041 8.53306C15.1097 8.53306 15.6025 9.06078 15.6025 9.70962C15.6025 10.3585 15.1496 10.8463 14.5713 10.8839C14.5487 10.8856 14.5284 10.868 14.527 10.8449C14.5256 10.8217 14.5429 10.8019 14.566 10.8005C15.1005 10.7659 15.5191 10.2867 15.5191 9.7099C15.5191 9.13306 15.0639 8.61706 14.5044 8.61706C14.311 8.61706 14.1237 8.67566 13.9613 8.78673C14.0713 9.5285 13.7886 10.0646 13.5304 10.385C13.248 10.7355 12.9413 10.9054 12.9282 10.9124C12.9109 10.9219 12.8894 10.918 12.8766 10.9032C12.8637 10.8884 12.8629 10.8664 12.8746 10.8507C12.9338 10.772 12.9804 10.6462 13.0139 10.4765C13.1046 10.0155 12.9982 9.53353 12.7144 9.11967C12.3971 8.65669 12.4507 8.02488 12.4719 7.85771C11.4078 7.66125 10.8103 7.03836 10.4958 6.5472C10.2527 6.16794 10.1383 5.81409 10.0909 5.6313C10.0192 5.79009 9.87126 6.08395 9.6374 6.39288C9.32624 6.80395 8.79963 7.31548 8.05144 7.43185C8.02019 7.54404 7.99256 7.6579 7.96912 7.77036C7.89489 8.12841 7.72465 9.07166 7.75005 10.0914C7.77516 11.1027 7.98 11.8788 8.35898 12.3985C8.67349 12.8293 9.11024 13.0772 9.65693 13.1352C9.78 13.1483 9.90447 13.1567 10.0273 13.16C10.0504 13.1606 10.0686 13.1798 10.068 13.203C10.0674 13.2256 10.0487 13.2438 10.0261 13.2438H10.0264Z" fill="#231F20"/>
<path d="M10.0254 14.3054C10.024 14.3054 10.0226 14.3054 10.0212 14.3054C9.85626 14.2884 9.53115 14.2423 9.20854 14.1223C8.82203 13.9786 8.55748 13.7752 8.42129 13.517C8.34678 13.5505 8.16873 13.6234 7.94156 13.6722C7.5464 13.7568 7.19198 13.7247 6.91654 13.579C6.52947 13.3742 6.2892 12.9519 6.20213 12.3237C6.16306 12.2847 5.9197 12.194 5.77291 12.139C5.63031 12.0857 5.54101 12.0519 5.50864 12.0304C5.21701 11.8384 5.00631 11.5398 4.93068 11.2114C4.79199 10.6091 5.1277 10.171 5.4238 9.78421C5.72742 9.38765 6.02659 8.95202 6.05673 8.37155C6.06148 8.28002 6.06426 8.18598 6.06677 8.09528C6.07598 7.78188 6.08547 7.45788 6.17896 7.15174C6.37515 6.51072 7.03878 5.91546 7.6745 5.8016C7.63208 5.64337 7.52799 5.12374 7.83496 4.66942C8.11961 4.2483 8.67217 4.01053 9.47756 3.96253C9.59505 3.84365 10.5662 2.90625 11.9384 2.90625C11.9554 2.90625 11.9724 2.90625 11.9898 2.90681C13.0597 2.92495 14.0976 3.49983 15.0743 4.61471C15.2295 4.61416 16.2305 4.6309 16.9081 5.30653C17.3638 5.76113 17.5801 6.41165 17.5516 7.23993C17.6378 7.29211 17.9526 7.49723 18.2242 7.85974C18.5094 8.24095 18.7943 8.87248 18.5423 9.72476C18.6791 9.84951 19.4158 10.5631 19.2763 11.3548C19.1791 11.906 18.6777 12.3597 17.7863 12.7041C17.7595 12.8205 17.6161 13.3309 17.1031 13.6658C16.6335 13.9728 16.0003 14.0372 15.2208 13.8578C15.16 13.91 14.9406 14.0883 14.6278 14.2253C14.6066 14.2348 14.582 14.225 14.5725 14.2038C14.5633 14.1826 14.5728 14.1581 14.594 14.1486C14.9434 13.9956 15.1784 13.7833 15.1809 13.7813C15.1912 13.7721 15.2052 13.7682 15.2186 13.7716C15.9835 13.9516 16.6019 13.8927 17.056 13.5969C17.5954 13.2452 17.7076 12.6715 17.7087 12.6659C17.7115 12.6516 17.7213 12.6396 17.735 12.6343C18.6104 12.3003 19.101 11.8649 19.1937 11.3409C19.2676 10.9214 19.0678 10.5182 18.887 10.2536C18.6888 9.96365 18.4695 9.77221 18.4672 9.77026C18.4547 9.75937 18.4497 9.74207 18.4547 9.72644C18.6595 9.05863 18.5593 8.44746 18.1572 7.91025C17.8566 7.50867 17.4922 7.30216 17.4885 7.30021C17.4749 7.2924 17.4665 7.2776 17.4671 7.26197C17.5 6.44625 17.2921 5.80858 16.8495 5.36681C16.1437 4.66216 15.0682 4.69872 15.0576 4.69927C15.0447 4.69983 15.0327 4.69453 15.0244 4.68504C14.0604 3.57937 13.0393 3.00951 11.9898 2.99109C11.9727 2.99081 11.9557 2.99053 11.9387 2.99053C10.5182 2.99053 9.53729 4.02197 9.52724 4.03258C9.51998 4.04039 9.50966 4.04514 9.49905 4.04569C8.71263 4.08979 8.17655 4.31528 7.90529 4.71602C7.56901 5.21304 7.76631 5.81639 7.76826 5.82253C7.77217 5.83425 7.77078 5.84737 7.76436 5.85797C7.75794 5.86858 7.74677 5.87583 7.7345 5.87751C7.11357 5.96485 6.45217 6.54755 6.25961 7.17658C6.16947 7.47183 6.15998 7.78997 6.15105 8.09806C6.14826 8.18932 6.14576 8.28365 6.14073 8.3763C6.1092 8.98104 5.80222 9.42867 5.4905 9.83555C5.13441 10.3002 4.89161 10.6694 5.01245 11.193C5.08333 11.5008 5.28119 11.7807 5.55496 11.961C5.58119 11.9783 5.69366 12.0204 5.8025 12.0609C6.19124 12.206 6.27692 12.2492 6.28445 12.3056C6.36678 12.9092 6.59254 13.313 6.95561 13.505C7.58045 13.8357 8.41403 13.4289 8.42213 13.4247C8.43217 13.4197 8.44389 13.4188 8.4545 13.4227C8.4651 13.4263 8.47375 13.4342 8.47877 13.4445C8.76287 14.0481 9.73794 14.1927 10.0301 14.2225C10.053 14.2248 10.0698 14.2454 10.0675 14.2686C10.0653 14.2901 10.0472 14.3062 10.0259 14.3062L10.0254 14.3054Z" fill="#231F20"/>
<path d="M14.5262 11.9398C14.5173 11.9398 14.5083 11.937 14.5008 11.9311C14.4824 11.9172 14.479 11.8907 14.493 11.8725C14.6886 11.6175 14.9339 11.3934 15.1895 11.1668C15.2068 11.1514 15.2333 11.1531 15.2487 11.1704C15.264 11.1877 15.2624 11.2142 15.2451 11.2296C14.9833 11.4617 14.7508 11.6741 14.5594 11.9236C14.551 11.9342 14.5387 11.9401 14.5262 11.9401V11.9398Z" fill="#231F20"/>
<path d="M15.2101 13.8581C15.2064 13.8581 15.2028 13.8576 15.1994 13.8568C14.9388 13.7878 14.7314 13.7013 14.5657 13.5925C14.5464 13.5796 14.5411 13.5537 14.5537 13.5344C14.5665 13.5152 14.5925 13.5099 14.6117 13.5224C14.7697 13.6265 14.9689 13.7094 15.2209 13.7758C15.2433 13.7817 15.2567 13.8046 15.2508 13.8269C15.2458 13.8456 15.2287 13.8581 15.2103 13.8581H15.2101Z" fill="#231F20"/>
<path d="M14.5895 13.5979C14.5817 13.5979 14.5736 13.5957 14.5667 13.5909C14.4151 13.491 14.3015 13.3705 14.2287 13.2323C14.0872 12.9633 14.0967 12.6028 14.2538 12.2673C14.3155 12.1359 14.3947 12.0078 14.4958 11.8758C14.5097 11.8574 14.536 11.854 14.5544 11.868C14.5728 11.8819 14.5761 11.9084 14.5622 11.9266C14.4648 12.0536 14.3886 12.1766 14.3297 12.3025C14.1835 12.6142 14.1737 12.9468 14.3029 13.193C14.3699 13.3202 14.4712 13.4274 14.6127 13.5206C14.632 13.5335 14.6373 13.5594 14.6247 13.5787C14.6166 13.5909 14.6032 13.5974 14.5898 13.5974L14.5895 13.5979Z" fill="#231F20"/>
<path d="M12.3388 18.2831C12.3299 18.2831 12.3209 18.2803 12.3134 18.2744C12.295 18.2605 12.2914 18.2342 12.3056 18.2158L14.6157 15.1882C14.6244 15.1767 14.6386 15.1709 14.6523 15.172C14.6665 15.1731 14.6791 15.1815 14.6858 15.1941L14.688 15.1982C14.6989 15.2186 14.6911 15.244 14.6707 15.2549C14.6704 15.2549 14.6701 15.2552 14.6699 15.2555L12.372 18.2669C12.3639 18.2778 12.3514 18.2834 12.3388 18.2834V18.2831Z" fill="#231F20"/>
<path d="M14.3946 19.3865C14.3879 19.3865 14.3812 19.3848 14.3751 19.3817L12.3192 18.2995C12.2988 18.2886 12.291 18.2635 12.3016 18.2428C12.3125 18.2225 12.3376 18.2143 12.3583 18.2252L14.3628 19.2804L14.9357 15.8303C14.9327 15.813 14.941 15.7948 14.9572 15.7862C14.9776 15.7753 15.003 15.7831 15.0139 15.8035L15.0156 15.8068C15.02 15.8149 15.0214 15.8241 15.02 15.8333L14.4359 19.3513C14.4337 19.3644 14.4253 19.3758 14.4133 19.382C14.4075 19.3848 14.401 19.3865 14.3946 19.3865Z" fill="#231F20"/>
<path d="M14.9774 15.8686C14.9623 15.8686 14.9478 15.8605 14.9402 15.8463L14.6143 15.2334C14.6034 15.2131 14.6112 15.1877 14.6316 15.1768C14.652 15.1659 14.6774 15.1737 14.6882 15.1941L15.0142 15.8069C15.0251 15.8273 15.0173 15.8527 14.9969 15.8636C14.9908 15.8669 14.9841 15.8686 14.9774 15.8686Z" fill="#231F20"/>
<path d="M12.3387 18.3152C12.3237 18.3152 12.3092 18.3071 12.3016 18.2928C12.296 18.282 12.2955 18.27 12.2994 18.2591C12.2933 18.2423 12.2986 18.2231 12.3133 18.2116C12.3318 18.1977 12.358 18.2013 12.372 18.2195L12.3873 18.2395C12.3948 18.2493 12.3976 18.2619 12.3948 18.2739C12.392 18.2859 12.3842 18.2962 12.3734 18.3018L12.358 18.3099C12.3519 18.3132 12.3452 18.3146 12.3385 18.3146L12.3387 18.3152Z" fill="#231F20"/>
<path d="M9.69812 15.8759C9.67998 15.8759 9.66324 15.8639 9.65794 15.8457C9.65487 15.8354 9.65598 15.8239 9.66128 15.8145L9.99115 15.1941C10.002 15.1737 10.0274 15.1659 10.0478 15.1768C10.0682 15.1877 10.076 15.2131 10.0651 15.2334L9.73608 15.8524C9.73106 15.8627 9.72184 15.8711 9.70984 15.8745C9.70594 15.8756 9.70203 15.8761 9.69812 15.8761V15.8759Z" fill="#231F20"/>
<path d="M12.3363 18.2832C12.3238 18.2832 12.3112 18.2776 12.3031 18.2667L9.99297 15.2391C9.97901 15.2207 9.98236 15.1944 10.0008 15.1805C10.0192 15.1665 10.0454 15.1699 10.0594 15.1883L12.3695 18.2159C12.3835 18.2343 12.3801 18.2606 12.3617 18.2745C12.3542 18.2804 12.3453 18.2832 12.3363 18.2832Z" fill="#231F20"/>
<path d="M12.3272 18.3159C12.3121 18.3159 12.2976 18.3078 12.2901 18.2936C12.2792 18.2732 12.287 18.2478 12.3076 18.2369L12.318 18.2313C12.3383 18.2207 12.3637 18.2283 12.3746 18.2489C12.3855 18.2693 12.3777 18.2947 12.357 18.3056L12.3467 18.3112C12.3406 18.3145 12.3339 18.3159 12.3272 18.3159Z" fill="#231F20"/>
<path d="M10.2822 19.3908C10.2758 19.3908 10.2694 19.3894 10.2635 19.3863C10.2515 19.3804 10.2432 19.369 10.2409 19.3556L9.65685 15.8379C9.65294 15.8151 9.66857 15.7936 9.69117 15.7897C9.71406 15.7858 9.73555 15.8014 9.73945 15.824L10.3141 19.2845L12.3083 18.2346C12.3287 18.2237 12.3541 18.2315 12.3649 18.2522C12.3758 18.2725 12.3677 18.2979 12.3474 18.3088L10.3018 19.3855C10.2956 19.3888 10.2889 19.3902 10.2822 19.3902V19.3908Z" fill="#231F20"/>
<path d="M12.3075 25.615C12.2924 25.615 12.2779 25.6069 12.2704 25.5927C12.2597 25.5723 12.2676 25.5469 12.2879 25.536C13.4642 24.9198 14.525 24.0952 15.4409 23.085C16.174 22.2765 16.8164 21.3478 17.3503 20.325C17.8255 19.4146 18.125 18.5964 18.2927 18.0704C18.4283 17.6451 18.5017 17.337 18.5304 17.2066L17.163 17.6339C17.1463 17.6392 17.1276 17.6333 17.117 17.6191C17.1064 17.6049 17.1058 17.5856 17.1156 17.5708L17.9659 16.2977L17.1298 16.1771C17.1069 16.1738 17.091 16.1526 17.0944 16.1297C17.0977 16.1068 17.1189 16.0906 17.1418 16.0943L18.0435 16.224C18.0577 16.226 18.07 16.2352 18.0758 16.2483C18.0817 16.2614 18.0803 16.2768 18.0725 16.2885L17.2512 17.5184L18.5737 17.105C18.5877 17.1006 18.603 17.1039 18.6142 17.1137C18.6253 17.1235 18.6301 17.1383 18.6273 17.1528C18.6245 17.167 18.3404 18.6078 17.4259 20.361C16.8887 21.3904 16.2421 22.3253 15.5042 23.1397C14.5813 24.1577 13.5125 24.9888 12.327 25.61C12.3209 25.6133 12.3142 25.6147 12.3075 25.6147V25.615Z" fill="#231F20"/>
<path d="M12.3076 25.6191C12.2992 25.6191 12.2908 25.6166 12.2833 25.6113C12.2643 25.5979 12.2601 25.5717 12.2732 25.553C12.3034 25.5106 13.0195 24.4923 13.7068 22.7802C14.3302 21.2269 15.0558 18.7621 14.9716 15.84C14.971 15.8168 14.9891 15.7976 15.0123 15.797C15.0352 15.7951 15.0547 15.8146 15.0553 15.8378C15.1401 18.7744 14.4112 21.2511 13.7847 22.8117C13.0937 24.5327 12.3723 25.5589 12.3419 25.6019C12.3338 25.6133 12.3209 25.6194 12.3078 25.6194L12.3076 25.6191Z" fill="#231F20"/>
<path d="M12.3061 25.6182C12.2922 25.6182 12.2782 25.6112 12.2704 25.5984C12.2631 25.5867 11.5401 24.4015 10.8564 22.6149C10.2251 20.9655 9.49896 18.4506 9.62343 15.8368C9.62455 15.8136 9.64324 15.7961 9.66724 15.7969C9.6904 15.798 9.70827 15.8176 9.70715 15.8407C9.58324 18.4394 10.306 20.9416 10.9339 22.583C11.6149 24.363 12.3346 25.5429 12.3416 25.5546C12.3536 25.5744 12.3474 25.6001 12.3279 25.6121C12.3209 25.6163 12.3134 25.6182 12.3061 25.6182Z" fill="#231F20"/>
<path d="M12.3065 25.6213C12.3001 25.6213 12.2934 25.6199 12.287 25.6166C11.1012 24.9957 10.0354 24.1646 9.11923 23.1465C8.38667 22.3325 7.7476 21.3976 7.21988 20.3681C6.32155 18.6153 6.05393 17.1747 6.05142 17.1605C6.04891 17.146 6.05393 17.1315 6.06481 17.1217C6.0757 17.112 6.09104 17.1086 6.105 17.1131L7.42751 17.5264L6.6062 16.2965C6.59811 16.2845 6.597 16.2694 6.60286 16.2563C6.60872 16.2432 6.621 16.234 6.63523 16.232L6.94193 16.1879C6.96453 16.1846 6.98602 16.2005 6.98937 16.2234C6.99272 16.2463 6.97681 16.2675 6.95392 16.2708L6.71309 16.3054L7.56342 17.5786C7.57318 17.5933 7.57262 17.6126 7.56202 17.6268C7.55141 17.6411 7.533 17.6469 7.51597 17.6416L6.14769 17.2141C6.21216 17.5194 6.51299 18.8062 7.29578 20.3324C7.82016 21.3549 8.45504 22.2834 9.18258 23.0918C10.0918 24.1018 11.1492 24.9265 12.3257 25.5424C12.3461 25.553 12.3542 25.5784 12.3433 25.599C12.3358 25.6133 12.3213 25.6213 12.3062 25.6213H12.3065Z" fill="#231F20"/>
<path d="M12.3055 25.6173H12.3049C12.2818 25.617 12.2633 25.598 12.2636 25.5749C12.2781 24.628 12.2204 23.6605 12.1646 22.725C12.0658 21.0715 11.9726 19.5099 12.2843 18.266C12.2899 18.2437 12.3125 18.23 12.3351 18.2356C12.3574 18.2412 12.3711 18.2641 12.3655 18.2864C12.0568 19.5177 12.1498 21.0732 12.248 22.72C12.3041 23.6571 12.3619 24.626 12.3473 25.5763C12.3471 25.5992 12.3284 25.6176 12.3055 25.6176V25.6173Z" fill="#231F20"/>
<path d="M14.3513 10.6401C14.2352 10.6401 14.1406 10.5455 14.1406 10.4294C14.1406 10.3133 14.2352 10.2188 14.3513 10.2188C14.4674 10.2188 14.562 10.3133 14.562 10.4294C14.562 10.5455 14.4674 10.6401 14.3513 10.6401ZM14.3513 10.3025C14.2813 10.3025 14.2243 10.3594 14.2243 10.4294C14.2243 10.4995 14.2813 10.5564 14.3513 10.5564C14.4214 10.5564 14.4783 10.4995 14.4783 10.4294C14.4783 10.3594 14.4214 10.3025 14.3513 10.3025Z" fill="#231F20"/>
<path d="M14.3466 11.4432C14.1446 11.4432 13.9805 11.2788 13.9805 11.0771C13.9805 10.8753 14.1448 10.7109 14.3466 10.7109C14.4412 10.7109 14.5314 10.7472 14.6 10.8131C14.6167 10.829 14.6173 10.8555 14.6011 10.8722C14.5852 10.889 14.5587 10.8895 14.542 10.8734C14.4889 10.8226 14.4197 10.7947 14.3466 10.7947C14.1909 10.7947 14.0642 10.9214 14.0642 11.0771C14.0642 11.2328 14.1909 11.3595 14.3466 11.3595C14.3963 11.3595 14.4454 11.3461 14.4884 11.321C14.5082 11.3093 14.5339 11.316 14.5456 11.3361C14.5573 11.3559 14.5506 11.3815 14.5305 11.3933C14.4747 11.4259 14.4108 11.4432 14.3466 11.4432Z" fill="#231F20"/>
<path d="M14.5107 11.3944C14.4962 11.3944 14.4823 11.3869 14.4745 11.3738C14.4627 11.3537 14.4697 11.3283 14.4895 11.3166C14.5763 11.2661 14.6302 11.1726 14.6302 11.0727C14.6302 10.9951 14.5992 10.9228 14.5431 10.869C14.5264 10.853 14.5258 10.8265 14.542 10.8098C14.5582 10.793 14.5844 10.7925 14.6011 10.8087C14.674 10.8784 14.7139 10.9722 14.7139 11.0727C14.7139 11.2022 14.6441 11.3236 14.5317 11.3889C14.525 11.3928 14.5177 11.3944 14.5107 11.3944Z" fill="#231F20"/>
<path d="M9.545 10.7776C9.48556 10.7776 9.45068 10.7749 9.44426 10.7743C9.43142 10.7732 9.4197 10.7659 9.41272 10.755C9.40575 10.7442 9.40435 10.7305 9.40882 10.7182C9.41496 10.7012 9.56761 10.3057 10.2229 10.4068C10.2879 10.3197 10.5483 10.0493 11.1773 10.2365C11.1935 10.2413 11.2052 10.2555 11.2069 10.2722C11.2085 10.289 11.1999 10.3055 11.1851 10.3133C10.409 10.7319 9.78165 10.7776 9.545 10.7776ZM9.51709 10.6931C9.71049 10.695 10.3083 10.666 11.0506 10.2893C10.4726 10.1559 10.287 10.4595 10.279 10.4732C10.2703 10.4883 10.2533 10.4966 10.2357 10.4936C9.77105 10.4143 9.5824 10.5971 9.51709 10.6931Z" fill="#231F20"/>
<path d="M11.3202 10.4187C11.3158 10.4187 11.311 10.4178 11.3063 10.4164C11.2962 10.4131 11.0626 10.3285 11.0163 10.0726C11.0121 10.0497 11.0275 10.028 11.0501 10.0241C11.073 10.0202 11.0947 10.0349 11.0986 10.0578C11.136 10.266 11.3317 10.3366 11.3336 10.3375C11.3554 10.345 11.3668 10.369 11.3593 10.3908C11.3532 10.4081 11.337 10.4187 11.3197 10.4187H11.3202Z" fill="#231F20"/>
<path d="M10.1825 10.9846C9.97435 10.9846 9.7536 10.9112 9.52337 10.7652C9.50383 10.7529 9.49797 10.727 9.51053 10.7074C9.52309 10.6879 9.54876 10.682 9.5683 10.6946C9.86942 10.8858 10.1502 10.9444 10.4027 10.869C10.8088 10.7479 11.008 10.3181 11.01 10.3137C11.0195 10.2927 11.0443 10.2833 11.0655 10.2927C11.0864 10.3022 11.0959 10.3271 11.0864 10.3483C11.0778 10.3673 10.869 10.8174 10.4267 10.9491C10.3475 10.9728 10.2663 10.9846 10.1828 10.9846H10.1825Z" fill="#231F20"/>
<path d="M7.21248 5.80218C7.19155 5.80218 7.17341 5.78655 7.1709 5.76506C7.12625 5.38357 7.30095 5.00628 7.67602 4.67362C7.95593 4.42525 8.2442 4.29074 8.2562 4.28515C8.27713 4.27539 8.30197 4.2846 8.31173 4.30553C8.3215 4.32646 8.31229 4.35129 8.29136 4.36106C8.27992 4.36636 7.1536 4.89828 7.25406 5.7553C7.25685 5.77818 7.24039 5.79911 7.21722 5.8019C7.21555 5.8019 7.21388 5.8019 7.2122 5.8019L7.21248 5.80218Z" fill="#231F20"/>
<path d="M18.3193 12.7666C18.3031 12.7666 18.2878 12.7571 18.2808 12.7415C18.2716 12.7203 18.2814 12.6957 18.3026 12.6865C18.9757 12.3949 19.2084 11.2022 19.2107 11.1902C19.2149 11.1676 19.2369 11.1528 19.2595 11.157C19.2821 11.1611 19.2972 11.1832 19.2927 11.2058C19.2902 11.2184 19.2324 11.52 19.0868 11.8638C18.8892 12.3304 18.6366 12.633 18.3355 12.7633C18.3302 12.7655 18.3243 12.7666 18.319 12.7666H18.3193Z" fill="#231F20"/>
<path d="M9.27654 14.4356C9.27096 14.4356 9.26538 14.4345 9.2598 14.432C8.69914 14.1867 8.41366 13.5085 8.40166 13.4798C8.39273 13.4586 8.40305 13.434 8.42426 13.4251C8.44575 13.4162 8.47003 13.4265 8.47896 13.4477C8.48175 13.4544 8.76389 14.1239 9.29329 14.3552C9.3145 14.3644 9.32427 14.3893 9.31478 14.4102C9.3078 14.4258 9.29245 14.4353 9.27626 14.4353L9.27654 14.4356Z" fill="#231F20"/>
</g>
<rect x="0.5" y="0.5" width="23" height="23" rx="11.5" stroke="white"/>
<defs>
<clipPath id="clip0_11152_58899">
<rect width="24" height="24" rx="12" fill="white"/>
</clipPath>
</defs>
</svg>
