<svg width="21" height="21" viewBox="0 0 21 21" fill="none" xmlns="http://www.w3.org/2000/svg">
<path d="M15.451 6.50603C15.4015 6.49778 15.3438 6.49778 15.2943 6.50603C14.1558 6.46478 13.2483 5.53252 13.2483 4.37752C13.2483 3.19777 14.197 2.24902 15.3768 2.24902C16.5565 2.24902 17.5053 3.20602 17.5053 4.37752C17.497 5.53252 16.5895 6.46478 15.451 6.50603Z" stroke="#1B1B1B" stroke-width="1.2375" stroke-linecap="round" stroke-linejoin="round"/>
<path d="M14.6007 12.5122C15.7309 12.7019 16.9767 12.5039 17.8512 11.9182C19.0144 11.1427 19.0144 9.87216 17.8512 9.09666C16.9684 8.51091 15.7062 8.3129 14.5759 8.5109" stroke="#1B1B1B" stroke-width="1.2375" stroke-linecap="round" stroke-linejoin="round"/>
<path d="M5.52349 6.50603C5.57299 6.49778 5.63074 6.49778 5.68024 6.50603C6.81874 6.46478 7.72624 5.53252 7.72624 4.37752C7.72624 3.19777 6.77749 2.24902 5.59774 2.24902C4.41799 2.24902 3.46924 3.20602 3.46924 4.37752C3.47749 5.53252 4.38499 6.46478 5.52349 6.50603Z" stroke="#1B1B1B" stroke-width="1.2375" stroke-linecap="round" stroke-linejoin="round"/>
<path d="M6.37391 12.5122C5.24366 12.7019 3.99791 12.5039 3.12341 11.9182C1.96016 11.1427 1.96016 9.87216 3.12341 9.09666C4.00616 8.51091 5.26841 8.3129 6.39866 8.5109" stroke="#1B1B1B" stroke-width="1.2375" stroke-linecap="round" stroke-linejoin="round"/>
<path d="M10.5006 12.6711C10.4511 12.6628 10.3934 12.6628 10.3439 12.6711C9.20535 12.6298 8.29785 11.6976 8.29785 10.5426C8.29785 9.36281 9.2466 8.41406 10.4264 8.41406C11.6061 8.41406 12.5549 9.37106 12.5549 10.5426C12.5466 11.6976 11.6391 12.6381 10.5006 12.6711Z" stroke="#1B1B1B" stroke-width="1.2375" stroke-linecap="round" stroke-linejoin="round"/>
<path d="M8.10046 15.2701C6.93721 16.0456 6.93721 17.3161 8.10046 18.0916C9.42046 18.9744 11.582 18.9744 12.902 18.0916C14.0652 17.3161 14.0652 16.0456 12.902 15.2701C11.5902 14.3956 9.42046 14.3956 8.10046 15.2701Z" stroke="#1B1B1B" stroke-width="1.2375" stroke-linecap="round" stroke-linejoin="round"/>
</svg>
