<svg width="60" height="60" viewBox="0 0 60 60" fill="none" xmlns="http://www.w3.org/2000/svg">
<g clip-path="url(#clip0_11727_1794)">
<path d="M30 60C46.5685 60 60 46.5685 60 30C60 13.4315 46.5685 0 30 0C13.4315 0 0 13.4315 0 30C0 46.5685 13.4315 60 30 60Z" fill="#F0F0F0"/>
<path d="M6.20153 11.7344C3.84501 14.8004 2.0681 18.3341 1.03345 22.1731H16.6402L6.20153 11.7344Z" fill="#0052B4"/>
<path d="M58.9664 22.173C57.9318 18.3341 56.1547 14.8004 53.7983 11.7344L43.3599 22.173H58.9664Z" fill="#0052B4"/>
<path d="M1.03345 37.8262C2.06821 41.665 3.84513 45.1988 6.20153 48.2647L16.6399 37.8262H1.03345Z" fill="#0052B4"/>
<path d="M48.2645 6.20141C45.1985 3.84488 41.6649 2.06797 37.8259 1.0332V16.6399L48.2645 6.20141Z" fill="#0052B4"/>
<path d="M11.7354 53.7977C14.8013 56.1543 18.3351 57.9312 22.1739 58.9659V43.3594L11.7354 53.7977Z" fill="#0052B4"/>
<path d="M22.1738 1.0332C18.335 2.06797 14.8012 3.84488 11.7354 6.20129L22.1738 16.6398V1.0332Z" fill="#0052B4"/>
<path d="M37.8262 58.9659C41.665 57.9312 45.1988 56.1543 48.2647 53.7978L37.8262 43.3594V58.9659Z" fill="#0052B4"/>
<path d="M43.3599 37.8262L53.7983 48.2648C56.1547 45.1989 57.9318 41.665 58.9664 37.8262H43.3599Z" fill="#0052B4"/>
<path d="M59.7461 26.087H33.9132H33.9131V0.253945C32.6321 0.0871875 31.3262 0 30 0C28.6736 0 27.3679 0.0871875 26.087 0.253945V26.0868V26.0869H0.253945C0.0871875 27.3679 0 28.6738 0 30C0 31.3264 0.0871875 32.6321 0.253945 33.913H26.0868H26.0869V59.7461C27.3679 59.9128 28.6736 60 30 60C31.3262 60 32.6321 59.9129 33.913 59.7461V33.9132V33.9131H59.7461C59.9128 32.6321 60 31.3264 60 30C60 28.6738 59.9128 27.3679 59.7461 26.087Z" fill="#D80027"/>
<path d="M37.8262 37.8263L51.2132 51.2133C51.8289 50.5979 52.4162 49.9544 52.9766 49.2873L41.5155 37.8262H37.8262V37.8263Z" fill="#D80027"/>
<path d="M22.1738 37.8262H22.1735L8.78662 51.2131C9.40209 51.8288 10.0456 52.4161 10.7126 52.9765L22.1738 41.5151V37.8262Z" fill="#D80027"/>
<path d="M22.1739 22.1745V22.1743L8.78688 8.78711C8.17117 9.40258 7.58383 10.0461 7.02344 10.7131L18.4847 22.1744H22.1739V22.1745Z" fill="#D80027"/>
<path d="M37.8262 22.174L51.2133 8.78676C50.5979 8.17106 49.9544 7.58371 49.2873 7.02344L37.8262 18.4847V22.174Z" fill="#D80027"/>
</g>
<defs>
<clipPath id="clip0_11727_1794">
<rect width="60" height="60" fill="white"/>
</clipPath>
</defs>
</svg>
