<svg width="60" height="60" viewBox="0 0 60 60" fill="none" xmlns="http://www.w3.org/2000/svg">
<g clip-path="url(#clip0_11727_1947)">
<path d="M30 60C46.5685 60 60 46.5685 60 30C60 13.4315 46.5685 0 30 0C13.4315 0 0 13.4315 0 30C0 46.5685 13.4315 60 30 60Z" fill="#F0F0F0"/>
<path d="M60.0001 29.9993C60.0001 17.1003 51.8588 6.10402 40.4348 1.86523V58.1334C51.8588 53.8945 60.0001 42.8982 60.0001 29.9993Z" fill="#D80027"/>
<path d="M0 29.9993C0 42.8982 8.14137 53.8945 19.5653 58.1333V1.86523C8.14137 6.10402 0 17.1003 0 29.9993Z" fill="#0052B4"/>
</g>
<defs>
<clipPath id="clip0_11727_1947">
<rect width="60" height="60" fill="white"/>
</clipPath>
</defs>
</svg>
