<svg width="60" height="60" viewBox="0 0 60 60" fill="none" xmlns="http://www.w3.org/2000/svg">
<g clip-path="url(#clip0_11727_758)">
<path d="M1.86597 40.4348C6.10476 51.8587 17.101 60 30 60C42.8989 60 53.8952 51.8587 58.134 40.4348L30 37.8262L1.86597 40.4348Z" fill="#FFDA44"/>
<path d="M30 0C17.101 0 6.10476 8.14125 1.86597 19.5653L30 22.1739L58.134 19.5652C53.8952 8.14125 42.8989 0 30 0Z" fill="black"/>
<path d="M1.86598 19.5645C0.660117 22.8144 0 26.3296 0 29.9992C0 33.6688 0.660117 37.1839 1.86598 40.4339H58.1341C59.34 37.1839 60 33.6688 60 29.9992C60 26.3296 59.34 22.8144 58.134 19.5645H1.86598Z" fill="#D80027"/>
</g>
<defs>
<clipPath id="clip0_11727_758">
<rect width="60" height="60" fill="white"/>
</clipPath>
</defs>
</svg>
