<svg width="38" height="38" viewBox="0 0 38 38" fill="none" xmlns="http://www.w3.org/2000/svg">
<g id="_Icons">
<path id="Vector" d="M28.5 12.6665C28.5 10.1469 27.4991 7.73059 25.7175 5.94899C23.9359 4.16739 21.5196 3.1665 19 3.1665C16.4804 3.1665 14.0641 4.16739 12.2825 5.94899C10.5009 7.73059 9.5 10.1469 9.5 12.6665C9.5 23.7498 4.75 26.9165 4.75 26.9165H33.25C33.25 26.9165 28.5 23.7498 28.5 12.6665Z" stroke="#B1C2D5" stroke-width="1.4" stroke-linecap="round" stroke-linejoin="round"/>
<path id="Vector_2" d="M21.7401 33.25C21.4617 33.7299 21.0621 34.1282 20.5814 34.4051C20.1007 34.682 19.5557 34.8277 19.0009 34.8277C18.4461 34.8277 17.9011 34.682 17.4204 34.4051C16.9396 34.1282 16.5401 33.7299 16.2617 33.25" stroke="#B1C2D5" stroke-width="1.4" stroke-linecap="round" stroke-linejoin="round"/>
</g>
</svg>
