<svg width="24" height="24" viewBox="0 0 24 24" fill="none" xmlns="http://www.w3.org/2000/svg">
<g clip-path="url(#clip0_11671_1493)">
<path d="M12 24C18.6274 24 24 18.6274 24 12C24 5.37258 18.6274 0 12 0C5.37258 0 0 5.37258 0 12C0 18.6274 5.37258 24 12 24Z" fill="#6DA544"/>
<path d="M6.7832 14.3477C6.7832 15.2121 7.48398 15.9129 8.34841 15.9129H13.0441C13.0441 16.6332 13.628 17.2172 14.3484 17.2172H15.9136C16.634 17.2172 17.218 16.6332 17.218 15.9129V14.3477H6.7832Z" fill="#F0F0F0"/>
<path d="M17.3482 6.78125V10.4334C17.3482 11.0088 16.8801 11.4769 16.3047 11.4769V13.0421C17.7431 13.0421 18.9134 11.8718 18.9134 10.4334V6.78125H17.3482Z" fill="#F0F0F0"/>
<path d="M6.13137 10.4334C6.13137 11.0088 5.66328 11.4769 5.08789 11.4769V13.0421C6.52634 13.0421 7.69658 11.8718 7.69658 10.4334V6.78125H6.13137V10.4334Z" fill="#F0F0F0"/>
<path d="M15 6.78125H16.5652V10.4334H15V6.78125Z" fill="#F0F0F0"/>
<path d="M12.6524 8.86822C12.6524 9.01208 12.5354 9.12908 12.3915 9.12908C12.2477 9.12908 12.1307 9.01203 12.1307 8.86822V6.78125H10.5655V8.86822C10.5655 9.01208 10.4484 9.12908 10.3046 9.12908C10.1608 9.12908 10.0438 9.01203 10.0438 8.86822V6.78125H8.47852V8.86822C8.47852 9.87514 9.2977 10.6943 10.3046 10.6943C10.6924 10.6943 11.052 10.5725 11.3481 10.3655C11.6441 10.5724 12.0038 10.6943 12.3916 10.6943C12.4697 10.6943 12.5465 10.6888 12.622 10.6792C12.5111 11.1362 12.0995 11.4769 11.609 11.4769V13.0421C13.0474 13.0421 14.2177 11.8718 14.2177 10.4334V8.86822V6.78125H12.6525V8.86822H12.6524Z" fill="#F0F0F0"/>
<path d="M8.47852 11.4766H10.8263V13.0418H8.47852V11.4766Z" fill="#F0F0F0"/>
</g>
<defs>
<clipPath id="clip0_11671_1493">
<rect width="24" height="24" fill="white"/>
</clipPath>
</defs>
</svg>
