<svg width="24" height="24" viewBox="0 0 24 24" fill="none" xmlns="http://www.w3.org/2000/svg">
<g clip-path="url(#clip0_11671_1345)">
<path d="M12 24C18.6274 24 24 18.6274 24 12C24 5.37258 18.6274 0 12 0C5.37258 0 0 5.37258 0 12C0 18.6274 5.37258 24 12 24Z" fill="#F0F0F0"/>
<path d="M12 8.86873H23.5866C23.2857 7.75245 22.8284 6.70053 22.2387 5.73828H12V8.86873Z" fill="#338AF3"/>
<path d="M4.53058 21.3922H19.4702C20.5654 20.5199 21.5046 19.4605 22.2391 18.2617H1.76172C2.4963 19.4604 3.43548 20.5199 4.53058 21.3922Z" fill="#338AF3"/>
<path d="M4.17433 2.90234C3.23092 3.71473 2.41534 4.67141 1.76172 5.73809H4.17433V2.90234Z" fill="#338AF3"/>
<path d="M12 12.0015C12 10.7792 12 9.75628 12 8.87109H7.30434V12.0015H4.17389V8.87109H0.413391C0.144375 9.86925 0 10.9184 0 12.0015C0 13.0847 0.144375 14.1338 0.413391 15.132H23.5867C23.8556 14.1338 24 13.0847 24 12.0015H12Z" fill="#338AF3"/>
<path d="M12.0003 0C10.334 0 8.74703 0.339984 7.30469 0.953812V5.73914H12.0003C12.0003 4.64639 12.0003 3.717 12.0003 2.60869H19.4702C17.4203 0.976125 14.8245 0 12.0003 0Z" fill="#338AF3"/>
</g>
<defs>
<clipPath id="clip0_11671_1345">
<rect width="24" height="24" fill="white"/>
</clipPath>
</defs>
</svg>
