<svg width="24" height="24" viewBox="0 0 24 24" fill="none" xmlns="http://www.w3.org/2000/svg">
<g clip-path="url(#clip0_11671_1586)">
<path d="M12 24C18.6274 24 24 18.6274 24 12C24 5.37258 18.6274 0 12 0C5.37258 0 0 5.37258 0 12C0 18.6274 5.37258 24 12 24Z" fill="#F0F0F0"/>
<path d="M16.5193 9.39384H13.5069L12.0008 6.78516L10.4948 9.39384H7.48242L8.9887 12.0025L7.48242 14.6112H10.4948L12.0008 17.2199L13.5069 14.6112H16.5193L15.013 12.0025L16.5193 9.39384ZM13.8512 12.0025L12.9261 13.6051H11.0757L10.1505 12.0025L11.0757 10.4H12.9261L13.8512 12.0025ZM12.0008 8.79736L12.3452 9.3938H11.6566L12.0008 8.79736ZM9.22519 10.4H9.91387L9.56953 10.9964L9.22519 10.4ZM9.22519 13.6051L9.56958 13.0087L9.91392 13.6051H9.22519ZM12.0008 15.2077L11.6565 14.6112H12.3452L12.0008 15.2077ZM14.7765 13.6051H14.0878L14.4322 13.0087L14.7765 13.6051ZM14.0878 10.4H14.7765L14.4322 10.9964L14.0878 10.4Z" fill="#0052B4"/>
<path d="M19.4703 2.60938H4.53058C3.43544 3.48162 2.49625 4.54109 1.76172 5.73983H22.2392C21.5046 4.54114 20.5654 3.48162 19.4703 2.60938Z" fill="#0052B4"/>
<path d="M4.53058 21.3922H19.4702C20.5654 20.5199 21.5046 19.4605 22.2391 18.2617H1.76172C2.4963 19.4604 3.43548 20.5199 4.53058 21.3922Z" fill="#0052B4"/>
</g>
<defs>
<clipPath id="clip0_11671_1586">
<rect width="24" height="24" fill="white"/>
</clipPath>
</defs>
</svg>
