<svg width="24" height="24" viewBox="0 0 24 24" fill="none" xmlns="http://www.w3.org/2000/svg">
<g clip-path="url(#clip0_11671_1322)">
<path d="M12 24C18.6274 24 24 18.6274 24 12C24 5.37258 18.6274 0 12 0C5.37258 0 0 5.37258 0 12C0 18.6274 5.37258 24 12 24Z" fill="#F0F0F0"/>
<path d="M16.174 11.9981C16.174 13.0416 14.3052 15.6503 12.0001 15.6503C9.69489 15.6503 7.82617 13.0416 7.82617 11.9981C7.82617 9.69289 9.69489 7.82422 12.0001 7.82422C14.3052 7.82422 16.174 9.69289 16.174 11.9981Z" fill="#D80027"/>
<path d="M16.174 12C16.174 14.3052 14.3052 16.1739 12.0001 16.1739C9.69489 16.1739 7.82617 14.3052 7.82617 12" fill="#0052B4"/>
<path d="M16.4238 15.6875L17.5304 14.5809L18.2682 15.3186L17.1616 16.4252L16.4238 15.6875Z" fill="black"/>
<path d="M14.5781 17.5352L15.6847 16.4286L16.4225 17.1663L15.3159 18.2729L14.5781 17.5352Z" fill="black"/>
<path d="M18.6367 17.9023L19.7433 16.7957L20.4811 17.5335L19.3745 18.6401L18.6367 17.9023Z" fill="black"/>
<path d="M16.793 19.7461L17.8996 18.6395L18.6373 19.3772L17.5307 20.4838L16.793 19.7461Z" fill="black"/>
<path d="M17.5312 16.7969L18.6378 15.6903L19.3756 16.428L18.269 17.5346L17.5312 16.7969Z" fill="black"/>
<path d="M15.6855 18.6406L16.7921 17.534L17.5299 18.2718L16.4233 19.3784L15.6855 18.6406Z" fill="black"/>
<path d="M18.6426 8.3125L15.6916 5.36156L16.4294 4.62382L19.3803 7.57476L18.6426 8.3125Z" fill="black"/>
<path d="M15.6914 7.57422L14.5848 6.46762L15.3225 5.72991L16.4291 6.83651L15.6914 7.57422Z" fill="black"/>
<path d="M17.5352 9.42188L16.4286 8.31528L17.1663 7.57757L18.2729 8.68416L17.5352 9.42188Z" fill="black"/>
<path d="M17.9043 5.36328L16.7977 4.25668L17.5354 3.51894L18.642 4.62554L17.9043 5.36328Z" fill="black"/>
<path d="M19.748 7.20703L18.6414 6.10043L19.3792 5.36269L20.4858 6.46929L19.748 7.20703Z" fill="black"/>
<path d="M4.25391 16.793L7.20485 19.7439L6.4671 20.4817L3.51616 17.5307L4.25391 16.793Z" fill="black"/>
<path d="M7.20508 17.5312L8.31168 18.6378L7.57397 19.3756L6.46737 18.269L7.20508 17.5312Z" fill="black"/>
<path d="M5.36133 15.6875L6.46793 16.7941L5.73018 17.5318L4.62359 16.4252L5.36133 15.6875Z" fill="black"/>
<path d="M6.4668 14.582L9.41774 17.533L8.67999 18.2707L5.72905 15.3198L6.4668 14.582Z" fill="black"/>
<path d="M7.20508 4.25391L4.25414 7.20485L3.51639 6.4671L6.46733 3.51616L7.20508 4.25391Z" fill="black"/>
<path d="M8.31055 5.35938L5.35961 8.31032L4.62186 7.57257L7.5728 4.62163L8.31055 5.35938Z" fill="black"/>
<path d="M9.41992 6.46484L6.46898 9.41578L5.73127 8.67807L8.68221 5.72713L9.41992 6.46484Z" fill="black"/>
</g>
<defs>
<clipPath id="clip0_11671_1322">
<rect width="24" height="24" fill="white"/>
</clipPath>
</defs>
</svg>
