<svg width="24" height="24" viewBox="0 0 24 24" fill="none" xmlns="http://www.w3.org/2000/svg">
<g clip-path="url(#clip0_11671_234)">
<path d="M0 11.9997C0 17.1592 3.2565 21.5577 7.82602 23.2533L8.86955 11.9997L7.82602 0.746094C3.2565 2.44166 0 6.84012 0 11.9997Z" fill="#6DA544"/>
<path d="M24.0002 12C24.0002 5.37262 18.6275 0 12.0002 0C10.5323 0 9.1262 0.264047 7.82617 0.746391V23.2536C9.1262 23.736 10.5323 24 12.0002 24C18.6275 24 24.0002 18.6274 24.0002 12Z" fill="#D80027"/>
<path d="M7.82623 16.172C10.1314 16.172 12.0001 14.3033 12.0001 11.9981C12.0001 9.69293 10.1314 7.82422 7.82623 7.82422C5.52106 7.82422 3.65234 9.69293 3.65234 11.9981C3.65234 14.3033 5.52106 16.172 7.82623 16.172Z" fill="#FFDA44"/>
<path d="M5.47852 9.91406V12.5228C5.47852 13.8194 6.52964 14.8706 7.82634 14.8706C9.12305 14.8706 10.1742 13.8195 10.1742 12.5228V9.91406H5.47852Z" fill="#D80027"/>
<path d="M7.82559 13.3026C7.39406 13.3026 7.04297 12.9515 7.04297 12.52V11.4766H8.60817V12.52C8.60817 12.9515 8.25708 13.3026 7.82559 13.3026Z" fill="#F0F0F0"/>
</g>
<defs>
<clipPath id="clip0_11671_234">
<rect width="24" height="24" fill="white"/>
</clipPath>
</defs>
</svg>
