<svg width="24" height="24" viewBox="0 0 24 24" fill="none" xmlns="http://www.w3.org/2000/svg">
<g clip-path="url(#clip0_11671_1606)">
<path d="M12 24C18.6274 24 24 18.6274 24 12C24 5.37258 18.6274 0 12 0C5.37258 0 0 5.37258 0 12C0 18.6274 5.37258 24 12 24Z" fill="#FFDA44"/>
<path d="M3.51544 20.4861C4.01883 20.9895 4.55592 21.4384 5.11931 21.8336L21.8335 5.11936C21.4384 4.55597 20.9894 4.01888 20.486 3.51548C19.9826 3.01209 19.4455 2.56322 18.8821 2.16797L2.16797 18.8822C2.56313 19.4455 3.01209 19.9826 3.51544 20.4861Z" fill="black"/>
<path d="M3.51422 3.51417C-0.271495 7.29998 -0.998292 12.9855 1.33247 17.5016L17.5016 1.33246C12.9856 -0.998302 7.29999 -0.271459 3.51422 3.51417Z" fill="#6DA544"/>
<path d="M20.4854 20.4835C24.2711 16.6978 24.9979 11.0122 22.6672 6.49609L6.49805 22.6653C11.014 24.996 16.6996 24.2692 20.4854 20.4835Z" fill="#338AF3"/>
</g>
<defs>
<clipPath id="clip0_11671_1606">
<rect width="24" height="24" fill="white"/>
</clipPath>
</defs>
</svg>
