<svg width="156" height="48" viewBox="0 0 156 48" fill="none" xmlns="http://www.w3.org/2000/svg">
<g clip-path="url(#clip0_9077_18546)">
<path d="M36.1023 16.7808C34.861 15.8746 33.3147 14.8706 31.6785 14.0248C32.9065 13.3454 34.7416 12.3184 35.4209 11.875C36.4774 11.1844 37.8524 10.4251 37.357 13.2239C37.1385 14.4603 36.6769 15.6637 36.1023 16.7808Z" fill="white"/>
<path d="M45.5625 34.5491C44.3479 33.9414 42.5564 32.8736 41.3271 32.3517C40.3392 34.1866 38.0968 35.0458 35.3211 34.6988C32.9226 34.3994 31.349 32.8343 29.9249 31.8507C28.6506 30.9711 25.3789 28.3542 22.481 27.2547C19.2859 25.8285 16.3858 26.0562 14.3872 26.5549C13.3432 26.8163 8.79152 28.7539 12.0892 35.2487C13.7099 38.4418 13.4998 40.5353 12.8879 40.994C12.0892 41.5933 9.39142 39.6451 7.74264 38.2957C6.09377 39.3452 1.74714 41.4436 0.79736 41.2435C-0.375922 40.9976 -0.395516 37.5734 1.69736 35.2488C3.49586 33.2502 5.06036 31.8844 5.19452 30.3523C5.69402 24.6568 6.98945 21.3127 9.89017 18.0614C11.9141 15.7944 14.4369 14.4061 17.0763 13.6587C17.2379 14.2846 17.3847 14.8677 17.4978 15.3194C17.639 15.8849 17.7262 16.2467 17.7268 16.2475L18.5453 16.048C18.0219 14.0331 16.9315 9.90651 16.5479 8.97004C16.0358 7.71876 15.5089 6.1072 18.2354 7.00223C22.8433 8.51479 26.5021 12.5775 27.9985 17.4425L28.6469 17.3406C28.4453 16.0922 27.9129 14.7792 27.145 13.495C28.4299 13.7929 29.5968 14.1955 30.574 14.6647C33.3946 16.0185 36.0698 17.9623 37.4686 19.1616C43.5645 24.4573 45.5625 28.6542 47.3609 31.4517C49.1602 34.2498 46.7069 35.1216 45.5625 34.5491Z" fill="white"/>
</g>
<path d="M66.0154 35.6535H58V12H66.1771C68.5255 12 70.5428 12.4735 72.2291 13.4206C73.923 14.36 75.2243 15.7113 76.1328 17.4745C77.0414 19.2377 77.4957 21.3474 77.4957 23.8037C77.4957 26.2676 77.0375 28.385 76.1213 30.1559C75.2127 31.9269 73.8999 33.2859 72.1829 34.2329C70.4735 35.18 68.4177 35.6535 66.0154 35.6535ZM62.2849 31.9461H65.8075C67.4552 31.9461 68.8296 31.6458 69.9307 31.0452C71.0318 30.437 71.8595 29.5322 72.4139 28.3311C72.9682 27.1222 73.2454 25.6131 73.2454 23.8037C73.2454 21.9942 72.9682 20.4928 72.4139 19.2993C71.8595 18.0982 71.0395 17.2012 69.9538 16.6083C68.8758 16.0077 67.5361 15.7074 65.9346 15.7074H62.2849V31.9461Z" fill="white"/>
<path d="M90.5367 36C88.7581 36 87.222 35.6304 85.9285 34.8912C84.6426 34.1444 83.6532 33.0895 82.9602 31.7267C82.2673 30.3561 81.9208 28.743 81.9208 26.8874C81.9208 25.0626 82.2673 23.461 82.9602 22.0828C83.6609 20.6968 84.6388 19.6189 85.8938 18.8489C87.1489 18.0712 88.6234 17.6824 90.3173 17.6824C91.4107 17.6824 92.4424 17.8595 93.4126 18.2137C94.3905 18.5602 95.2528 19.0991 95.9997 19.8306C96.7543 20.5621 97.3471 21.4937 97.7783 22.6256C98.2095 23.7498 98.4251 25.0895 98.4251 26.6448V27.9269H83.8842V25.1088H94.4174C94.4097 24.308 94.2365 23.5958 93.8977 22.9721C93.5589 22.3407 93.0854 21.8441 92.4771 21.4822C91.8765 21.1203 91.1758 20.9394 90.3751 20.9394C89.5204 20.9394 88.7697 21.1473 88.1229 21.563C87.4761 21.9711 86.9718 22.5101 86.6099 23.18C86.2557 23.8422 86.0748 24.5698 86.0671 25.3628V27.8229C86.0671 28.8547 86.2557 29.7401 86.633 30.4793C87.0103 31.2108 87.5377 31.7729 88.2153 32.1655C88.8929 32.5505 89.6859 32.743 90.5945 32.743C91.2028 32.743 91.7533 32.6583 92.2461 32.4889C92.7389 32.3118 93.1662 32.0539 93.5281 31.7151C93.89 31.3763 94.1633 30.9567 94.3481 30.4562L98.2519 30.8951C98.0055 31.9269 97.5358 32.8277 96.8428 33.5977C96.1575 34.36 95.2798 34.9528 94.2095 35.3763C93.1392 35.7921 91.915 36 90.5367 36Z" fill="white"/>
<path d="M107.444 12V35.6535H103.263V12H107.444Z" fill="white"/>
<path d="M128.89 17.9134L122.573 35.6535H117.953L111.635 17.9134H116.093L120.17 31.0914H120.355L124.444 17.9134H128.89Z" fill="white"/>
<path d="M140.335 36C138.556 36 137.02 35.6304 135.726 34.8912C134.441 34.1444 133.451 33.0895 132.758 31.7267C132.065 30.3561 131.719 28.743 131.719 26.8874C131.719 25.0626 132.065 23.461 132.758 22.0828C133.459 20.6968 134.437 19.6189 135.692 18.8489C136.947 18.0712 138.421 17.6824 140.115 17.6824C141.209 17.6824 142.24 17.8595 143.211 18.2137C144.188 18.5602 145.051 19.0991 145.798 19.8306C146.552 20.5621 147.145 21.4937 147.576 22.6256C148.007 23.7498 148.223 25.0895 148.223 26.6448V27.9269H133.682V25.1088H144.215C144.208 24.308 144.034 23.5958 143.696 22.9721C143.357 22.3407 142.883 21.8441 142.275 21.4822C141.674 21.1203 140.974 20.9394 140.173 20.9394C139.318 20.9394 138.568 21.1473 137.921 21.563C137.274 21.9711 136.77 22.5101 136.408 23.18C136.054 23.8422 135.873 24.5698 135.865 25.3628V27.8229C135.865 28.8547 136.054 29.7401 136.431 30.4793C136.808 31.2108 137.336 31.7729 138.013 32.1655C138.691 32.5505 139.484 32.743 140.392 32.743C141.001 32.743 141.551 32.6583 142.044 32.4889C142.537 32.3118 142.964 32.0539 143.326 31.7151C143.688 31.3763 143.961 30.9567 144.146 30.4562L148.05 30.8951C147.803 31.9269 147.334 32.8277 146.641 33.5977C145.955 34.36 145.078 34.9528 144.007 35.3763C142.937 35.7921 141.713 36 140.335 36Z" fill="white"/>
<defs>
<clipPath id="clip0_9077_18546">
<rect width="48" height="48" fill="white" transform="matrix(1 0 0 -1 0 48)"/>
</clipPath>
</defs>
</svg>
