<svg width="40" height="40" viewBox="0 0 40 40" fill="none" xmlns="http://www.w3.org/2000/svg">
<mask id="path-1-inside-1_9942_153144" fill="white">
<path d="M0 20C0 8.95431 8.95431 0 20 0C31.0457 0 40 8.95431 40 20C40 31.0457 31.0457 40 20 40C8.95431 40 0 31.0457 0 20Z"/>
</mask>
<path d="M0 20C0 8.95431 8.95431 0 20 0C31.0457 0 40 8.95431 40 20C40 31.0457 31.0457 40 20 40C8.95431 40 0 31.0457 0 20Z" fill="#2A2A2A"/>
<path d="M0 0H40H0ZM40 21C40 32.0457 31.0457 41 20 41C8.9543 41 0 32.0457 0 21V20C0 30.4934 8.9543 39 20 39C31.0457 39 40 30.4934 40 20V21ZM0 40V0V40ZM40 0V40V0Z" fill="#1B1B1B" mask="url(#path-1-inside-1_9942_153144)"/>
<path d="M13.3333 20H26.6666" stroke="white" stroke-width="1.4" stroke-linecap="round" stroke-linejoin="round"/>
<path d="M13.3333 15H26.6666" stroke="white" stroke-width="1.4" stroke-linecap="round" stroke-linejoin="round"/>
<path d="M13.3333 25H26.6666" stroke="white" stroke-width="1.4" stroke-linecap="round" stroke-linejoin="round"/>
</svg>
