<svg width="23" height="22" viewBox="0 0 23 22" fill="none" xmlns="http://www.w3.org/2000/svg">
<g opacity="0.4">
<path d="M11.2249 4.3782C11.8617 2.75489 12.1802 1.94323 12.8461 1.84318C13.512 1.74312 14.0844 2.42092 15.2292 3.77653L15.5254 4.12723C15.8507 4.51245 16.0133 4.70507 16.2345 4.81505C16.4557 4.92504 16.7102 4.93993 17.2195 4.96973L17.6832 4.99687C19.4752 5.10175 20.3712 5.15419 20.6822 5.74003C20.9931 6.32589 20.513 7.05715 19.5529 8.51969L19.3045 8.89806C19.0317 9.31368 18.8953 9.52149 18.8584 9.75872C18.8216 9.99595 18.8884 10.2358 19.0223 10.7155L19.144 11.1523C19.6147 12.8405 19.8501 13.6845 19.3764 14.1466C18.9026 14.6088 18.0335 14.3829 16.2954 13.9312L15.8456 13.8143C15.3517 13.686 15.1047 13.6218 14.8608 13.6584C14.6168 13.6951 14.4035 13.8284 13.977 14.0951L13.5886 14.3379C12.0875 15.2763 11.3369 15.7456 10.7332 15.4454C10.1295 15.1451 10.0724 14.2742 9.95826 12.5326L9.92874 12.0819C9.89629 11.587 9.88006 11.3395 9.76617 11.1249C9.65226 10.9103 9.45357 10.7528 9.05616 10.438L8.69437 10.1512C7.29589 9.04313 6.59666 8.48906 6.69726 7.84137C6.79787 7.19369 7.63169 6.88132 9.29935 6.25659L9.73079 6.09497C10.2047 5.91745 10.4416 5.82869 10.6151 5.6594C10.7887 5.49011 10.8792 5.25946 11.0602 4.79817L11.2249 4.3782Z" fill="#FE5900"/>
<path d="M5.47743 8.79346C3.24341 10.9279 1.77866 14.4887 2.74688 20.1669C3.6111 17.7803 5.97906 15.8041 8.77941 14.6235C8.68169 14.0802 8.63834 13.4168 8.59264 12.7173L8.5569 12.1718C8.54858 12.0448 8.54224 11.9486 8.53547 11.8657C8.53265 11.8313 8.53001 11.8025 8.52755 11.7782C8.50626 11.76 8.48032 11.7383 8.44848 11.7122C8.38208 11.658 8.30419 11.5962 8.20245 11.5155L7.76686 11.1704C7.13151 10.6672 6.53967 10.1984 6.13276 9.76607C5.90074 9.51967 5.64127 9.19462 5.47743 8.79346Z" fill="#FE5900"/>
<path d="M10.0942 14.1377C10.0895 14.1034 10.0849 14.0684 10.0804 14.0327L10.1319 14.1257C10.1193 14.1297 10.1068 14.1336 10.0942 14.1377Z" fill="#FE5900"/>
</g>
</svg>
