<svg width="20" height="20" viewBox="0 0 20 20" fill="none" xmlns="http://www.w3.org/2000/svg">
<path d="M9.65008 3.98036C10.229 2.50462 10.5185 1.76675 11.1239 1.67579C11.7292 1.58483 12.2496 2.20102 13.2903 3.43338L13.5596 3.75221C13.8553 4.10241 14.0032 4.27752 14.2042 4.3775C14.4053 4.47748 14.6367 4.49102 15.0997 4.51812L15.5212 4.54278C17.1503 4.63813 17.9649 4.68581 18.2476 5.21839C18.5302 5.75098 18.0938 6.41577 17.221 7.74535L16.9952 8.08932C16.7472 8.46716 16.6232 8.65607 16.5897 8.87174C16.5562 9.08741 16.6169 9.30549 16.7386 9.74157L16.8492 10.1387C17.2772 11.6733 17.4912 12.4407 17.0605 12.8607C16.6298 13.2809 15.8397 13.0756 14.2596 12.6649L13.8507 12.5587C13.4017 12.442 13.1772 12.3837 12.9554 12.4169C12.7337 12.4502 12.5397 12.5715 12.152 12.8139L11.7989 13.0347C10.4342 13.8877 9.75192 14.3143 9.20308 14.0414C8.65425 13.7684 8.60233 12.9767 8.49858 11.3934L8.47175 10.9837C8.44225 10.5338 8.4275 10.3088 8.32396 10.1137C8.22041 9.91866 8.03977 9.77549 7.6785 9.48924L7.34959 9.22857C6.07825 8.22121 5.44258 7.71751 5.53404 7.1287C5.62551 6.53989 6.38352 6.25592 7.89957 5.68799L8.29179 5.54106C8.72258 5.37967 8.938 5.29898 9.09575 5.14508C9.2535 4.99118 9.33583 4.78151 9.50033 4.36215L9.65008 3.98036Z" fill="#FE5900"/>
<path d="M4.42486 7.99414C2.39394 9.93458 1.06234 13.1717 1.94254 18.3337C2.72819 16.164 4.88089 14.3674 7.42666 13.2942C7.33783 12.8002 7.29842 12.1972 7.25687 11.5612L7.22438 11.0653C7.21682 10.9499 7.21105 10.8624 7.20489 10.7871C7.20234 10.7558 7.19994 10.7297 7.19769 10.7076C7.17834 10.691 7.15476 10.6712 7.12581 10.6476C7.06545 10.5982 6.99464 10.5421 6.90215 10.4687L6.50616 10.155C5.92857 9.6975 5.39054 9.27133 5.02061 8.87833C4.80969 8.65433 4.5738 8.35883 4.42486 7.99414Z" fill="#FE5900"/>
<path d="M8.62236 12.8523C8.61811 12.8211 8.61395 12.7893 8.60986 12.7568L8.65661 12.8413C8.6452 12.845 8.63378 12.8486 8.62236 12.8523Z" fill="#FE5900"/>
</svg>
