<svg width="20" height="20" viewBox="0 0 20 20" fill="none" xmlns="http://www.w3.org/2000/svg">
<g clip-path="url(#clip0_9501_55270)">
<path d="M17.5419 18.3347V1.00098H2.44629V18.3347L9.99441 14.476L17.5425 18.3347H17.5419Z" fill="#FE5900"/>
<path d="M1.42058 20V19.6875C1.42058 13.7629 1.42516 7.84 1.43433 1.91875C1.43433 1.21687 1.24058 0.64625 0.724951 0.180625C0.672451 0.131875 0.628076 0.075 0.559326 0H19.4412C19.3481 0.0975 19.275 0.179375 19.1962 0.25375C18.755 0.67625 18.5618 1.18375 18.5625 1.8025C18.5737 7.77083 18.5766 13.7375 18.5712 19.7025V19.9994L9.99683 15.7131L1.42058 20ZM2.4462 1.00063V18.3344L9.99433 14.4756L17.5425 18.3344V1.00063H2.4462Z" fill="white"/>
<path d="M13.8718 9.70551H6.11805C6.03367 9.40988 5.9468 9.11176 5.8643 8.81238C5.69367 8.20051 5.52305 7.59176 5.36742 6.97426C5.35117 6.90676 5.3418 6.82863 5.3418 6.74863C5.3418 6.74738 5.3418 6.74676 5.3418 6.74551C5.3418 6.74426 5.3418 6.74301 5.3418 6.74238C5.3418 6.66488 5.35055 6.58926 5.3668 6.51676L5.36555 6.52363L5.3643 6.53051C5.42805 6.21676 5.52055 5.90863 5.61805 5.53426L6.31617 6.68363C6.2593 6.77676 6.2043 6.86238 6.15367 6.95051C5.98992 7.23551 6.09117 7.54613 6.39867 7.66738C6.9118 7.86988 7.44555 7.83676 7.97867 7.77801C8.20555 7.75051 8.4093 7.70551 8.60555 7.64426L8.58117 7.65113L8.5568 7.65738C9.1168 7.49426 9.37805 7.02551 9.20117 6.46613C9.12117 6.21238 8.9818 5.97801 8.85555 5.70301L9.9968 3.64551L11.1193 5.67301C10.9849 6.02863 10.8243 6.32363 10.7674 6.63863C10.6737 7.14676 10.9237 7.50926 11.418 7.65238C11.7655 7.75926 12.1655 7.82051 12.5799 7.82051C12.5843 7.82051 12.5893 7.82051 12.5937 7.82051C12.8618 7.82051 13.1243 7.79551 13.3787 7.74738L13.3524 7.75176L13.3268 7.75551C13.8543 7.66363 14.113 7.25238 13.7443 6.79676C13.7237 6.76676 13.7024 6.73238 13.6837 6.69613L13.6812 6.69051L13.6787 6.68488C13.898 6.32238 14.1174 5.95551 14.3368 5.58801H14.3937C14.4524 6.11051 14.7887 6.57301 14.593 7.15801C14.3362 7.93176 14.1487 8.72926 13.9312 9.51676C13.913 9.57988 13.8924 9.64113 13.8718 9.70551Z" fill="white"/>
<path d="M13.8737 10.1035V10.6648H6.12744V10.1035H13.8737Z" fill="white"/>
<path d="M3.69824 10.6641V10.1016H4.95637V10.6641H3.69824Z" fill="white"/>
<path d="M16.288 10.6707H15.0361V10.1045H16.288V10.6707Z" fill="white"/>
</g>
<defs>
<clipPath id="clip0_9501_55270">
<rect width="20" height="20" fill="white"/>
</clipPath>
</defs>
</svg>
