<svg width="22" height="22" viewBox="0 0 22 22" fill="none" xmlns="http://www.w3.org/2000/svg">
<g clip-path="url(#clip0_10055_17635)">
<path d="M19.296 20.1677V1.10059H2.69086V20.1677L10.9938 15.9231L19.2967 20.1677H19.296Z" fill="#FE5900"/>
<path d="M1.56267 22V21.6562C1.56267 15.1392 1.56771 8.624 1.5778 2.11063C1.5778 1.33856 1.36467 0.710875 0.797483 0.198688C0.739733 0.145063 0.69092 0.0825 0.615295 0H21.3854C21.2829 0.10725 21.2025 0.197312 21.1159 0.279125C20.6305 0.743875 20.418 1.30212 20.4187 1.98275C20.4311 8.54792 20.4343 15.1112 20.4284 21.6728V21.9993L10.9965 17.2844L1.56267 22ZM2.69086 1.10069V20.1678L10.9938 15.9232L19.2967 20.1678V1.10069H2.69086Z" fill="white"/>
<path d="M15.259 10.6758H6.72991C6.6371 10.3506 6.54154 10.0226 6.45079 9.69333C6.2631 9.02027 6.07541 8.35064 5.90423 7.67139C5.88635 7.59714 5.87604 7.5112 5.87604 7.4232C5.87604 7.42183 5.87604 7.42114 5.87604 7.41977C5.87604 7.41839 5.87604 7.41702 5.87604 7.41633C5.87604 7.33108 5.88566 7.24789 5.90354 7.16814L5.90216 7.1757L5.90079 7.18327C5.97091 6.83814 6.07266 6.4992 6.17991 6.08739L6.94785 7.3517C6.88529 7.45414 6.82479 7.54833 6.7691 7.64527C6.58897 7.95877 6.70035 8.30045 7.0386 8.43383C7.60304 8.65658 8.19016 8.62014 8.7766 8.55552C9.02616 8.52527 9.25029 8.47577 9.46616 8.40839L9.43935 8.41595L9.41254 8.42283C10.0285 8.24339 10.3159 7.72777 10.1214 7.11245C10.0333 6.83333 9.88004 6.57552 9.74116 6.27302L10.9965 4.00977L12.2313 6.24002C12.0835 6.6312 11.9068 6.9557 11.8442 7.3022C11.7411 7.86114 12.0161 8.25989 12.5599 8.41733C12.9422 8.53489 13.3822 8.60227 13.838 8.60227C13.8428 8.60227 13.8483 8.60227 13.8531 8.60227C14.148 8.60227 14.4368 8.57477 14.7166 8.52183L14.6877 8.52664L14.6595 8.53077C15.2398 8.4297 15.5244 7.97733 15.1188 7.47614C15.0961 7.44314 15.0727 7.40533 15.0521 7.36545L15.0493 7.35927L15.0466 7.35308C15.2879 6.95433 15.5292 6.55077 15.7705 6.14652H15.8331C15.8977 6.72127 16.2676 7.23002 16.0524 7.87352C15.7699 8.72464 15.5636 9.60189 15.3244 10.4681C15.3044 10.5376 15.2817 10.605 15.259 10.6758Z" fill="white"/>
<path d="M15.2611 11.1133V11.7307H6.74023V11.1133H15.2611Z" fill="white"/>
<path d="M4.06793 11.7311V11.1123H5.45187V11.7311H4.06793Z" fill="white"/>
<path d="M17.9169 11.7381H16.5399V11.1152H17.9169V11.7381Z" fill="white"/>
</g>
<defs>
<clipPath id="clip0_10055_17635">
<rect width="22" height="22" fill="white"/>
</clipPath>
</defs>
</svg>
