<svg width="23" height="22" viewBox="0 0 23 22" fill="none" xmlns="http://www.w3.org/2000/svg">
<g opacity="0.4">
<path d="M19.906 20.1677V1.10059H3.30078V20.1677L11.6037 15.9231L19.9067 20.1677H19.906Z" fill="#FE5900"/>
<path d="M2.17247 22V21.6562C2.17247 15.1392 2.17751 8.624 2.1876 2.11063C2.1876 1.33856 1.97447 0.710875 1.40729 0.198688C1.34954 0.145063 1.30072 0.0825 1.2251 0H21.9952C21.8927 0.10725 21.8123 0.197312 21.7257 0.279125C21.2403 0.743875 21.0278 1.30212 21.0285 1.98275C21.0409 8.54792 21.0441 15.1112 21.0382 21.6728V21.9993L11.6063 17.2844L2.17247 22ZM3.30066 1.10069V20.1678L11.6036 15.9232L19.9065 20.1678V1.10069H3.30066Z" fill="white"/>
<path d="M15.8688 10.6763H7.33971C7.2469 10.3511 7.15134 10.0231 7.06059 9.69382C6.8729 9.02075 6.68522 8.35113 6.51403 7.67188C6.49615 7.59763 6.48584 7.51169 6.48584 7.42369C6.48584 7.42232 6.48584 7.42163 6.48584 7.42025C6.48584 7.41888 6.48584 7.4175 6.48584 7.41682C6.48584 7.33157 6.49546 7.24838 6.51334 7.16863L6.51196 7.17619L6.51059 7.18375C6.58072 6.83863 6.68247 6.49969 6.78972 6.08788L7.55765 7.35219C7.49509 7.45463 7.43459 7.54882 7.3789 7.64575C7.19878 7.95925 7.31015 8.30094 7.6484 8.43432C8.21284 8.65707 8.79996 8.62063 9.3864 8.556C9.63596 8.52575 9.86009 8.47625 10.076 8.40888L10.0492 8.41644L10.0223 8.42332C10.6383 8.24388 10.9257 7.72825 10.7312 7.11294C10.6432 6.83382 10.4898 6.576 10.351 6.2735L11.6063 4.01025L12.8411 6.2405C12.6933 6.63169 12.5166 6.95619 12.454 7.30269C12.3509 7.86163 12.6259 8.26038 13.1697 8.41782C13.552 8.53538 13.992 8.60275 14.4478 8.60275C14.4526 8.60275 14.4581 8.60275 14.4629 8.60275C14.7578 8.60275 15.0466 8.57525 15.3264 8.52232L15.2975 8.52713L15.2693 8.53125C15.8496 8.43019 16.1342 7.97782 15.7286 7.47663C15.7059 7.44363 15.6825 7.40582 15.6619 7.36594L15.6592 7.35975L15.6564 7.35357C15.8977 6.95482 16.139 6.55125 16.3803 6.147H16.4429C16.5075 6.72175 16.8774 7.2305 16.6622 7.874C16.3797 8.72513 16.1734 9.60238 15.9342 10.4686C15.9142 10.5381 15.8915 10.6054 15.8688 10.6763Z" fill="white"/>
<path d="M15.871 11.1133V11.7307H7.3501V11.1133H15.871Z" fill="white"/>
<path d="M4.67773 11.7311V11.1123H6.06167V11.7311H4.67773Z" fill="white"/>
<path d="M18.5267 11.7376H17.1497V11.1147H18.5267V11.7376Z" fill="white"/>
</g>
</svg>
