<svg width="20" height="20" viewBox="0 0 20 20" fill="none" xmlns="http://www.w3.org/2000/svg">
<g id="_Icons" clip-path="url(#clip0_8814_4294)">
<path id="Vector" d="M8.23319 8.2334C7.98757 8.46227 7.79056 8.73827 7.65392 9.04494C7.51729 9.3516 7.44381 9.68265 7.43789 10.0183C7.43197 10.354 7.49372 10.6874 7.61945 10.9987C7.74519 11.31 7.93234 11.5928 8.16973 11.8302C8.40713 12.0676 8.68991 12.2547 9.0012 12.3805C9.3125 12.5062 9.64593 12.568 9.9816 12.562C10.3173 12.5561 10.6483 12.4826 10.955 12.346C11.2617 12.2094 11.5377 12.0124 11.7665 11.7667" stroke="#B1C2D5" stroke-width="1.4" stroke-linecap="round" stroke-linejoin="round"/>
<path id="Vector_2" d="M8.94141 4.23341C9.2925 4.18967 9.64593 4.16741 9.99974 4.16675C15.8331 4.16675 18.3331 10.0001 18.3331 10.0001C17.9605 10.7977 17.4933 11.5475 16.9414 12.2334" stroke="#B1C2D5" stroke-width="1.4" stroke-linecap="round" stroke-linejoin="round"/>
<path id="Vector_3" d="M5.50866 5.5083C3.85137 6.63715 2.52522 8.18768 1.66699 9.99997C1.66699 9.99997 4.16699 15.8333 10.0003 15.8333C11.5969 15.8376 13.1593 15.3709 14.492 14.4916" stroke="#B1C2D5" stroke-width="1.4" stroke-linecap="round" stroke-linejoin="round"/>
<path id="Vector_4" d="M1.66699 1.66675L18.3337 18.3334" stroke="#B1C2D5" stroke-width="1.4" stroke-linecap="round" stroke-linejoin="round"/>
</g>
<defs>
<clipPath id="clip0_8814_4294">
<rect width="20" height="20" fill="white"/>
</clipPath>
</defs>
</svg>
